<?xml version="1.0" encoding="utf-8"?>
<!-- Generator: Adobe Illustrator 16.0.0, SVG Export Plug-In . SVG Version: 6.00 Build 0)  -->
<!DOCTYPE svg PUBLIC "-//W3C//DTD SVG 1.1//EN" "http://www.w3.org/Graphics/SVG/1.1/DTD/svg11.dtd">
<svg version="1.1" id="Layer_1" xmlns="http://www.w3.org/2000/svg" xmlns:xlink="http://www.w3.org/1999/xlink" x="0px" y="0px"
	 width="118.28px" height="303.226px" viewBox="0 0 118.28 303.226" enable-background="new 0 0 118.28 303.226"
	 xml:space="preserve">
<g id="cabeza_empresario_1_">
	<path fill="#F2CAA5" d="M96.158,57.198c0.058,24.2-19.323,43.872-43.299,43.934C28.898,101.189,9.42,81.612,9.361,57.414
		C9.302,33.212,28.684,13.54,52.643,13.482C76.62,13.423,96.102,32.998,96.158,57.198z"/>
	<path fill="#676767" stroke="#676767" stroke-width="0.9598" stroke-miterlimit="10" d="M69.793,51.236
		c-5.867,0-13.898,3.916-12.383,10.358c1.134,4.822,6.266,9.854,12.124,9.854c5.86,0,9.981-4.781,11.116-9.602
		C82.168,55.403,75.646,51.236,69.793,51.236z M80.004,61.829c-1.062,4.513-4.917,8.986-10.406,8.986
		c-5.48,0-10.283-4.709-11.348-9.222c-1.418-6.032,6.104-9.694,11.584-9.694C75.321,51.899,81.422,55.799,80.004,61.829z"/>
	<path fill="#676767" stroke="#676767" stroke-width="0.9598" stroke-miterlimit="10" d="M40.28,51.236
		c-5.861,0-12.379,4.167-10.865,10.61c1.137,4.821,5.257,9.602,11.117,9.602c5.863,0,10.994-5.032,12.128-9.854
		C54.174,55.152,46.14,51.236,40.28,51.236z M51.94,61.593c-1.072,4.513-5.924,9.222-11.463,9.222c-5.535,0-9.432-4.473-10.5-8.986
		c-1.434-6.03,4.727-9.93,10.264-9.93C45.774,51.899,53.369,55.561,51.94,61.593z"/>
	<g>
		<path fill="#676767" d="M57.839,60.946c-3.2-2.177-5.603,0.042-5.626,0.063l-0.367-0.862c0.026-0.027,2.691-2.616,6.535,0.004
			L57.839,60.946z"/>
	</g>
	
		<line fill="none" stroke="#676767" stroke-width="1.7871" stroke-miterlimit="10" x1="90.382" y1="54.421" x2="80.477" y2="58.076"/>
	<path fill="#5B4B43" d="M48.954,100.186c-20.772-3.521-32.409-47.88-32.409-47.88s60.306-0.616,64.688-22.451
		c-0.312,1.547,9.016,25.345,9.088,28.795c0.337,16.095-18.862,41.008-29.326,41.684c41.192-2.658,40.035-38.67,39.992-57.785
		c-0.055-21.083-21.705-38.13-48.357-38.065C25.977,4.548,5.327,21.695,4.453,42.785C1.68,110.082,48.954,100.186,48.954,100.186z"
		/>
	<path fill="#D4A984" d="M64.174,89.01c0,0-4.068-3.638-9.984-3.623c-5.707,0.014-10.098,3.67-10.098,3.67s2.038-9.146,10.084-9.164
		C62.223,79.875,64.174,89.01,64.174,89.01z"/>
	<path fill="#534133" d="M42.83,59.245c0.004,2.063-1.007,3.741-2.267,3.745c-1.246,0.002-2.263-1.67-2.266-3.733
		c-0.008-2.062,0.999-3.736,2.247-3.738C41.802,55.515,42.822,57.184,42.83,59.245z"/>
	<path fill="#534133" d="M71.458,59.245c0.003,2.063-1.003,3.744-2.265,3.745c-1.248,0.004-2.264-1.67-2.271-3.733
		c-0.004-2.062,1-3.734,2.252-3.738C70.434,55.517,71.453,57.184,71.458,59.245z"/>
	<path fill="#D4A984" d="M57.56,71.783c0,0-1.325-1.194-3.27-1.188c-1.87,0.003-3.306,1.204-3.306,1.204s0.663-2.999,3.302-3.004
		C56.918,68.785,57.56,71.783,57.56,71.783z"/>
	<circle fill="#F2CAA5" cx="21.807" cy="64.812" r="6.513"/>
	<circle fill="#F2CAA5" cx="87.743" cy="64.635" r="6.513"/>
	
		<line fill="none" stroke="#676767" stroke-width="1.9196" stroke-miterlimit="10" x1="17.717" y1="57.162" x2="29.145" y2="60.819"/>
</g>
<path fill="#E5E885" d="M91.444,151.837c-1.373-6.686-8.869-25.858-14.546-33.744c-0.071-0.102-0.167-0.167-0.249-0.253
	c-0.695-0.816-1.616-1.57-2.855-2.213c-9.125-4.738-35.485-5.419-41.162,2.467c-5.674,7.886-13.172,27.059-14.547,33.744
	s-2.357,34.271-2.357,34.271h6.486c0,0,1.797-28.271,3.146-34.271c1.348-6,9.721-20.976,9.721-20.976l5.188,14.293l-3.304,43.404
	l35.307,0.385l-3.011-43.789l0.51-1.409l5.41-11.551c2.062,3.786,7.881,14.724,8.989,19.642c1.348,6.001,3.146,34.272,3.146,34.272
	h6.486C93.799,186.109,92.817,158.523,91.444,151.837z"/>
<polygon fill="#2D4C80" points="36.928,187.559 38.451,230.538 69.704,230.538 72.339,187.85 "/>
<polygon fill="#F2CAA5" points="38.451,230.538 42.74,289.978 50.706,289.978 51.93,230.538 "/>
<polygon fill="#F2CAA5" points="68.185,230.538 63.892,289.978 55.928,289.978 54.702,230.538 "/>
<polygon fill="#0C2121" points="55.928,289.978 55.975,301.318 59.285,301.318 59.285,298.865 63.268,301.318 77.362,301.318 
	63.892,289.978 "/>
<polygon fill="#0C2121" points="50.971,289.978 50.924,301.318 47.614,301.318 47.614,298.865 43.632,301.318 29.538,301.318 
	43.002,289.978 "/>
<path fill="#F2CAA5" d="M14.551,188.559c-0.38,3.339-0.193,6.237,0,9.196c0.193,2.961,2.902,3.475,4.126,0.407
	c1.226-3.065,0.774-6.534,0.774-6.534s1.229,5.08,2.758,2.692c1.533-2.385,0.161-10.663,0.161-10.663l-6.539-0.287
	C15.832,183.371,14.932,185.22,14.551,188.559z"/>
<rect x="48.954" y="119.048" fill="#E5E885" width="12.092" height="68.351"/>
<polygon fill="#F2CAA5" points="61.045,120.955 55,130.862 49.012,120.982 48.954,96.835 60.987,96.808 "/>
<g>
	<g>
		<rect x="65.452" y="196.624" fill="#996038" width="50.859" height="34.231"/>
		
			<line fill="none" stroke="#834A1F" stroke-width="0.9402" stroke-miterlimit="10" x1="65.452" y1="207.87" x2="116.311" y2="207.87"/>
		<path fill="#834A1F" d="M90.371,205.79c1.237,0,2.241,0.933,2.241,2.08c0,1.151-1.004,2.079-2.241,2.079s-2.239-0.928-2.239-2.079
			C88.131,206.722,89.133,205.79,90.371,205.79z"/>
	</g>
	<path fill="none" stroke="#996038" stroke-width="1.9196" stroke-miterlimit="10" d="M82.208,197.837c0,0,1.027-7.038,6.68-7.376
		c7.906-0.473,9.523,3.388,9.877,7.376"/>
</g>
<path fill="#F2CAA5" d="M95.153,189.68c0.383,3.338-1.912,2.778-4.9,3.069c-5.929,0.577-2.92-7.968-2.92-7.968l6.542-0.286
	C93.875,184.491,94.774,186.341,95.153,189.68z"/>
</svg>
