<svg version="1.1" id="api_tool" xmlns="http://www.w3.org/2000/svg" xmlns:xlink="http://www.w3.org/1999/xlink" x="0px" y="0px"
	  viewBox="0 0 443.158 430.545" enable-background="new 0 0 443.158 430.545"
	 xml:space="preserve">
<g>
	<rect x="285.307" y="14.645" fill="#6F6E73" width="76" height="84.308"/>
	<rect x="270.307" y="120.661" fill="#6F6E73" width="101" height="12.076"/>
	<rect x="44.307" y="80.487" fill="#6F6E73" width="96" height="293.553"/>
	<rect x="32.307" y="276.574" fill="#434245" width="119" height="8.85"/>
	<rect x="32.307" y="296.859" fill="#434245" width="119" height="8.85"/>
	<rect x="32.307" y="318.729" fill="#434245" width="119" height="8.85"/>
	<g>
		<rect x="238.307" y="334.574" fill="#3D9392" width="166" height="41.594"/>
		<rect x="270.307" y="98.952" fill="#3D9392" width="101" height="27.622"/>
		<rect x="32.307" y="94.574" fill="#3D9392" width="119" height="165.285"/>
		<rect x="32.307" y="348.096" fill="#3D9392" width="119" height="19.662"/>
		<rect x="19.307" y="32.574" fill="#3D9392" width="369" height="47.913"/>
		<rect x="11.307" y="362.604" fill="#3D9392" width="409" height="42.971"/>
	</g>
	<polygon fill="#5A595C" points="312.807,204.778 302.807,204.778 287.807,132.616 312.807,132.616 	"/>
	<polygon fill="#5A595C" points="329.807,204.778 339.807,204.778 354.807,132.616 329.807,132.616 	"/>
</g>
</svg>