<svg version="1.1" id="Layer_1" xmlns="http://www.w3.org/2000/svg" xmlns:xlink="http://www.w3.org/1999/xlink" x="0px" y="0px"
	 width="233px" height="196.667px" viewBox="0 0 233 196.667" enable-background="new 0 0 233 196.667" xml:space="preserve">
<g id="Layer_1_1_">
	<g>
		<g opacity="0.6">
			<g>
				<path fill="#FFFFFF" d="M118.262,177.839c-1.327,0-2.665-0.033-3.978-0.102c-0.828-0.039-1.465-0.742-1.424-1.57
					c0.042-0.828,0.741-1.459,1.572-1.424c1.618,0.08,3.271,0.107,4.902,0.088c0.007,0,0.014,0,0.021,0
					c0.817,0,1.487,0.656,1.5,1.479c0.011,0.83-0.651,1.51-1.479,1.521C119.005,177.835,118.634,177.839,118.262,177.839z
					 M126.336,177.419c-0.759,0-1.41-0.574-1.49-1.346c-0.084-0.822,0.514-1.562,1.338-1.646c1.616-0.168,3.25-0.391,4.854-0.664
					c0.813-0.137,1.593,0.41,1.729,1.227c0.141,0.816-0.41,1.592-1.228,1.73c-1.668,0.285-3.366,0.518-5.049,0.691
					C126.441,177.417,126.389,177.419,126.336,177.419z M107.399,177.08c-0.07,0-0.141-0.006-0.212-0.017
					c-1.67-0.235-3.357-0.528-5.018-0.875c-0.812-0.168-1.332-0.963-1.164-1.772c0.169-0.812,0.966-1.334,1.773-1.164
					c1.598,0.332,3.222,0.615,4.828,0.842c0.82,0.117,1.392,0.875,1.275,1.695C108.776,176.539,108.134,177.08,107.399,177.08z
					 M138.124,175.253c-0.663,0-1.271-0.443-1.448-1.113c-0.213-0.801,0.264-1.623,1.062-1.836c1.568-0.416,3.146-0.893,4.691-1.414
					c0.791-0.26,1.637,0.158,1.9,0.943s-0.158,1.637-0.941,1.898c-1.607,0.543-3.25,1.037-4.88,1.471
					C138.38,175.237,138.251,175.253,138.124,175.253z M95.698,174.481c-0.146,0-0.294-0.021-0.44-0.063
					c-1.613-0.494-3.237-1.051-4.828-1.651c-0.774-0.293-1.165-1.158-0.872-1.935c0.294-0.774,1.163-1.16,1.935-0.873
					c1.53,0.58,3.093,1.115,4.645,1.59c0.792,0.242,1.237,1.08,0.995,1.873C96.933,174.067,96.339,174.481,95.698,174.481z
					 M149.428,171.276c-0.576,0-1.125-0.332-1.373-0.894c-0.334-0.758,0.008-1.644,0.766-1.979c1.479-0.653,2.963-1.368,4.408-2.125
					c0.731-0.385,1.642-0.1,2.023,0.634c0.385,0.733,0.1,1.642-0.634,2.024c-1.505,0.785-3.048,1.528-4.585,2.211
					C149.836,171.235,149.63,171.276,149.428,171.276z M84.537,170.085c-0.221,0-0.444-0.049-0.656-0.15
					c-1.515-0.74-3.031-1.541-4.509-2.385c-0.72-0.41-0.971-1.326-0.56-2.045c0.41-0.721,1.326-0.971,2.046-0.562
					c1.422,0.812,2.881,1.582,4.337,2.293c0.745,0.363,1.054,1.264,0.691,2.008C85.625,169.776,85.092,170.085,84.537,170.085z
					 M159.969,165.589c-0.492,0-0.976-0.242-1.262-0.688c-0.449-0.696-0.248-1.625,0.447-2.073c1.359-0.875,2.716-1.812,4.029-2.785
					c0.664-0.494,1.604-0.354,2.098,0.312s0.354,1.604-0.312,2.1c-1.365,1.012-2.775,1.984-4.188,2.896
					C160.529,165.511,160.248,165.589,159.969,165.589z M74.201,164.007c-0.297,0-0.596-0.088-0.857-0.271
					c-1.393-0.973-2.767-1.998-4.083-3.051c-0.647-0.52-0.752-1.463-0.235-2.107c0.519-0.646,1.462-0.752,2.108-0.234
					c1.266,1.012,2.587,2,3.927,2.936c0.68,0.473,0.846,1.408,0.371,2.088C75.14,163.785,74.674,164.007,74.201,164.007z
					 M169.506,158.335c-0.413,0-0.824-0.17-1.121-0.502c-0.551-0.619-0.496-1.568,0.122-2.119c1.216-1.082,2.409-2.217,3.552-3.375
					c0.582-0.592,1.531-0.598,2.121-0.016c0.59,0.58,0.598,1.529,0.016,2.119c-1.188,1.205-2.43,2.387-3.69,3.512
					C170.217,158.21,169.861,158.335,169.506,158.335z M64.932,156.403c-0.373,0-0.747-0.139-1.038-0.416
					c-1.216-1.166-2.414-2.394-3.562-3.646c-0.561-0.61-0.519-1.559,0.092-2.118c0.611-0.562,1.56-0.519,2.119,0.092
					c1.104,1.205,2.257,2.386,3.427,3.506c0.598,0.572,0.618,1.522,0.045,2.121C65.72,156.25,65.327,156.403,64.932,156.403z
					 M177.809,149.692c-0.334,0-0.672-0.11-0.951-0.34c-0.641-0.526-0.73-1.474-0.207-2.11c1.039-1.265,2.045-2.572,2.992-3.888
					c0.483-0.673,1.424-0.823,2.094-0.342c0.674,0.483,0.824,1.422,0.343,2.094c-0.983,1.367-2.029,2.728-3.106,4.039
					C178.672,149.507,178.243,149.692,177.809,149.692z M56.951,147.464c-0.452,0-0.898-0.203-1.194-0.59
					c-1.022-1.342-2.017-2.735-2.955-4.146c-0.459-0.689-0.271-1.62,0.418-2.08c0.686-0.458,1.619-0.273,2.08,0.418
					c0.902,1.355,1.859,2.698,2.844,3.989c0.502,0.657,0.375,1.601-0.284,2.103C57.587,147.365,57.268,147.464,56.951,147.464z
					 M184.684,139.873c-0.261,0-0.521-0.065-0.762-0.209c-0.714-0.42-0.951-1.34-0.529-2.054c0.826-1.403,1.619-2.853,2.354-4.305
					c0.375-0.739,1.276-1.034,2.017-0.662c0.738,0.374,1.035,1.276,0.661,2.017c-0.764,1.51-1.587,3.016-2.446,4.475
					C185.697,139.608,185.195,139.873,184.684,139.873z M50.445,137.402c-0.533,0-1.049-0.283-1.32-0.785
					c-0.808-1.494-1.573-3.025-2.275-4.553c-0.346-0.753-0.016-1.645,0.736-1.99c0.752-0.345,1.644-0.017,1.99,0.736
					c0.675,1.469,1.411,2.941,2.188,4.378c0.395,0.729,0.123,1.64-0.605,2.033C50.93,137.345,50.686,137.402,50.445,137.402z
					 M189.953,129.099c-0.184,0-0.37-0.033-0.551-0.104c-0.771-0.307-1.148-1.178-0.846-1.947c0.603-1.523,1.157-3.078,1.653-4.619
					c0.253-0.79,1.103-1.227,1.888-0.969c0.789,0.254,1.223,1.099,0.969,1.887c-0.517,1.604-1.094,3.219-1.719,4.804
					C191.115,128.74,190.55,129.099,189.953,129.099z M45.583,126.457c-0.618,0-1.197-0.385-1.414-1
					c-0.563-1.595-1.081-3.229-1.54-4.855c-0.224-0.797,0.24-1.626,1.038-1.852c0.798-0.225,1.626,0.238,1.851,1.037
					c0.44,1.566,0.938,3.139,1.479,4.672c0.276,0.781-0.134,1.639-0.915,1.912C45.917,126.43,45.75,126.457,45.583,126.457z
					 M193.475,117.637c-0.105,0-0.217-0.013-0.326-0.036c-0.81-0.182-1.317-0.982-1.139-1.791c0.354-1.592,0.661-3.212,0.91-4.814
					c0.128-0.818,0.9-1.379,1.713-1.25c0.819,0.127,1.379,0.896,1.252,1.713c-0.26,1.666-0.578,3.351-0.947,5.004
					C194.783,117.162,194.163,117.637,193.475,117.637z M42.486,114.88c-0.709,0-1.339-0.506-1.473-1.229
					c-0.308-1.655-0.564-3.354-0.764-5.036c-0.098-0.822,0.49-1.568,1.312-1.666c0.829-0.1,1.569,0.489,1.666,1.311
					c0.192,1.621,0.439,3.252,0.734,4.846c0.151,0.812-0.387,1.598-1.201,1.748C42.668,114.871,42.577,114.88,42.486,114.88z
					 M195.166,105.772c-0.032,0-0.064-0.001-0.098-0.003c-0.826-0.053-1.455-0.766-1.401-1.594c0.104-1.621,0.156-3.271,0.156-4.897
					c0-1.428-0.04-2.871-0.12-4.29c-0.046-0.827,0.587-1.535,1.414-1.581c0.845-0.039,1.535,0.587,1.582,1.413
					c0.082,1.475,0.124,2.975,0.124,4.458c0,1.692-0.056,3.404-0.162,5.091C196.609,105.162,195.95,105.772,195.166,105.772z
					 M41.231,102.962c-0.809,0-1.476-0.646-1.498-1.457c-0.021-0.739-0.031-1.481-0.031-2.229c0-0.961,0.017-1.917,0.052-2.868
					c0.03-0.828,0.737-1.465,1.554-1.444c0.828,0.03,1.475,0.726,1.444,1.554c-0.033,0.915-0.05,1.835-0.05,2.759
					c0,0.718,0.01,1.433,0.029,2.144c0.023,0.828-0.629,1.519-1.457,1.541C41.26,102.962,41.246,102.962,41.231,102.962z
					 M41.819,90.993c-0.063,0-0.127-0.004-0.19-0.012c-0.822-0.104-1.404-0.855-1.3-1.678c0.213-1.678,0.483-3.37,0.805-5.03
					c0.157-0.813,0.947-1.344,1.757-1.188c0.813,0.157,1.346,0.943,1.188,1.757c-0.309,1.597-0.568,3.225-0.773,4.839
					C43.208,90.439,42.563,90.993,41.819,90.993z M194.493,89.444c-0.731,0-1.372-0.535-1.481-1.281
					c-0.236-1.609-0.531-3.231-0.871-4.821c-0.175-0.81,0.342-1.607,1.151-1.781c0.804-0.171,1.606,0.342,1.781,1.152
					c0.354,1.653,0.659,3.34,0.905,5.013c0.121,0.82-0.445,1.582-1.267,1.703C194.639,89.439,194.566,89.444,194.493,89.444z
					 M44.248,79.259c-0.139,0-0.279-0.02-0.419-0.06c-0.796-0.23-1.254-1.062-1.022-1.858c0.473-1.629,1.004-3.259,1.579-4.846
					c0.283-0.778,1.143-1.181,1.922-0.898c0.778,0.283,1.181,1.144,0.898,1.922c-0.554,1.525-1.064,3.092-1.519,4.658
					C45.497,78.832,44.898,79.259,44.248,79.259z M191.828,77.763c-0.639,0-1.23-0.41-1.432-1.052
					c-0.489-1.562-1.033-3.119-1.614-4.627c-0.298-0.773,0.087-1.642,0.858-1.939c0.772-0.298,1.643,0.086,1.938,0.859
					c0.604,1.568,1.17,3.187,1.679,4.81c0.247,0.791-0.191,1.633-0.982,1.88C192.126,77.74,191.977,77.763,191.828,77.763z
					 M48.479,68.044c-0.214,0-0.431-0.046-0.637-0.143c-0.75-0.353-1.072-1.246-0.72-1.996c0.719-1.53,1.499-3.059,2.318-4.543
					c0.4-0.725,1.314-0.987,2.038-0.588c0.726,0.4,0.989,1.312,0.589,2.038c-0.788,1.428-1.539,2.897-2.23,4.369
					C49.583,67.726,49.042,68.044,48.479,68.044z M187.369,66.642c-0.553,0-1.084-0.307-1.346-0.836
					c-0.717-1.45-1.494-2.901-2.312-4.314c-0.415-0.717-0.171-1.635,0.547-2.05c0.717-0.414,1.635-0.17,2.049,0.547
					c0.853,1.47,1.659,2.979,2.405,4.488c0.367,0.742,0.062,1.642-0.68,2.009C187.818,66.591,187.592,66.642,187.369,66.642z
					 M54.41,57.622c-0.29,0-0.582-0.084-0.84-0.258c-0.687-0.465-0.866-1.397-0.401-2.083c0.947-1.399,1.955-2.788,2.994-4.127
					c0.506-0.654,1.45-0.772,2.104-0.265c0.654,0.507,0.773,1.45,0.265,2.104c-0.999,1.287-1.968,2.623-2.879,3.969
					C55.363,57.391,54.89,57.622,54.41,57.622z M181.236,56.35c-0.471,0-0.936-0.221-1.228-0.634
					c-0.938-1.329-1.935-2.645-2.954-3.907c-0.521-0.645-0.422-1.589,0.225-2.109c0.645-0.521,1.588-0.42,2.109,0.224
					c1.061,1.312,2.094,2.679,3.069,4.061c0.479,0.677,0.317,1.612-0.356,2.091C181.838,56.261,181.536,56.35,181.236,56.35z
					 M61.881,48.246c-0.366,0-0.733-0.133-1.022-0.402c-0.606-0.565-0.64-1.515-0.074-2.12c1.15-1.235,2.359-2.45,3.592-3.613
					c0.604-0.568,1.553-0.541,2.12,0.062c0.568,0.603,0.541,1.552-0.062,2.12c-1.187,1.119-2.349,2.288-3.457,3.477
					C62.683,48.086,62.283,48.246,61.881,48.246z M173.582,47.13c-0.393,0-0.782-0.152-1.077-0.456
					c-1.135-1.171-2.319-2.316-3.522-3.406c-0.613-0.557-0.662-1.505-0.104-2.119c0.557-0.615,1.505-0.66,2.118-0.104
					c1.251,1.133,2.481,2.324,3.664,3.541c0.575,0.595,0.562,1.545-0.033,2.121C174.334,46.989,173.958,47.13,173.582,47.13z
					 M70.708,40.137c-0.444,0-0.885-0.196-1.181-0.573c-0.512-0.651-0.398-1.595,0.253-2.106c1.332-1.046,2.714-2.061,4.106-3.015
					c0.681-0.467,1.616-0.294,2.085,0.39c0.469,0.684,0.294,1.617-0.39,2.085c-1.339,0.918-2.667,1.894-3.948,2.899
					C71.358,40.032,71.032,40.137,70.708,40.137z M164.593,39.196c-0.313,0-0.632-0.098-0.901-0.302
					c-1.305-0.983-2.651-1.933-4.01-2.823c-0.69-0.454-0.886-1.384-0.431-2.077c0.456-0.692,1.386-0.884,2.077-0.431
					c1.41,0.926,2.812,1.913,4.168,2.936c0.662,0.498,0.794,1.438,0.296,2.101C165.498,38.99,165.048,39.196,164.593,39.196z
					 M80.677,33.49c-0.525,0-1.035-0.277-1.31-0.768c-0.405-0.723-0.147-1.637,0.576-2.042c1.477-0.827,2.997-1.614,4.521-2.341
					c0.746-0.354,1.643-0.04,1.999,0.708c0.357,0.748,0.04,1.643-0.708,2c-1.464,0.698-2.926,1.455-4.347,2.25
					C81.177,33.428,80.925,33.49,80.677,33.49z M154.488,32.746c-0.238,0-0.48-0.057-0.705-0.177
					c-1.436-0.766-2.916-1.495-4.4-2.167c-0.755-0.342-1.09-1.23-0.748-1.985c0.342-0.754,1.231-1.088,1.984-0.748
					c1.545,0.699,3.084,1.457,4.576,2.254c0.729,0.39,1.008,1.298,0.617,2.029C155.542,32.458,155.023,32.746,154.488,32.746z
					 M91.552,28.474c-0.609,0-1.184-0.375-1.407-0.98c-0.287-0.777,0.11-1.64,0.888-1.928c1.59-0.588,3.217-1.129,4.835-1.608
					c0.795-0.234,1.63,0.217,1.865,1.011c0.235,0.795-0.218,1.63-1.012,1.865c-1.556,0.461-3.119,0.981-4.649,1.547
					C91.901,28.443,91.725,28.474,91.552,28.474z M143.5,27.945c-0.163,0-0.328-0.026-0.491-0.083
					c-1.534-0.531-3.108-1.021-4.68-1.452c-0.8-0.219-1.269-1.045-1.05-1.844c0.221-0.799,1.049-1.267,1.845-1.049
					c1.634,0.449,3.271,0.957,4.867,1.51c0.782,0.271,1.196,1.126,0.926,1.909C144.703,27.557,144.122,27.945,143.5,27.945z
					 M103.082,25.213c-0.7,0-1.326-0.493-1.469-1.207c-0.162-0.812,0.364-1.603,1.177-1.765c1.656-0.331,3.347-0.611,5.026-0.835
					c0.816-0.108,1.574,0.469,1.685,1.289c0.108,0.821-0.469,1.576-1.29,1.685c-1.614,0.215-3.241,0.485-4.833,0.803
					C103.278,25.203,103.179,25.213,103.082,25.213z M131.907,24.922c-0.089,0-0.177-0.008-0.267-0.024
					c-1.603-0.285-3.232-0.522-4.85-0.704c-0.823-0.093-1.416-0.835-1.323-1.658c0.093-0.822,0.831-1.42,1.657-1.323
					c1.682,0.189,3.376,0.436,5.042,0.732c0.813,0.146,1.356,0.925,1.213,1.74C133.251,24.411,132.62,24.922,131.907,24.922z
					 M114.981,23.786c-0.8,0-1.464-0.631-1.498-1.438c-0.034-0.828,0.608-1.527,1.437-1.562c1.69-0.07,3.407-0.087,5.094-0.05
					c0.828,0.018,1.484,0.704,1.467,1.532c-0.019,0.829-0.67,1.495-1.531,1.467c-1.624-0.036-3.274-0.02-4.902,0.048
					C115.023,23.785,115.001,23.786,114.981,23.786z"/>
			</g>
		</g>
		<g>
			<g>
				<circle fill="#FFFFFF" cx="116.446" cy="44.389" r="39.342"/>
			</g>
			<g>
				<g>
					<circle id="SVGID_3_" fill="#FFFFFF" cx="190.258" cy="97.976" r="39.342"/>
				</g>
			</g>
			<g>
				<g>
					<g>
						<circle id="SVGID_6_" fill="#FFFFFF" cx="42.741" cy="97.976" r="39.342"/>
					</g>
				</g>
				<g>
					<g>
						<circle id="SVGID_8_" fill="#FFFFFF" cx="42.741" cy="97.976" r="39.342"/>
					</g>
					<g>
						<defs>
							<circle id="SVGID_1_" cx="42.741" cy="97.976" r="39.342"/>
						</defs>
						<clipPath id="SVGID_2_">
							<use xlink:href="#SVGID_1_"  overflow="visible"/>
						</clipPath>
						<g clip-path="url(#SVGID_2_)">
							<circle fill="#FFFFFF" cx="42.741" cy="97.976" r="39.342"/>
						</g>
					</g>
				</g>
				<g>
					<g>
						<circle id="SVGID_10_" fill="#FFFFFF" cx="42.741" cy="97.976" r="39.342"/>
					</g>
				</g>
			</g>
			<g>
				<g>
					<g>
						<circle id="SVGID_12_" fill="#FFFFFF" cx="116.446" cy="152.276" r="39.342"/>
					</g>
				</g>
			</g>
		</g>
		<g>
			<g>
				<circle fill="none" cx="116.446" cy="44.389" r="39.342"/>
			</g>
		</g>
	</g>
</g>
<g id="Layer_2">
</g>
<g>
	<g>
		<defs>
			<circle id="SVGID_4_" cx="116.446" cy="152.277" r="39.342"/>
		</defs>
		<clipPath id="SVGID_5_">
			<use xlink:href="#SVGID_4_"  overflow="visible"/>
		</clipPath>
		<g clip-path="url(#SVGID_5_)">
			<ellipse fill="#B74226" cx="116.457" cy="163.935" rx="18.18" ry="8.992"/>
			
				<ellipse transform="matrix(-1 0.0025 -0.0025 -1 233.0092 299.7454)" fill="#F1C9A5" cx="116.318" cy="150.018" rx="18.395" ry="18.574"/>
			<path fill="#B74226" d="M105.371,170.33c-7.794-10.578-4.413-22.433-4.413-22.433s10.18-4.86,11.677-7.608
				c0.37-0.68-2.457,4.426-3.967,6.562c-2.905,4.108,9.833-6.033,11.152-6.259c2.09-0.352-4.929,6.716-2.929,6.105
				c4.604-1.408,10.808-4.936,11.485-8.316c-0.133,0.656,3.401,10.813,3.853,12.207c2.274,7.029-4.521,20.597-8.957,20.885
				c17.461-1.129,13.496-19.608,13.477-27.709c-0.023-8.938-9.199-16.163-20.495-16.137c-11.296,0.024-20.05,7.295-20.419,16.233
				C94.658,172.382,105.371,170.33,105.371,170.33z"/>
			<path fill="#E86666" d="M112.635,159.608c0,0,1.723,1.544,4.232,1.536c2.418-0.005,4.279-1.557,4.279-1.557
				s-0.865,3.879-4.274,3.889C113.461,163.481,112.635,159.608,112.635,159.608z"/>
			<path fill="#524032" d="M112.1,150.835c0,0.875-0.428,1.588-0.961,1.59c-0.528,0-0.958-0.707-0.959-1.582
				c-0.002-0.875,0.423-1.586,0.952-1.586C111.663,149.255,112.097,149.966,112.1,150.835z"/>
			<ellipse fill="#524032" cx="123.271" cy="150.839" rx="0.961" ry="1.586"/>
			<path fill="#D3A884" d="M118.344,156.153c0,0-0.562-0.507-1.387-0.507c-0.792,0.003-1.402,0.512-1.402,0.512
				s0.282-1.269,1.401-1.273C118.072,154.88,118.344,156.153,118.344,156.153z"/>
			<circle fill="#F1C9A5" cx="101.037" cy="153.197" r="2.761"/>
			<circle fill="#F1C9A5" cx="131.877" cy="153.121" r="2.762"/>
			<path fill="#C91A77" d="M132.705,190.082c-0.582-2.834-3.76-10.959-6.165-14.302c-0.03-0.041-0.069-0.069-0.104-0.104
				c-0.295-0.348-0.685-0.666-1.211-0.938c-3.867-2.008-15.042-2.296-17.448,1.044c-2.405,3.344-5.584,11.469-6.165,14.303
				c-0.582,2.834-1,14.524-1,14.524h2.75c0,0,0.762-11.981,1.334-14.524c0.571-2.543,4.12-8.891,4.12-8.891l2.2,6.059l-1.399,18.398
				l14.963,0.162l-1.277-18.561l0.219-0.599l2.293-4.896c0.871,1.604,3.34,6.24,3.81,8.324c0.569,2.541,1.334,14.524,1.334,14.524
				h2.752C133.703,204.607,133.285,192.916,132.705,190.082z"/>
			<rect x="114.695" y="176.185" fill="#C91A77" width="5.125" height="28.97"/>
			<polygon fill="#F1C9A5" points="119.818,176.992 117.258,181.192 114.722,177.003 114.695,166.77 119.793,166.759 			"/>
		</g>
	</g>
</g>
<g>
	<g>
		<defs>
			<circle id="SVGID_7_" cx="116.445" cy="44.389" r="39.342"/>
		</defs>
		<clipPath id="SVGID_9_">
			<use xlink:href="#SVGID_7_"  overflow="visible"/>
		</clipPath>
		<g clip-path="url(#SVGID_9_)">
			<path d="M131.168,62.037c0,3.286-2.684,5.948-5.99,5.948h-21.094c-3.307,0-5.989-2.662-5.989-5.948v-12.11
				c0-3.286,2.683-5.949,5.989-5.949h21.094c3.307,0,5.99,2.663,5.99,5.949V62.037z"/>
			<path fill="#F1C9A5" d="M133.781,40.763c0.023,10.196-8.141,18.484-18.243,18.51c-10.095,0.024-18.302-8.223-18.326-18.42
				c-0.025-10.196,8.142-18.484,18.235-18.508C125.549,22.32,133.76,30.568,133.781,40.763z"/>
			<path d="M110.432,71.41c-6.948-1.408-10.163-20.025-10.181-27.399c-0.015-5.583,7.294-4.9,7.476-13.089
				c-0.075,3.383,17.548,12.021,22.005,7.54c-0.521,0.522,1.02,4.714,1.022,5.474c0.019,7.373-4.562,28.003-11.642,27.59
				c19.236,1.121,16.734-22.51,16.712-32.688c-0.027-11.227-9.154-20.311-20.384-20.283c-11.229,0.029-19.623,9.176-20.286,20.382
				C92.851,77.782,110.432,71.41,110.432,71.41z"/>
			<path fill="#E86666" d="M111.845,50.346c0,0,1.715,1.53,4.206,1.525c2.406-0.006,4.256-1.548,4.256-1.548
				s-0.859,3.855-4.25,3.862C112.667,54.195,111.845,50.346,111.845,50.346z"/>
			<path fill="#524032" d="M111.314,41.625c0.001,0.871-0.426,1.578-0.954,1.579c-0.527,0.001-0.954-0.703-0.957-1.572
				c-0.002-0.869,0.422-1.575,0.948-1.575C110.879,40.055,111.309,40.757,111.314,41.625z"/>
			<path fill="#524032" d="M123.375,41.596c0.002,0.869-0.424,1.577-0.953,1.578c-0.527,0.001-0.955-0.704-0.959-1.573
				c0-0.869,0.422-1.573,0.949-1.576C122.943,40.025,123.373,40.727,123.375,41.596z"/>
			<path fill="#D3A884" d="M117.52,46.908c0,0-0.558-0.502-1.375-0.501c-0.789,0.001-1.396,0.508-1.396,0.508
				s0.28-1.264,1.393-1.265C117.25,45.644,117.52,46.908,117.52,46.908z"/>
			<circle fill="#F1C9A5" cx="100.838" cy="43.971" r="2.745"/>
			<circle fill="#F1C9A5" cx="130.236" cy="43.896" r="2.744"/>
			<path fill="#4C3E33" d="M131.795,80.636c-0.578-2.816-3.736-10.896-6.129-14.218c-0.031-0.043-0.068-0.07-0.104-0.105
				c-0.293-0.345-0.681-0.663-1.203-0.933c-3.846-1.996-14.952-2.283-17.343,1.038c-2.391,3.322-5.55,11.401-6.13,14.218
				c-0.578,2.815-0.992,14.438-0.992,14.438h2.733c0,0,0.757-11.909,1.324-14.438c0.57-2.528,4.097-8.837,4.097-8.837l2.187,6.021
				l-1.394,18.288l14.877,0.161l-1.27-18.449l0.215-0.594l2.278-4.866c0.871,1.595,3.32,6.202,3.787,8.275
				c0.568,2.527,1.326,14.438,1.326,14.438h2.732C132.787,95.073,132.373,83.452,131.795,80.636z"/>
			<polygon fill="#4C3E33" points="108.827,95.687 109.467,113.792 122.635,113.792 123.746,95.81 			"/>
			<rect x="113.894" y="66.821" fill="#F9F5F4" width="5.094" height="29.288"/>
			<polygon fill="#F1C9A5" points="118.988,67.624 116.888,71.799 113.917,67.636 113.894,57.463 118.963,57.452 			"/>
		</g>
	</g>
</g>
<g>
	<g>
		<defs>
			<circle id="SVGID_11_" cx="190.258" cy="97.976" r="39.342"/>
		</defs>
		<clipPath id="SVGID_13_">
			<use xlink:href="#SVGID_11_"  overflow="visible"/>
		</clipPath>
		<g clip-path="url(#SVGID_13_)">
			<path fill="#B98E6C" d="M208.251,98.098c0.024,10.185-8.132,18.462-18.222,18.487c-10.084,0.025-18.28-8.215-18.307-18.397
				c-0.023-10.186,8.133-18.464,18.215-18.488C200.029,79.674,208.229,87.914,208.251,98.098z"/>
			<path fill="#523F32" d="M185.809,98.958c0.002,0.869-0.424,1.576-0.953,1.578c-0.524,0-0.953-0.705-0.953-1.572
				c-0.004-0.867,0.421-1.573,0.945-1.573C185.377,97.39,185.807,98.092,185.809,98.958z"/>
			<path fill="#523F32" d="M197.855,98.958c0.002,0.869-0.422,1.576-0.953,1.578c-0.522,0-0.952-0.705-0.953-1.572
				c-0.002-0.867,0.421-1.571,0.945-1.573C197.426,97.39,197.855,98.092,197.855,98.958z"/>
			<path opacity="0.2" enable-background="new    " d="M192.009,104.235c0,0-0.558-0.502-1.375-0.501
				c-0.788,0.002-1.394,0.508-1.394,0.508s0.281-1.263,1.392-1.265C191.738,102.974,192.009,104.235,192.009,104.235z"/>
			<circle fill="#B98E6C" cx="172.575" cy="101.302" r="2.741"/>
			<circle fill="#B98E6C" cx="207.941" cy="101.228" r="2.741"/>
			<path fill="#3494BB" d="M205.846,137.925c-0.578-2.814-3.732-10.881-6.123-14.202c-0.029-0.042-0.068-0.069-0.104-0.104
				c-0.294-0.345-0.682-0.662-1.202-0.934c-3.841-1.992-14.937-2.279-17.324,1.038c-2.388,3.319-5.543,11.388-6.12,14.202
				c-0.578,2.812-0.992,14.423-0.992,14.423h2.729c0,0,0.758-11.897,1.324-14.423c0.566-2.524,4.092-8.827,4.092-8.827l0.793,24.28
				l14.857,0.162l1.226-23.881c0.867,1.594,3.315,6.194,3.783,8.266c0.565,2.523,1.323,14.423,1.323,14.423h2.729
				C206.836,152.348,206.423,140.74,205.846,137.925z"/>
			<path fill="#C9AA85" d="M173.484,153.378c-0.159,1.404-0.08,2.625,0,3.871c0.082,1.244,1.223,1.461,1.736,0.17
				c0.516-1.289,0.326-2.75,0.326-2.75s0.516,2.139,1.16,1.136c0.645-1.005,0.066-4.489,0.066-4.489l-2.752-0.12
				C174.023,151.196,173.645,151.974,173.484,153.378z"/>
			<path fill="#C9AA85" d="M207.346,153.378c0.161,1.404,0.082,2.625,0,3.871c-0.08,1.244-1.222,1.461-1.734,0.17
				c-0.518-1.289-0.327-2.75-0.327-2.75s-0.517,2.139-1.159,1.136c-0.646-1.005-0.068-4.489-0.068-4.489l2.752-0.12
				C206.809,151.196,207.188,151.974,207.346,153.378z"/>
			<rect x="187.963" y="121.403" fill="#6AC0DB" width="5.089" height="31.488"/>
			<path fill="#593716" d="M173.758,102.867c0.691-6.951,5.715-15.301,8.906-17.162c3.096,4.717,7.488,8.437,7.488,8.437
				s0.142-3.086,0-6.528c1.389,3.801,15.604,11.35,15.604,11.35c5.199-4.313,1.862-15.146-0.493-18.348
				c-2.193-2.986-11.127-9.157-22.869-5.197c0,0.001,0,0.001,0,0C167.359,78.66,169.878,98.001,173.758,102.867z"/>
			<path opacity="0.5" fill="#523F32" enable-background="new    " d="M186.398,107.667c0,0,1.713,1.531,4.203,1.523
				c2.399-0.005,4.248-1.545,4.248-1.545s-0.857,3.852-4.242,3.857C187.221,111.513,186.398,107.667,186.398,107.667z"/>
			<path fill="#B98E6C" d="M193.389,122.75c0,0-0.1,1.479-2.763,1.479s-2.763-1.479-2.763-1.479v-8.346h5.525V122.75L193.389,122.75
				z"/>
		</g>
	</g>
</g>
<g>
	<g>
		<defs>
			<circle id="SVGID_14_" cx="42.741" cy="97.976" r="39.342"/>
		</defs>
		<clipPath id="SVGID_15_">
			<use xlink:href="#SVGID_14_"  overflow="visible"/>
		</clipPath>
		<g clip-path="url(#SVGID_15_)">
			<path fill="#F4D9C1" d="M60.734,95.836c0.025,10.184-8.132,18.462-18.222,18.488c-10.084,0.025-18.28-8.215-18.306-18.398
				c-0.024-10.186,8.132-18.464,18.215-18.488C52.512,77.413,60.71,85.652,60.734,95.836z"/>
			<path fill="#523F32" d="M38.292,96.698c0.002,0.868-0.424,1.575-0.953,1.577c-0.525,0-0.953-0.704-0.954-1.572
				c-0.003-0.867,0.421-1.573,0.946-1.573C37.86,95.128,38.289,95.831,38.292,96.698z"/>
			<path fill="#523F32" d="M50.339,96.698c0.002,0.868-0.423,1.575-0.953,1.577c-0.523,0.001-0.953-0.704-0.954-1.572
				c-0.002-0.867,0.421-1.571,0.946-1.573C49.909,95.128,50.338,95.831,50.339,96.698z"/>
			<path opacity="0.2" enable-background="new    " d="M44.492,101.973c0,0-0.558-0.502-1.375-0.501
				c-0.788,0.002-1.394,0.507-1.394,0.507s0.281-1.263,1.392-1.265C44.222,100.712,44.492,101.973,44.492,101.973z"/>
			<circle fill="#F4D9C1" cx="25.058" cy="99.04" r="2.741"/>
			<circle fill="#F4D9C1" cx="60.424" cy="98.966" r="2.741"/>
			<path d="M58.328,135.664c-0.577-2.813-3.732-10.881-6.122-14.201c-0.029-0.043-0.069-0.069-0.104-0.105
				c-0.294-0.344-0.681-0.661-1.202-0.934c-3.841-1.991-14.936-2.278-17.324,1.039c-2.388,3.32-5.543,11.388-6.121,14.201
				s-0.992,14.424-0.992,14.424h2.729c0,0,0.758-11.898,1.324-14.424c0.567-2.523,4.092-8.826,4.092-8.826l0.793,24.281l14.858,0.16
				l1.225-23.881c0.867,1.594,3.316,6.195,3.783,8.266c0.566,2.524,1.323,14.424,1.323,14.424h2.73
				C59.319,150.085,58.906,138.477,58.328,135.664z"/>
			<path fill="#C9AA85" d="M25.967,151.119c-0.159,1.403-0.08,2.623,0,3.87c0.082,1.244,1.223,1.462,1.737,0.171
				c0.515-1.289,0.326-2.75,0.326-2.75s0.516,2.137,1.16,1.135c0.645-1.006,0.067-4.489,0.067-4.489l-2.752-0.12
				C26.506,148.934,26.127,149.712,25.967,151.119z"/>
			<path fill="#C9AA85" d="M59.829,151.119c0.161,1.403,0.082,2.623,0,3.87c-0.081,1.244-1.222,1.462-1.735,0.171
				c-0.517-1.289-0.327-2.75-0.327-2.75s-0.516,2.137-1.159,1.135c-0.646-1.006-0.068-4.489-0.068-4.489l2.752-0.12
				C59.291,148.934,59.669,149.712,59.829,151.119z"/>
			<rect x="40.446" y="119.141" width="5.089" height="31.487"/>
			<path fill="#986E2A" d="M26.241,100.605c0.691-6.951,5.714-15.301,8.906-17.162C47.333,95.129,60.424,92.5,60.424,92.5
				c0.602-1.632,1.842-8.648-2.677-14.146c-2.193-2.986-11.127-9.157-22.869-5.197c0,0.001,0,0.001,0,0
				C19.842,76.398,22.361,95.74,26.241,100.605z"/>
			<path opacity="0.2" enable-background="new    " d="M38.882,105.406c0,0,1.712,1.531,4.202,1.524
				c2.4-0.005,4.249-1.546,4.249-1.546s-0.858,3.852-4.243,3.859C39.704,109.251,38.882,105.406,38.882,105.406z"/>
			<path fill="#F4D9C1" d="M45.872,120.49c0,0-0.1,1.479-2.763,1.479s-2.763-1.479-2.763-1.479v-8.347h5.525L45.872,120.49
				L45.872,120.49z"/>
		</g>
	</g>
</g>
</svg>