<svg version="1.1" id="contrato_i" xmlns="http://www.w3.org/2000/svg" xmlns:xlink="http://www.w3.org/1999/xlink" x="0px" y="0px"
	 width="235px" height="214px" viewBox="0 0 235 214" enable-background="new 0 0 235 214" xml:space="preserve">
<g>
	<circle fill="#E90A8A" cx="121.113" cy="106.999" r="98.2"/>
	<g>
		<path fill="#C10A7B" d="M121.114,210.035c-27.522,0-53.396-10.719-72.857-30.179c-19.461-19.46-30.178-45.335-30.178-72.857
			c0-27.521,10.717-53.395,30.178-72.856c19.46-19.461,45.335-30.178,72.857-30.178c27.521,0,53.396,10.717,72.856,30.178
			c19.46,19.461,30.178,45.334,30.178,72.856c0,27.522-10.718,53.397-30.178,72.857C174.51,199.316,148.636,210.035,121.114,210.035
			z M121.114,13.634c-24.939,0-48.386,9.711-66.02,27.346c-17.635,17.635-27.346,41.081-27.346,66.02
			c0,24.939,9.711,48.387,27.346,66.02c17.635,17.636,41.081,27.347,66.02,27.347c24.939,0,48.386-9.711,66.02-27.347
			c17.635-17.633,27.346-41.08,27.346-66.02c0-24.939-9.711-48.385-27.346-66.02C169.5,23.345,146.054,13.634,121.114,13.634z"/>
	</g>
	<g>
		<defs>
			<circle id="contrato_i_1" cx="120.992" cy="106.877" r="93.541"/>
		</defs>
		<clipPath id="contrato_i_2">
			<use xlink:href="#contrato_i_1"  overflow="visible"/>
		</clipPath>
		<g clip-path="url(#contrato_i_2)">
			<polygon fill="#BEBFC1" points="71.994,50.572 150.48,37.977 161.906,103.092 157.542,109.582 164.339,118.157 169.201,146.292 
				88.235,158.045 			"/>
			
				<ellipse transform="matrix(0.9966 0.0828 -0.0828 0.9966 11.157 -7.9029)" fill="none" stroke="#BC2A2A" stroke-width="0.321" stroke-miterlimit="10" cx="100.829" cy="130.52" rx="7.304" ry="7.463"/>
			
				<ellipse transform="matrix(0.9966 0.0827 -0.0827 0.9966 11.1223 -7.8778)" fill="none" stroke="#BC2A2A" stroke-width="0.2687" stroke-miterlimit="10" cx="100.612" cy="130.258" rx="6.114" ry="6.247"/>
			
				<ellipse transform="matrix(0.9966 0.0828 -0.0828 0.9966 11.1367 -7.8885)" fill="none" stroke="#BC2A2A" stroke-width="0.2393" stroke-miterlimit="10" cx="100.727" cy="130.397" rx="5.446" ry="5.565"/>
			<line fill="none" x1="89.648" y1="71.432" x2="146.97" y2="62.334"/>
			<g>
				<polygon fill="#E18235" points="64.836,81.643 66.865,81.153 71.372,105.81 70.202,105.041 68.587,95.277 67.127,95.637 				"/>
				<polygon fill="#191E29" points="60.235,82.599 65.499,81.505 74.474,132.272 69.595,133.494 				"/>
				<polygon fill="#E18235" points="64.462,105.541 69.456,103.999 69.623,104.938 64.702,106.851 				"/>
				<polygon fill="#555B65" points="69.331,133.562 74.707,132.128 74.853,132.978 69.542,134.408 				"/>
				<path fill="#E18235" d="M69.804,134.337c0,0,3.678,6.046,3.784,5.886c0.178-0.271,1.052-7.188,1.052-7.188L69.804,134.337z"/>
				<polygon fill="#191E29" points="72.725,139.194 73.542,140.248 73.794,138.798 				"/>
			</g>
			<polygon fill="#F4F4F6" points="70.167,48.938 148.655,36.342 167.374,144.658 86.407,156.41 			"/>
			<path fill="#FED09E" d="M195.771,132.358l-14.302-23.069c-4.983-8.673-13.69-9.319-21.285-6.233l2.189,12.672l3.61,4.461
				c1.259,3.096-1.712,6.522-2.396,5.324l-2.048-3.563l-3.159-5.505c-1.637-2.845-4.521-4.468-7.698-3.076
				c-1.237,0.544-2.183,1.396-2.776,2.403l4.835,8.415l7.856,13.671c2.082,3.627,8.095,4.356,9.819,7.356
				c1.726,3.002,3.199,5.569,3.199,5.569L195.771,132.358z"/>
			
				<line fill="#C0C0BE" stroke="#C0C0BE" stroke-width="0.9528" stroke-miterlimit="10" x1="90.364" y1="138.197" x2="110.509" y2="134.832"/>
			
				<line fill="#C0C0BE" stroke="#C0C0BE" stroke-width="0.9528" stroke-miterlimit="10" x1="134.061" y1="131.371" x2="156.018" y2="127.938"/>
			
				<line fill="#C0C0BE" stroke="#C0C0BE" stroke-width="0.9528" stroke-miterlimit="10" x1="117.333" y1="114.07" x2="154.299" y2="108.355"/>
			
				<line fill="#C0C0BE" stroke="#C0C0BE" stroke-width="0.9528" stroke-miterlimit="10" x1="87.812" y1="122.268" x2="154.852" y2="112.082"/>
			<path fill="#C0C0BE" d="M147.306,66.189"/>
			<path fill="#C0C0BE" d="M80.471,76.405"/>
			<polygon fill="#C0C0BE" points="84.261,95.926 122.017,90.155 121.872,89.214 84.124,94.983 			"/>
			<polygon fill="#C0C0BE" points="146.518,61.924 89.574,70.961 89.723,71.901 146.678,62.862 			"/>
			<polygon fill="#C0C0BE" points="147.169,65.729 81.333,75.792 81.47,76.734 147.33,66.667 			"/>
			<polygon fill="#C0C0BE" points="81.79,78.935 81.927,79.875 147.837,69.803 147.692,68.861 			"/>
			<polygon fill="#C0C0BE" points="148.224,71.876 82.272,82.25 82.409,83.193 148.385,72.815 			"/>
			<polygon fill="#C0C0BE" points="148.754,74.973 82.719,85.322 82.856,86.268 148.915,75.913 			"/>
			<polygon fill="#C0C0BE" points="149.327,78.317 83.195,88.6 83.333,89.543 149.488,79.255 			"/>
			<polygon fill="#C0C0BE" points="149.912,81.724 83.682,91.947 83.819,92.89 150.073,82.664 			"/>
			<polygon fill="#C0C0BE" points="143.556,44.641 78.155,54.986 78.304,55.928 143.716,45.581 			"/>
			<g>
				<polygon fill="#161E29" points="213.092,161.763 189.101,197.192 164.959,149.103 198.354,133.4 				"/>
				<polygon fill="#FFFFFF" points="202.144,138.22 165.765,150.505 160.735,141.755 193.88,125.593 				"/>
				<path fill="#FFFFFF" d="M176.279,151.379c1.71,0.143,2.99,1.482,2.863,2.994c-0.125,1.511-1.608,2.623-3.318,2.482
					c-1.705-0.143-2.988-1.485-2.863-2.997C173.088,152.349,174.575,151.238,176.279,151.379z"/>
				<path fill="#FFFFFF" d="M180.864,159.993c1.71,0.143,2.99,1.484,2.864,2.994c-0.126,1.512-1.609,2.623-3.319,2.481
					c-1.705-0.143-2.988-1.483-2.862-2.996C177.674,160.962,179.16,159.853,180.864,159.993z"/>
			</g>
			<polygon fill="#B76629" points="60.043,81.334 60.235,82.599 66.927,81.489 66.603,79.795 			"/>
		</g>
	</g>
</g>
</svg>
