<?xml version="1.0" encoding="utf-8"?>
<!-- Generator: Adobe Illustrator 16.0.0, SVG Export Plug-In . SVG Version: 6.00 Build 0)  -->
<!DOCTYPE svg PUBLIC "-//W3C//DTD SVG 1.1//EN" "http://www.w3.org/Graphics/SVG/1.1/DTD/svg11.dtd">
<svg version="1.1" id="Layer_1" xmlns="http://www.w3.org/2000/svg" xmlns:xlink="http://www.w3.org/1999/xlink" x="0px" y="0px"
	 width="566px" height="390px" viewBox="0 0 566 390" enable-background="new 0 0 566 390" xml:space="preserve">
<g opacity="0.4">
	<g>
		<rect x="461.873" y="203.812" fill="#FCD07A" width="67.514" height="114.176"/>
		<rect x="474.512" y="132.712" fill="#55B8B5" width="42.236" height="59.425"/>
		<polygon fill="#55B8B5" points="501.762,180.185 501.762,169 529.387,169 529.387,158.356 461.873,158.356 461.873,169 489.5,169 
			489.5,180.185 461.873,180.185 461.873,194.964 489.5,194.964 489.5,206.148 461.873,206.148 461.873,220.927 489.5,220.927 
			489.5,232.113 461.873,232.113 461.873,246.891 489.5,246.891 489.5,258.077 461.873,258.077 461.873,272.854 489.5,272.854 
			489.5,284.04 461.873,284.04 461.873,298.818 489.5,298.818 489.5,310.004 461.873,310.004 461.873,317.988 529.387,317.988 
			529.387,310.004 501.762,310.004 501.762,298.818 529.387,298.818 529.387,284.04 501.762,284.04 501.762,272.854 
			529.387,272.854 529.387,258.077 501.762,258.077 501.762,246.891 529.387,246.891 529.387,232.113 501.762,232.113 
			501.762,220.927 529.387,220.927 529.387,206.148 501.762,206.148 501.762,194.964 529.387,194.964 529.387,180.185 		"/>
		<rect x="461.873" y="169" fill="#88D4D2" width="27.627" height="11.185"/>
		<rect x="501.762" y="169" fill="#88D4D2" width="27.625" height="11.185"/>
		<rect x="461.873" y="194.964" fill="#88D4D2" width="27.627" height="11.187"/>
		<rect x="501.762" y="194.964" fill="#88D4D2" width="27.625" height="11.187"/>
		<rect x="461.873" y="220.927" fill="#88D4D2" width="27.627" height="11.188"/>
		<rect x="501.762" y="220.927" fill="#88D4D2" width="27.625" height="11.188"/>
		<rect x="461.873" y="246.891" fill="#FCD07A" width="27.627" height="11.188"/>
		<rect x="501.762" y="246.891" fill="#00BEC5" width="27.625" height="11.188"/>
		<rect x="461.873" y="272.854" fill="#FCD07A" width="27.627" height="11.187"/>
		<rect x="501.762" y="272.854" fill="#00BEC5" width="27.625" height="11.187"/>
		<rect x="461.873" y="297.445" fill="#FCD07A" width="29.25" height="14.58"/>
		<rect x="498.99" y="295.771" fill="#00BEC5" width="30.396" height="17.765"/>
	</g>
	<g>
		<rect x="386.921" y="60.659" fill="#DCDCDC" width="70.129" height="262.446"/>
		<rect x="395.896" y="86.602" fill="#FFFFFF" width="50.413" height="8.337"/>
		<rect x="395.896" y="114.736" fill="#DCDCDC" width="50.413" height="8.337"/>
		<rect x="395.896" y="142.871" fill="#DCDCDC" width="50.413" height="8.337"/>
		<rect x="395.896" y="171.006" fill="#DCDCDC" width="50.413" height="8.337"/>
		<rect x="395.896" y="199.141" fill="#FFFFFF" width="50.413" height="8.338"/>
		<rect x="395.896" y="227.275" fill="#DCDCDC" width="50.413" height="8.336"/>
		<rect x="395.896" y="255.41" fill="#FFFFFF" width="50.413" height="8.337"/>
		<rect x="395.896" y="283.545" fill="#DCDCDC" width="50.413" height="8.337"/>
		<rect x="386.921" y="60.659" fill="#6B2A7E" width="70.129" height="262.446"/>
		<rect x="395.896" y="86.602" fill="#A57DB1" width="50.413" height="8.337"/>
		<rect x="395.896" y="114.736" fill="#A57DB1" width="50.413" height="8.337"/>
		<rect x="395.896" y="142.871" fill="#A57DB1" width="50.413" height="8.337"/>
		<rect x="395.896" y="171.006" fill="#A57DB1" width="50.413" height="8.337"/>
		<rect x="395.896" y="199.141" fill="#A57DB1" width="50.413" height="8.338"/>
		<rect x="395.896" y="227.275" fill="#A57DB1" width="50.413" height="8.336"/>
		<rect x="395.896" y="255.41" fill="#A57DB1" width="50.413" height="8.337"/>
	</g>
	<rect x="395.896" y="283.545" fill="#DCDCDC" width="50.413" height="8.337"/>
	<g>
		<rect x="84.825" y="1.102" fill="#55B8B5" width="70.128" height="322.004"/>
		<rect x="91.913" y="10.135" fill="#88D4D2" width="55.952" height="3.497"/>
		<rect x="91.913" y="22.454" fill="#88D4D2" width="55.952" height="3.497"/>
		<rect x="91.913" y="34.773" fill="#88D4D2" width="55.952" height="3.496"/>
		<rect x="91.913" y="47.092" fill="#88D4D2" width="55.952" height="3.497"/>
		<rect x="91.913" y="59.41" fill="#88D4D2" width="55.952" height="3.498"/>
		<rect x="91.913" y="71.729" fill="#88D4D2" width="55.952" height="3.497"/>
		<rect x="91.913" y="84.049" fill="#88D4D2" width="55.952" height="3.496"/>
		<rect x="91.913" y="96.367" fill="#88D4D2" width="55.952" height="3.497"/>
		<rect x="91.913" y="108.687" fill="#88D4D2" width="55.952" height="3.497"/>
		<rect x="91.913" y="121.005" fill="#88D4D2" width="55.952" height="3.497"/>
		<rect x="91.913" y="133.324" fill="#88D4D2" width="55.952" height="3.497"/>
		<rect x="91.913" y="145.643" fill="#88D4D2" width="55.952" height="3.497"/>
		<rect x="91.913" y="157.962" fill="#88D4D2" width="55.952" height="3.497"/>
		<rect x="91.913" y="170.281" fill="#88D4D2" width="55.952" height="3.496"/>
		<rect x="91.913" y="182.6" fill="#88D4D2" width="55.952" height="3.497"/>
		<rect x="91.913" y="194.918" fill="#FCD07A" width="55.952" height="3.498"/>
		<rect x="91.913" y="207.236" fill="#FCD07A" width="55.952" height="3.498"/>
		<rect x="91.913" y="219.557" fill="#FCD07A" width="55.952" height="3.496"/>
		<rect x="91.913" y="231.875" fill="#FCD07A" width="55.952" height="3.497"/>
		<rect x="91.913" y="244.193" fill="#FCD07A" width="55.952" height="3.498"/>
		<rect x="91.913" y="256.514" fill="#FCD07A" width="55.952" height="3.496"/>
		<rect x="91.913" y="268.832" fill="#FCD07A" width="55.952" height="3.497"/>
		<rect x="91.913" y="281.15" fill="#FCD07A" width="55.952" height="3.496"/>
		<rect x="91.913" y="293.471" fill="#FCD07A" width="55.952" height="3.496"/>
	</g>
	<g>
		<rect x="146.023" y="104.446" fill="#3174C2" width="70.128" height="218.66"/>
		<polygon fill="#3174C2" points="200.541,134.746 161.633,134.746 161.633,91.343 181.086,74.146 200.541,91.343 		"/>
		<rect x="171.002" y="91.77" fill="#74A8DA" width="6.994" height="16.421"/>
		<rect x="184.177" y="91.77" fill="#74A8DA" width="6.994" height="16.421"/>
		<rect x="157.936" y="118.325" fill="#74A8DA" width="6.994" height="16.421"/>
		<rect x="171.111" y="118.325" fill="#74A8DA" width="6.994" height="16.421"/>
		<rect x="184.069" y="118.325" fill="#74A8DA" width="6.994" height="16.421"/>
		<rect x="197.245" y="118.325" fill="#74A8DA" width="6.993" height="16.421"/>
		<rect x="157.936" y="140.931" fill="#74A8DA" width="6.994" height="16.421"/>
		<rect x="171.111" y="140.931" fill="#74A8DA" width="6.994" height="16.421"/>
		<rect x="184.069" y="140.931" fill="#74A8DA" width="6.994" height="16.421"/>
		<rect x="197.245" y="140.931" fill="#74A8DA" width="6.993" height="16.421"/>
		<rect x="157.936" y="163.536" fill="#74A8DA" width="6.994" height="16.421"/>
		<rect x="171.111" y="163.536" fill="#74A8DA" width="6.994" height="16.421"/>
		<rect x="184.069" y="163.536" fill="#74A8DA" width="6.994" height="16.421"/>
		<rect x="197.245" y="163.536" fill="#74A8DA" width="6.993" height="16.421"/>
		<rect x="157.936" y="186.142" fill="#74A8DA" width="6.994" height="16.42"/>
		<rect x="171.111" y="186.142" fill="#74A8DA" width="6.994" height="16.42"/>
		<rect x="184.069" y="186.142" fill="#74A8DA" width="6.994" height="16.42"/>
		<rect x="197.245" y="186.142" fill="#74A8DA" width="6.993" height="16.42"/>
		<rect x="157.936" y="208.747" fill="#4783BF" width="6.994" height="16.421"/>
		<rect x="171.111" y="208.747" fill="#4783BF" width="6.994" height="16.421"/>
		<rect x="184.069" y="208.747" fill="#4783BF" width="6.994" height="16.421"/>
		<rect x="197.245" y="208.747" fill="#4783BF" width="6.993" height="16.421"/>
		<rect x="157.936" y="231.354" fill="#4783BF" width="6.994" height="16.42"/>
		<rect x="171.111" y="231.354" fill="#4783BF" width="6.994" height="16.42"/>
		<rect x="184.069" y="231.354" fill="#4783BF" width="6.994" height="16.42"/>
		<rect x="197.245" y="231.354" fill="#4783BF" width="6.993" height="16.42"/>
		<rect x="157.936" y="253.958" fill="#4783BF" width="6.994" height="16.421"/>
		<rect x="171.111" y="253.958" fill="#4783BF" width="6.994" height="16.421"/>
		<rect x="184.069" y="253.958" fill="#4783BF" width="6.994" height="16.421"/>
		<rect x="197.245" y="253.958" fill="#4783BF" width="6.993" height="16.421"/>
		<rect x="157.936" y="276.562" fill="#4783BF" width="6.994" height="16.422"/>
		<rect x="171.111" y="276.562" fill="#4783BF" width="6.994" height="16.422"/>
		<rect x="184.069" y="276.562" fill="#4783BF" width="6.994" height="16.422"/>
		<rect x="197.245" y="276.562" fill="#4783BF" width="6.993" height="16.422"/>
	</g>
	<g>
		<rect x="256.708" y="108.673" fill="#C1C1BF" width="76.06" height="222.795"/>
		<rect x="263.702" y="91.77" fill="#C1C1BF" width="60.323" height="25.354"/>
		<rect x="270.696" y="75.647" fill="#C1C1BF" width="46.335" height="19.474"/>
		<rect x="267.22" y="121.005" fill="#EBEBE8" width="9.39" height="20.756"/>
		<rect x="281.854" y="121.005" fill="#EBEBE8" width="9.389" height="20.756"/>
		<rect x="296.486" y="121.005" fill="#EBEBE8" width="9.389" height="20.756"/>
		<rect x="311.119" y="121.005" fill="#EBEBE8" width="9.39" height="20.756"/>
		<rect x="267.22" y="149.333" fill="#EBEBE8" width="9.39" height="20.756"/>
		<rect x="281.854" y="149.333" fill="#EBEBE8" width="9.389" height="20.756"/>
		<rect x="296.486" y="149.333" fill="#EBEBE8" width="9.389" height="20.756"/>
		<rect x="311.119" y="149.333" fill="#EBEBE8" width="9.39" height="20.756"/>
		<rect x="267.22" y="177.66" fill="#EBEBE8" width="9.39" height="20.756"/>
		<rect x="281.854" y="177.66" fill="#EBEBE8" width="9.389" height="20.756"/>
		<rect x="296.486" y="177.66" fill="#EBEBE8" width="9.389" height="20.756"/>
		<rect x="311.119" y="177.66" fill="#EBEBE8" width="9.39" height="20.756"/>
		<rect x="267.22" y="205.988" fill="#EBEBE8" width="9.39" height="20.756"/>
		<rect x="281.854" y="205.988" fill="#EBEBE8" width="9.389" height="20.756"/>
		<rect x="296.486" y="205.988" fill="#EBEBE8" width="9.389" height="20.756"/>
		<rect x="311.119" y="205.988" fill="#EBEBE8" width="9.39" height="20.756"/>
	</g>
	<g>
		<polygon fill="#3174C2" points="99.757,328.059 29.4,328.059 29.4,188.09 43.768,140.259 84.825,140.259 99.757,188.09 		"/>
		<rect x="45.25" y="188.763" fill="#74A8DA" width="9.39" height="20.756"/>
		<rect x="59.883" y="188.763" fill="#74A8DA" width="9.39" height="20.756"/>
		<rect x="74.517" y="188.763" fill="#74A8DA" width="9.39" height="20.756"/>
		<rect x="45.25" y="214.79" fill="#74A8DA" width="9.39" height="20.755"/>
		<rect x="59.883" y="214.79" fill="#74A8DA" width="9.39" height="20.755"/>
		<rect x="74.517" y="214.79" fill="#74A8DA" width="9.39" height="20.755"/>
		<rect x="45.25" y="240.816" fill="#74A8DA" width="9.39" height="20.756"/>
		<rect x="59.883" y="240.816" fill="#74A8DA" width="9.39" height="20.756"/>
		<rect x="74.517" y="240.816" fill="#74A8DA" width="9.39" height="20.756"/>
	</g>
	<g>
		<polygon fill="#6B2A7E" points="310.831,328.059 240.474,328.059 240.474,226.143 275.653,178.57 310.831,226.143 		"/>
		<rect x="250.073" y="273.451" fill="#A57DB1" width="51.159" height="26.758"/>
		<rect x="250.403" y="230.27" fill="#A57DB1" width="8.116" height="18.586"/>
		<rect x="263.481" y="230.27" fill="#A57DB1" width="8.115" height="18.586"/>
		<rect x="276.56" y="230.27" fill="#A57DB1" width="8.115" height="18.586"/>
		<rect x="289.639" y="230.27" fill="#A57DB1" width="8.114" height="18.586"/>
	</g>
	<g>
		<polygon fill="#C1C1BF" points="240.473,312.66 170.116,312.66 170.116,226.798 205.295,179.227 240.473,226.798 		"/>
		<path fill="#EBEBE8" d="M189.379,238.005c0.002-0.042,0.008-0.083,0.008-0.126c0-2.848-2.31-5.156-5.157-5.156
			c-2.849,0-5.157,2.31-5.157,5.156c0,0.043,0.006,0.084,0.006,0.126h-0.009v16.392h10.32v-16.392H189.379z"/>
		<path fill="#EBEBE8" d="M203.423,238.005c0.001-0.042,0.007-0.083,0.007-0.126c0-2.848-2.309-5.156-5.157-5.156
			s-5.157,2.31-5.157,5.156c0,0.043,0.006,0.084,0.008,0.126h-0.011v16.392h10.32v-16.392H203.423z"/>
		<path fill="#EBEBE8" d="M217.467,238.005c0-0.042,0.006-0.083,0.006-0.126c0-2.848-2.31-5.156-5.156-5.156
			c-2.848,0-5.158,2.31-5.158,5.156c0,0.043,0.005,0.084,0.007,0.126h-0.009v16.392h10.32v-16.392H217.467z"/>
		<path fill="#EBEBE8" d="M231.51,238.005c0.001-0.042,0.006-0.083,0.006-0.126c0-2.848-2.309-5.156-5.156-5.156
			c-2.847,0-5.156,2.31-5.156,5.156c0,0.043,0.004,0.084,0.004,0.126H221.2v16.392h10.32v-16.392H231.51z"/>
		<path fill="#EBEBE8" d="M189.379,264.677c0.002-0.043,0.008-0.084,0.008-0.126c0-2.849-2.31-5.156-5.157-5.156
			c-2.849,0-5.157,2.309-5.157,5.156c0,0.042,0.006,0.083,0.006,0.126h-0.009v16.392h10.32v-16.392H189.379z"/>
		<path fill="#EBEBE8" d="M203.423,264.677c0.001-0.043,0.007-0.084,0.007-0.126c0-2.849-2.309-5.156-5.157-5.156
			s-5.157,2.309-5.157,5.156c0,0.042,0.006,0.083,0.008,0.126h-0.011v16.392h10.32v-16.392H203.423z"/>
		<path fill="#EBEBE8" d="M217.467,264.677c0-0.043,0.006-0.084,0.006-0.126c0-2.849-2.31-5.156-5.156-5.156
			c-2.848,0-5.158,2.309-5.158,5.156c0,0.042,0.005,0.083,0.007,0.126h-0.009v16.392h10.32v-16.392H217.467z"/>
		<path fill="#EBEBE8" d="M231.51,264.677c0.001-0.043,0.006-0.084,0.006-0.126c0-2.849-2.309-5.156-5.156-5.156
			c-2.847,0-5.156,2.309-5.156,5.156c0,0.042,0.004,0.083,0.004,0.126H221.2v16.392h10.32v-16.392H231.51z"/>
	</g>
	<g>
		<polygon fill="#55B8B5" points="451.548,332.766 381.189,332.766 381.189,229.619 395.559,210.584 436.614,210.584 
			451.548,229.619 		"/>
		<rect x="397.288" y="235.259" fill="#88D4D2" width="38.16" height="17.485"/>
		<rect x="397.288" y="261.93" fill="#88D4D2" width="38.16" height="17.485"/>
	</g>
	<g>
		<rect x="99.758" y="194.918" fill="#6B2A7E" width="70.357" height="133.141"/>
		<rect x="111.276" y="210.734" fill="#A57DB1" width="14.101" height="6.994"/>
		<rect x="127.887" y="210.734" fill="#A57DB1" width="14.101" height="6.994"/>
		<rect x="144.498" y="210.734" fill="#A57DB1" width="14.101" height="6.994"/>
		<rect x="111.276" y="223.395" fill="#A57DB1" width="14.101" height="6.994"/>
		<rect x="127.887" y="223.395" fill="#A57DB1" width="14.101" height="6.994"/>
		<rect x="144.498" y="223.395" fill="#A57DB1" width="14.101" height="6.994"/>
		<rect x="111.276" y="236.055" fill="#A57DB1" width="14.101" height="6.994"/>
		<rect x="127.887" y="236.055" fill="#A57DB1" width="14.101" height="6.994"/>
		<rect x="144.498" y="236.055" fill="#A57DB1" width="14.101" height="6.994"/>
		<rect x="111.276" y="248.715" fill="#A57DB1" width="14.101" height="6.994"/>
		<rect x="127.887" y="248.715" fill="#A57DB1" width="14.101" height="6.994"/>
		<rect x="144.498" y="248.715" fill="#A57DB1" width="14.101" height="6.994"/>
		<rect x="111.276" y="261.374" fill="#A57DB1" width="14.101" height="6.994"/>
		<rect x="127.887" y="261.374" fill="#A57DB1" width="14.101" height="6.994"/>
		<rect x="144.498" y="261.374" fill="#A57DB1" width="14.101" height="6.994"/>
		<rect x="111.276" y="274.035" fill="#A57DB1" width="14.101" height="6.992"/>
		<rect x="127.887" y="274.035" fill="#A57DB1" width="14.101" height="6.992"/>
		<rect x="144.498" y="274.035" fill="#A57DB1" width="14.101" height="6.992"/>
	</g>
	<g>
		<polygon fill="#3174C2" points="381.188,328.059 310.831,328.059 310.831,218.411 347.666,172.667 381.188,218.411 		"/>
		<rect x="322.857" y="226.521" fill="#74A8DA" width="6.994" height="16.42"/>
		<rect x="336.034" y="226.521" fill="#74A8DA" width="6.993" height="16.42"/>
		<rect x="348.991" y="226.521" fill="#74A8DA" width="6.993" height="16.42"/>
		<rect x="362.167" y="226.521" fill="#74A8DA" width="6.994" height="16.42"/>
		<rect x="322.857" y="249.126" fill="#74A8DA" width="6.994" height="16.421"/>
		<rect x="336.034" y="249.126" fill="#74A8DA" width="6.993" height="16.421"/>
		<rect x="348.991" y="249.126" fill="#74A8DA" width="6.993" height="16.421"/>
		<rect x="362.167" y="249.126" fill="#74A8DA" width="6.994" height="16.421"/>
		<rect x="322.857" y="271.732" fill="#74A8DA" width="6.994" height="16.42"/>
		<rect x="336.034" y="271.732" fill="#74A8DA" width="6.993" height="16.42"/>
		<rect x="348.991" y="271.732" fill="#74A8DA" width="6.993" height="16.42"/>
		<rect x="362.167" y="271.732" fill="#74A8DA" width="6.994" height="16.42"/>
	</g>
	<g>
		<polygon fill="#3174C2" points="521.905,314.689 451.548,314.689 451.548,228.826 486.728,181.255 521.905,228.826 		"/>
		<circle fill="#74A8DA" cx="474.308" cy="235.259" r="8.48"/>
		<circle fill="#74A8DA" cx="499.146" cy="235.259" r="8.48"/>
		<circle fill="#74A8DA" cx="474.308" cy="259.394" r="8.48"/>
		<circle fill="#74A8DA" cx="499.146" cy="259.394" r="8.48"/>
		<circle fill="#74A8DA" cx="474.308" cy="283.527" r="8.48"/>
		<circle fill="#74A8DA" cx="499.146" cy="283.527" r="8.48"/>
	</g>
	<rect x="0.299" y="312.324" fill="#EBEBE8" width="563.852" height="78.089"/>
	<g>
		<g>
			<rect x="37.263" y="297.393" fill="#004860" width="4.274" height="25.014"/>
			<g>
				<path fill="#AFC01D" d="M20.694,287.365c0,10.33,8.375,18.706,18.706,18.706l9.1-13.821l-9.1-49.085
					C39.4,243.165,20.694,277.034,20.694,287.365z"/>
				<path fill="#7EA800" d="M58.106,287.365c0-10.331-18.707-44.2-18.707-44.2S27.25,276.5,39,282s0.4,24.071,0.4,24.071
					C49.731,306.071,58.106,297.695,58.106,287.365z"/>
			</g>
		</g>
		<g>
			<rect x="102.513" y="297.393" fill="#004860" width="4.274" height="25.014"/>
			<g>
				<path fill="#AFC01D" d="M85.944,287.365c0,10.33,8.375,18.706,18.706,18.706l9.1-13.821l-9.1-49.085
					C104.65,243.165,85.944,277.034,85.944,287.365z"/>
				<path fill="#7EA800" d="M123.356,287.365c0-10.331-18.707-44.2-18.707-44.2S92.5,276.5,104.25,282s0.4,24.071,0.4,24.071
					C114.981,306.071,123.356,297.695,123.356,287.365z"/>
			</g>
		</g>
		<g>
			<rect x="451.513" y="297.393" fill="#004860" width="4.274" height="25.014"/>
			<g>
				<path fill="#AFC01D" d="M434.943,287.365c0,10.33,8.375,18.706,18.707,18.706l9.1-13.821l-9.1-49.085
					C453.65,243.165,434.943,277.034,434.943,287.365z"/>
				<path fill="#7EA800" d="M472.356,287.365c0-10.331-18.706-44.2-18.706-44.2S441.5,276.5,453.25,282s0.4,24.071,0.4,24.071
					C463.981,306.071,472.356,297.695,472.356,287.365z"/>
			</g>
		</g>
		<g>
			<rect x="530.013" y="297.393" fill="#004860" width="4.274" height="25.014"/>
			<g>
				<path fill="#AFC01D" d="M513.443,287.365c0,10.33,8.375,18.706,18.707,18.706l9.1-13.821l-9.1-49.085
					C532.15,243.165,513.443,277.034,513.443,287.365z"/>
				<path fill="#7EA800" d="M550.856,287.365c0-10.331-18.706-44.2-18.706-44.2S520,276.5,531.75,282s0.4,24.071,0.4,24.071
					C542.481,306.071,550.856,297.695,550.856,287.365z"/>
			</g>
		</g>
	</g>
</g>
<g>
	<path fill="#F1C8A4" d="M180.275,223.271c0.03,12.606-10.067,22.854-22.557,22.887c-12.482,0.031-22.629-10.168-22.66-22.774
		c-0.03-12.606,10.065-22.854,22.548-22.886C170.096,200.467,180.245,210.666,180.275,223.271z"/>
	<path fill="#976F2A" d="M155.684,245.666c-10.821-1.834-16.884-24.941-16.884-24.941s31.417-0.322,33.698-11.697
		c-0.162,0.808,4.698,13.205,4.735,15.002c0.175,8.386-9.827,21.363-15.277,21.716c21.46-1.388,20.856-20.146,20.833-30.104
		c-0.027-10.982-11.307-19.863-25.19-19.828c-13.885,0.033-24.644,8.965-25.097,19.951
		C131.057,250.82,155.684,245.666,155.684,245.666z"/>
	<path fill="#676767" stroke="#676767" stroke-width="0.5" stroke-miterlimit="10" d="M167.047,219.693
		c-3.056,0-7.24,2.039-6.451,5.396c0.591,2.513,3.265,5.134,6.317,5.134c3.052,0,5.199-2.49,5.791-5.003
		C173.495,221.865,170.098,219.693,167.047,219.693z M172.368,225.211c-0.554,2.352-2.562,4.682-5.421,4.682
		c-2.856,0-5.358-2.453-5.912-4.805c-0.738-3.141,3.179-5.05,6.035-5.05C169.928,220.038,173.106,222.07,172.368,225.211z"/>
	<path fill="#676767" stroke="#676767" stroke-width="0.5" stroke-miterlimit="10" d="M151.673,219.693
		c-3.053,0-6.449,2.172-5.66,5.526c0.592,2.513,2.738,5.003,5.792,5.003c3.054,0,5.727-2.621,6.318-5.134
		C158.912,221.732,154.726,219.693,151.673,219.693z M157.748,225.088c-0.559,2.352-3.086,4.805-5.972,4.805
		c-2.884,0-4.913-2.33-5.47-4.682c-0.747-3.141,2.462-5.173,5.347-5.173C154.536,220.038,158.492,221.947,157.748,225.088z"/>
	<g>
		<path fill="#676767" d="M160.821,224.751c-1.667-1.134-2.919,0.022-2.93,0.033l-0.193-0.448c0.014-0.014,1.402-1.363,3.404,0.002
			L160.821,224.751z"/>
	</g>
	<line fill="none" stroke="#676767" stroke-miterlimit="10" x1="177.572" y1="223.695" x2="172.614" y2="223.257"/>
	<path fill="#E76565" d="M153.152,235.119c0,0,2.119,1.895,5.201,1.887c2.972-0.006,5.26-1.912,5.26-1.912s-1.063,4.766-5.253,4.775
		C154.167,239.879,153.152,235.119,153.152,235.119z"/>
	<path fill="#523F32" d="M152.493,224.339c0.002,1.074-0.524,1.949-1.18,1.951c-0.65,0-1.179-0.871-1.181-1.944
		c-0.003-1.074,0.521-1.947,1.171-1.947C151.958,222.396,152.49,223.266,152.493,224.339z"/>
	<path fill="#523F32" d="M167.407,224.339c0.003,1.074-0.523,1.949-1.179,1.951c-0.65,0.002-1.18-0.871-1.183-1.944
		c-0.002-1.074,0.522-1.945,1.173-1.947C166.874,222.396,167.405,223.266,167.407,224.339z"/>
	<path fill="#D2A783" d="M160.168,230.869c0,0-0.691-0.621-1.703-0.619c-0.975,0.002-1.724,0.627-1.724,0.627
		s0.347-1.562,1.721-1.564C159.834,229.309,160.168,230.869,160.168,230.869z"/>
	<circle fill="#F1C8A4" cx="141.542" cy="227.238" r="3.393"/>
	<circle fill="#F1C8A4" cx="175.891" cy="227.146" r="3.393"/>
	<path fill="#0D72B9" d="M177.819,272.574c-0.715-3.484-4.621-13.471-7.578-17.58c-0.037-0.053-0.086-0.086-0.129-0.131
		c-0.363-0.426-0.842-0.818-1.488-1.154c-4.753-2.467-18.487-2.822-21.444,1.285c-2.956,4.109-6.862,14.096-7.578,17.58
		c-0.715,3.482-1.228,17.854-1.228,17.854h3.379c0,0,0.937-14.729,1.64-17.854c0.702-3.127,5.064-10.928,5.064-10.928l2.702,7.444
		l-1.72,22.613l18.392,0.198l-1.568-22.812l0.266-0.733l2.818-6.017c1.075,1.974,4.106,7.671,4.683,10.232
		c0.702,3.125,1.64,17.854,1.64,17.854h3.379C179.047,290.428,178.535,276.057,177.819,272.574z"/>
	<polygon fill="#A78759" points="149.42,291.184 150.212,313.572 166.493,313.572 167.866,291.336 	"/>
	<polygon fill="#F1C8A4" points="150.212,313.572 152.447,344.539 156.596,344.539 157.235,313.572 	"/>
	<polygon fill="#F1C8A4" points="165.702,313.572 163.467,344.539 159.317,344.539 158.678,313.572 	"/>
	<polygon fill="#082021" points="159.317,344.539 159.341,350.445 161.066,350.445 161.066,349.168 163.141,350.445 
		170.483,350.445 163.467,344.539 	"/>
	<polygon fill="#082021" points="156.735,344.539 156.71,350.445 154.986,350.445 154.986,349.168 152.911,350.445 145.569,350.445 
		152.584,344.539 	"/>
	<path fill="#F1C8A4" d="M137.762,291.705c-0.198,1.738-0.1,3.248,0,4.791c0.101,1.541,1.512,1.809,2.15,0.211
		c0.638-1.596,0.403-3.404,0.403-3.404s0.639,2.646,1.437,1.404c0.798-1.244,0.084-5.557,0.084-5.557l-3.407-0.148
		C138.429,289.002,137.96,289.965,137.762,291.705z"/>
	<rect x="155.684" y="255.492" fill="#0D72B9" width="6.299" height="35.607"/>
	<polygon fill="#F1C8A4" points="161.983,256.484 158.833,261.646 155.715,256.5 155.684,243.922 161.952,243.906 	"/>
	<g>
		<g>
			<rect x="164.279" y="295.904" fill="#975F37" width="26.495" height="17.834"/>
			
				<line fill="none" stroke="#81491F" stroke-width="0.4898" stroke-miterlimit="10" x1="164.279" y1="301.764" x2="190.774" y2="301.764"/>
			<ellipse fill="#81491F" cx="177.26" cy="301.764" rx="1.167" ry="1.084"/>
		</g>
		<path fill="none" stroke="#975F37" stroke-miterlimit="10" d="M173.008,296.537c0,0,0.534-3.666,3.48-3.842
			c4.119-0.246,4.96,1.766,5.145,3.842"/>
	</g>
	<path fill="#F1C8A4" d="M179.751,292.289c0.199,1.738-0.996,1.447-2.553,1.598c-3.087,0.301-1.521-4.152-1.521-4.152l3.408-0.147
		C179.085,289.586,179.554,290.549,179.751,292.289z"/>
	<line fill="none" stroke="#676767" stroke-miterlimit="10" x1="139.895" y1="224.116" x2="145.999" y2="224.958"/>
</g>
<g>
	<path fill="#C9AA85" d="M257.247,225.884c0.03,12.606-10.067,22.854-22.557,22.886c-12.482,0.031-22.629-10.168-22.66-22.773
		c-0.03-12.607,10.065-22.855,22.548-22.887C247.068,203.078,257.217,213.277,257.247,225.884z"/>
	<path fill="#523F32" d="M229.465,226.95c0.002,1.073-0.524,1.948-1.18,1.95c-0.65,0-1.179-0.871-1.181-1.944
		c-0.003-1.074,0.521-1.947,1.171-1.947C228.931,225.007,229.462,225.876,229.465,226.95z"/>
	<path fill="#523F32" d="M244.379,226.95c0.003,1.073-0.523,1.948-1.179,1.95c-0.65,0.002-1.18-0.871-1.183-1.944
		c-0.002-1.074,0.522-1.945,1.173-1.947C243.846,225.007,244.377,225.876,244.379,226.95z"/>
	<path fill="#B2967B" d="M237.141,233.48c0,0-0.691-0.621-1.703-0.619c-0.975,0.002-1.724,0.627-1.724,0.627
		s0.347-1.562,1.721-1.565C236.807,231.919,237.141,233.48,237.141,233.48z"/>
	<circle fill="#C9AA85" cx="213.084" cy="229.85" r="3.393"/>
	<circle fill="#C9AA85" cx="256.863" cy="229.758" r="3.393"/>
	<path fill="#AF1F31" d="M254.267,275.186c-0.715-3.483-4.621-13.471-7.578-17.58c-0.037-0.053-0.086-0.086-0.129-0.131
		c-0.363-0.426-0.842-0.817-1.488-1.154c-4.753-2.467-18.487-2.821-21.444,1.285c-2.956,4.109-6.862,14.097-7.578,17.58
		c-0.715,3.482-1.228,17.854-1.228,17.854h3.379c0,0,0.937-14.729,1.64-17.854c0.702-3.127,5.064-10.928,5.064-10.928l0.982,30.059
		l18.392,0.199l1.516-29.562c1.075,1.973,4.106,7.67,4.683,10.231c0.702,3.125,1.64,17.854,1.64,17.854h3.379
		C255.495,293.039,254.982,278.668,254.267,275.186z"/>
	<polygon fill="#0C193E" points="225.868,293.795 226.66,305.087 242.94,305.087 244.313,293.872 	"/>
	<polygon fill="#0C193E" points="226.66,302.828 228.895,347.15 233.044,347.15 233.683,302.828 	"/>
	<polygon fill="#0C193E" points="243.149,302.828 240.915,347.15 236.765,347.15 236.126,302.828 	"/>
	<polygon fill="#502212" points="236.765,347.15 236.789,353.057 238.514,353.057 238.514,351.779 240.589,353.057 247.931,353.057 
		240.915,347.15 	"/>
	<polygon fill="#502212" points="232.995,347.15 232.971,353.057 231.246,353.057 231.246,351.779 229.171,353.057 221.829,353.057 
		228.845,347.15 	"/>
	<path fill="#C9AA85" d="M214.21,294.316c-0.198,1.738-0.1,3.248,0,4.791c0.101,1.541,1.512,1.809,2.15,0.211
		c0.638-1.596,0.403-3.404,0.403-3.404s0.639,2.646,1.437,1.404c0.798-1.244,0.084-5.558,0.084-5.558l-3.407-0.147
		C214.877,291.613,214.408,292.576,214.21,294.316z"/>
	<path fill="#C9AA85" d="M256.126,294.316c0.198,1.738,0.1,3.248,0,4.791c-0.101,1.541-1.512,1.809-2.15,0.211
		c-0.638-1.596-0.403-3.404-0.403-3.404s-0.639,2.646-1.437,1.404c-0.798-1.244-0.084-5.558-0.084-5.558l3.407-0.147
		C255.459,291.613,255.928,292.576,256.126,294.316z"/>
	<rect x="232.132" y="254.732" fill="#CC2032" width="6.299" height="38.979"/>
	<path fill="#262421" d="M243.198,197.809L243.198,197.809c-14.536-4.901-25.595,2.735-28.311,6.434
		c-2.915,3.964-7.046,17.374-0.611,22.713c0,0,17.601-9.346,19.318-14.051c-0.174,4.262,0,8.08,0,8.08s5.439-4.604,9.271-10.442
		c3.951,2.306,10.168,12.642,11.023,21.245C258.693,225.766,261.812,201.82,243.198,197.809z"/>
	<path fill="#E76565" d="M232.798,241.602c0,0,1.078,0.963,2.645,0.959c1.511-0.002,2.675-0.973,2.675-0.973
		s-0.541,2.424-2.671,2.43C233.314,244.021,232.798,241.602,232.798,241.602z"/>
	<path fill="#C9AA85" d="M238.847,256.398c0,0-0.123,1.834-3.419,1.834c-3.296,0-3.42-1.834-3.42-1.834V246.07h6.839V256.398z"/>
</g>
<g>
	<polygon fill="#435224" points="415.048,287.9 397.57,294.02 397.57,274.355 415.048,271.298 	"/>
	<path fill="#E1BE99" d="M415.016,225.093c0.03,12.606-10.066,22.854-22.557,22.886c-12.482,0.031-22.629-10.168-22.66-22.773
		c-0.029-12.607,10.07-25.364,22.498-26.527C407.317,197.271,414.985,212.486,415.016,225.093z"/>
	<path fill="#523F32" d="M387.232,226.159c0.002,1.073-0.523,1.948-1.18,1.95c-0.65,0-1.179-0.87-1.181-1.944
		c-0.003-1.074,0.521-1.947,1.171-1.947C386.699,224.216,387.23,225.085,387.232,226.159z"/>
	<path fill="#523F32" d="M402.147,226.159c0.003,1.073-0.523,1.948-1.18,1.95c-0.649,0.002-1.18-0.87-1.183-1.944
		c-0.002-1.074,0.521-1.945,1.173-1.947C401.614,224.216,402.146,225.085,402.147,226.159z"/>
	<path fill="#B2967B" d="M394.909,232.689c0,0-0.691-0.621-1.703-0.619c-0.976,0.002-1.724,0.627-1.724,0.627
		s0.347-1.562,1.721-1.565C394.575,231.128,394.909,232.689,394.909,232.689z"/>
	<circle fill="#E1BE99" cx="370.854" cy="229.059" r="3.393"/>
	<circle fill="#E1BE99" cx="414.632" cy="228.967" r="3.393"/>
	<path fill="#DDDDDC" d="M409.999,274.643c-0.715-3.483-2.585-13.719-5.542-17.828c-0.037-0.053-0.086-0.086-0.129-0.131
		c-0.363-0.426-0.842-0.817-1.488-1.154c-4.753-2.467-18.486-2.821-21.443,1.285c-2.957,4.109-6.862,14.097-7.578,17.58
		c-0.715,3.482-1.229,17.854-1.229,17.854h3.379c0,0,0.938-14.729,1.641-17.854c0.701-3.127,5.063-10.928,5.063-10.928l0.981,30.059
		l18.393,0.199l1.516-29.562c1.075,1.973,2.1,8.058,2.676,10.62c0.702,3.125-0.696,16.854-0.696,16.854l3.622-1.114
		C409.163,290.523,410.715,278.125,409.999,274.643z"/>
	<polygon fill="#AEAABA" points="384.43,302.037 386.663,346.359 390.812,346.359 391.451,302.037 	"/>
	<polygon fill="#AEAABA" points="400.918,302.037 398.684,346.359 394.533,346.359 393.895,302.037 	"/>
	<polygon fill="#0C193E" points="394.533,346.359 394.559,352.266 396.282,352.266 396.282,350.988 398.357,352.266 
		405.699,352.266 398.684,346.359 	"/>
	<polygon fill="#0C193E" points="390.764,346.359 390.739,352.266 389.016,352.266 389.016,350.988 386.939,352.266 
		379.598,352.266 386.613,346.359 	"/>
	<path fill="#E1BE99" d="M371.979,293.525c-0.197,1.738-0.1,3.248,0,4.791c0.102,1.541,1.513,1.809,2.15,0.211
		c0.639-1.596,0.403-3.404,0.403-3.404s0.639,2.646,1.437,1.404c0.799-1.244,0.084-5.558,0.084-5.558l-3.406-0.147
		C372.646,290.822,372.177,291.785,371.979,293.525z"/>
	<path fill="#E1BE99" d="M409.512,293.284c0.073,1.748-0.133,3.247-0.342,4.778c-0.211,1.529-1.637,1.695-2.16,0.058
		c-0.521-1.638-0.159-3.425-0.159-3.425s-0.825,2.594-1.532,1.298c-0.707-1.298,0.312-5.548,0.312-5.548l3.409,0.095
		C409.039,290.54,409.438,291.534,409.512,293.284z"/>
	<path fill="#E76565" d="M387.966,236.939c0,0,2.119,1.895,5.201,1.887c2.972-0.006,5.26-1.912,5.26-1.912s-1.062,4.766-5.253,4.775
		C388.98,241.699,387.966,236.939,387.966,236.939z"/>
	<path opacity="0.6" fill="#676767" stroke="#676767" stroke-width="0.5" stroke-miterlimit="10" enable-background="new    " d="
		M401.275,221.35c-3.057,0-7.24,2.039-6.451,5.396c0.591,2.512,3.265,5.133,6.316,5.133c3.053,0,5.199-2.489,5.791-5.002
		C407.723,223.521,404.326,221.35,401.275,221.35z M406.596,226.866c-0.554,2.352-2.562,4.682-5.421,4.682
		c-2.855,0-5.358-2.452-5.911-4.805c-0.738-3.142,3.179-5.05,6.034-5.05C404.156,221.693,407.334,223.727,406.596,226.866z"/>
	<path opacity="0.6" fill="#676767" stroke="#676767" stroke-width="0.5" stroke-miterlimit="10" enable-background="new    " d="
		M385.9,221.35c-3.053,0-6.448,2.172-5.659,5.526c0.592,2.513,2.737,5.002,5.792,5.002c3.054,0,5.727-2.621,6.318-5.133
		C393.141,223.389,388.954,221.35,385.9,221.35z M391.977,226.743c-0.56,2.353-3.086,4.805-5.973,4.805
		c-2.884,0-4.913-2.33-5.47-4.682c-0.747-3.142,2.462-5.173,5.347-5.173C388.764,221.693,392.721,223.604,391.977,226.743z"/>
	<g opacity="0.6">
		<path fill="#676767" d="M395.049,226.406c-1.667-1.135-2.919,0.021-2.93,0.033l-0.193-0.448c0.014-0.015,1.402-1.363,3.404,0.002
			L395.049,226.406z"/>
	</g>
	
		<line opacity="0.6" fill="none" stroke="#676767" stroke-miterlimit="10" enable-background="new    " x1="370.415" y1="222.967" x2="380.1" y2="225.887"/>
	
		<line opacity="0.6" fill="none" stroke="#676767" stroke-miterlimit="10" enable-background="new    " x1="414.562" y1="222.854" x2="406.842" y2="224.912"/>
	<path fill="#493518" d="M370.866,225.896c0.395-7.955,7.317-14.125,16.825-14.125c10.126,0,17.966-11.15,17.966-11.15l-5.354,7.934
		c0,0,11.993,3.489,14.332,16.284c0.226,1.229,5.608-26.647-17.575-28.438c-0.766-0.06-7.988-0.108-9.072,0
		C365.538,198.667,368.586,223.189,370.866,225.896z"/>
	<polygon fill="#AEAABA" points="383.637,293.004 384.596,304.318 400.709,304.296 402.082,293.081 	"/>
	<rect x="389.9" y="253.941" fill="#DDDDDC" width="6.299" height="39.111"/>
	<path fill="#E1BE99" d="M396.615,255.607c0,0-0.123,1.834-3.42,1.834c-3.295,0-3.42-1.834-3.42-1.834v-10.328h6.84V255.607
		L396.615,255.607z"/>
	<polygon fill="#FFFFFF" points="389.537,253.795 392.498,257.573 390.66,260.434 386.27,254.203 	"/>
	<polygon fill="#FFFFFF" points="396.582,253.795 393.621,257.573 395.357,260.331 399.85,254.203 	"/>
	<polygon fill="#435224" points="402.478,292.302 397.57,294.02 397.57,274.355 403.399,273.337 	"/>
	<rect x="386.09" y="263.18" fill="#575757" width="0.795" height="3.54"/>
	<rect x="386.041" y="262.92" fill="#F1D60F" width="0.904" height="0.26"/>
	<rect x="387.357" y="263.18" fill="#575757" width="0.795" height="3.54"/>
	<rect x="387.311" y="262.92" fill="#F1D60F" width="0.904" height="0.26"/>
	<path fill="#C3C3C1" d="M388.909,270.529h-3.892v-5.41c0,0,0.99,0.461,1.992,0.461s1.898-0.461,1.898-0.461L388.909,270.529
		L388.909,270.529z"/>
	<rect x="387.652" y="263.372" fill="#252624" width="0.214" height="2.921"/>
	<rect x="386.385" y="263.372" fill="#252624" width="0.213" height="2.921"/>
</g>
<g>
	<path fill="#791314" d="M339.023,251.486c0,4.062-3.315,7.356-7.406,7.356h-26.081c-4.091,0-7.406-3.294-7.406-7.356v-14.971
		c0-4.062,3.315-7.356,7.406-7.356h26.081c4.091,0,7.406,3.294,7.406,7.356V251.486z"/>
	<path fill="#F1C8A4" d="M342.256,225.186c0.03,12.606-10.066,22.854-22.556,22.887c-12.483,0.029-22.63-10.17-22.66-22.775
		c-0.031-12.607,10.063-22.855,22.547-22.885C332.077,202.38,342.227,212.578,342.256,225.186z"/>
	<path fill="#791314" d="M313.384,263.078c-8.59-1.74-12.563-24.762-12.586-33.879c-0.019-6.903,9.017-6.057,9.243-16.184
		c-0.094,4.185,21.695,14.862,27.209,9.323c-0.645,0.646,1.261,5.828,1.264,6.769c0.022,9.115-5.64,34.623-14.394,34.113
		c23.784,1.387,20.692-27.832,20.663-40.419c-0.034-13.882-11.319-25.114-25.203-25.079c-13.885,0.033-24.264,11.344-25.084,25.202
		C291.646,270.96,313.384,263.078,313.384,263.078z"/>
	<path fill="#E76565" d="M315.133,237.032c0,0,2.119,1.895,5.201,1.887c2.973-0.007,5.26-1.912,5.26-1.912s-1.062,4.765-5.253,4.774
		C316.148,241.792,315.133,237.032,315.133,237.032z"/>
	<path fill="#523F32" d="M314.475,226.251c0.002,1.075-0.523,1.949-1.181,1.951c-0.649,0.001-1.178-0.87-1.181-1.945
		c-0.004-1.073,0.521-1.946,1.171-1.946C313.939,224.309,314.473,225.177,314.475,226.251z"/>
	<path fill="#523F32" d="M329.389,226.214c0.002,1.075-0.523,1.95-1.18,1.951c-0.65,0.002-1.18-0.87-1.184-1.944
		c-0.002-1.074,0.522-1.945,1.174-1.947C328.854,224.271,329.386,225.141,329.389,226.214z"/>
	<path fill="#D2A783" d="M322.148,232.782c0,0-0.69-0.622-1.703-0.619c-0.975,0.002-1.723,0.627-1.723,0.627
		s0.346-1.562,1.721-1.565C321.814,231.221,322.148,232.782,322.148,232.782z"/>
	<circle fill="#F1C8A4" cx="301.523" cy="229.151" r="3.393"/>
	<circle fill="#F1C8A4" cx="337.872" cy="229.059" r="3.393"/>
	<path fill="#4C3E33" d="M339.8,274.486c-0.715-3.483-4.62-13.471-7.577-17.579c-0.037-0.054-0.087-0.087-0.13-0.132
		c-0.362-0.426-0.842-0.818-1.487-1.153c-4.754-2.468-18.487-2.823-21.443,1.285c-2.957,4.108-6.863,14.096-7.578,17.579
		c-0.716,3.482-1.229,17.854-1.229,17.854h3.379c0,0,0.938-14.729,1.64-17.854s5.063-10.928,5.063-10.928l2.703,7.445l-1.738,22.092
		l18.461-0.104l-0.004-0.058l0.123,0.162l-1.738-22.092l0.266-0.734l2.818-6.017c1.074,1.974,4.105,7.67,4.683,10.231
		c0.702,3.127,1.64,17.854,1.64,17.854h3.379C341.027,292.341,340.516,277.971,339.8,274.486z"/>
	<polygon fill="#4C3E33" points="311.4,293.098 312.193,315.484 328.475,315.484 329.861,292.991 	"/>
	<polygon fill="#F1C8A4" points="312.193,315.484 314.428,346.451 318.577,346.451 319.216,315.484 	"/>
	<polygon fill="#F1C8A4" points="327.684,315.484 325.448,346.451 321.298,346.451 320.659,315.484 	"/>
	<polygon fill="#082021" points="321.298,346.451 321.322,352.357 323.047,352.357 323.047,351.08 325.122,352.357 332.464,352.357 
		325.448,346.451 	"/>
	<polygon fill="#082021" points="318.716,346.451 318.691,352.357 316.967,352.357 316.967,351.08 314.893,352.357 307.55,352.357 
		314.564,346.451 	"/>
	<path fill="#F1C8A4" d="M299.743,293.617c-0.197,1.738-0.101,3.249,0,4.791s1.512,1.809,2.149,0.212
		c0.639-1.597,0.404-3.404,0.404-3.404s0.639,2.646,1.436,1.403c0.8-1.243,0.084-5.557,0.084-5.557l-3.406-0.148
		C300.41,290.914,299.941,291.878,299.743,293.617z"/>
	<path fill="#F1C8A4" d="M341.148,293.617c0.199,1.738,0.102,3.249,0,4.791c-0.1,1.542-1.512,1.809-2.148,0.212
		s-0.402-3.404-0.402-3.404s-0.64,2.646-1.438,1.403c-0.798-1.243-0.084-5.557-0.084-5.557l3.407-0.148
		C340.482,290.914,340.952,291.878,341.148,293.617z"/>
	<rect x="317.665" y="257.404" fill="#F9F5F4" width="6.299" height="36.213"/>
	<polygon fill="#F1C8A4" points="323.964,258.396 321.368,263.561 317.695,258.413 317.665,245.834 323.934,245.818 	"/>
</g>
<path fill="#272421" d="M230.768,241.328c0,0,0.381,4.463,4.546,4.513c4.413,0.054,4.462-3.748,4.462-4.215
	c0-0.296,1.134,1.872,0.694,3.817c-0.255,1.125-1.529,2.02-2.578,2.728c-2.865,1.933-1.543,2.019-3.127,1.086
	c-1.132-0.666-4.53-1.932-4.664-4.53C229.967,242.129,230.768,241.328,230.768,241.328z"/>
<g>
	<path fill="#272421" d="M235.662,238.543c0.072-0.65,0.833-1.404,2.134-1.193c2.35,0.379,0.945,1.901,3.364,2.099
		c1.338,0.108,1.954-0.218,1.954-0.218s0.305,1.658-3.147,1.81C235.807,241.221,235.59,239.193,235.662,238.543z"/>
	<path fill="#272421" d="M235.649,238.543c-0.072-0.65-0.833-1.404-2.134-1.193c-2.35,0.379-0.945,1.901-3.364,2.099
		c-1.338,0.108-1.954-0.218-1.954-0.218s-0.305,1.658,3.147,1.81C235.504,241.221,235.721,239.193,235.649,238.543z"/>
</g>
</svg>
