<?xml version="1.0" encoding="utf-8"?>
<!-- Generator: Adobe Illustrator 16.0.0, SVG Export Plug-In . SVG Version: 6.00 Build 0)  -->
<!DOCTYPE svg PUBLIC "-//W3C//DTD SVG 1.1//EN" "http://www.w3.org/Graphics/SVG/1.1/DTD/svg11.dtd">
<svg version="1.1" id="Layer_1" xmlns="http://www.w3.org/2000/svg" xmlns:xlink="http://www.w3.org/1999/xlink" x="0px" y="0px"
	 width="25px" height="25px" viewBox="4.259 3.983 25 25" enable-background="new 4.259 3.983 25 25" xml:space="preserve">
<g>
	<path fill="#DC5BA1" d="M27.736,12.491V6.503c0-0.55-0.447-0.997-1-0.997h-5.985c-0.552,0-0.998,0.447-0.998,0.997v2.495
		c-4.875,0-8.972,3.351-10.135,7.867L8.58,16.683c-0.187-0.033-0.377,0.043-0.488,0.194c-0.111,0.152-0.13,0.354-0.047,0.523
		l1.082,2.134c-1.893,0.311-3.346,1.953-3.346,3.936c0,2.201,1.789,3.99,3.99,3.99c2.033,0,3.712-1.527,3.958-3.494h3.528v1
		c0,0.188,0.107,0.359,0.275,0.447c0.169,0.082,0.369,0.064,0.522-0.049l1.745-1.309c0.285,1.922,1.94,3.404,3.939,3.404
		c2.201,0,3.994-1.789,3.994-3.99c0-2.031-1.529-3.711-3.493-3.957v-3.529h0.998c0.189,0,0.361-0.107,0.445-0.276
		c0.084-0.169,0.068-0.371-0.047-0.522l-1.272-1.697h2.369C27.29,13.489,27.736,13.041,27.736,12.491L27.736,12.491z M9.772,25.464
		c-1.099,0-1.995-0.896-1.995-1.994c0-1.104,0.896-2,1.995-2c1.102,0,1.996,0.896,1.996,2C11.768,24.567,10.874,25.464,9.772,25.464
		L9.772,25.464z M25.742,23.47c0,1.098-0.898,1.994-1.997,1.994c-1.103,0-1.996-0.896-1.996-1.994c0-1.104,0.894-2,1.996-2
		C24.844,21.47,25.742,22.366,25.742,23.47L25.742,23.47z M21.802,15.708c0.083,0.168,0.255,0.276,0.444,0.276h0.999v3.529
		c-1.772,0.221-3.185,1.607-3.444,3.367l-1.745-1.309c-0.152-0.113-0.354-0.129-0.521-0.047c-0.169,0.086-0.275,0.256-0.275,0.447
		v0.998h-3.528c-0.228-1.803-1.661-3.234-3.465-3.459c0-0.012,0.006-0.021,0.006-0.033v-0.006l1.51-1.414
		c0.137-0.127,0.192-0.326,0.137-0.508c-0.055-0.18-0.204-0.314-0.392-0.348l-0.926-0.162c1.081-4.049,4.77-7.044,9.152-7.044v2.495
		c0,0.55,0.445,0.997,0.997,0.997h2.369l-1.272,1.697C21.733,15.336,21.718,15.539,21.802,15.708L21.802,15.708z M25.742,11.493
		h-3.994V7.501h3.994V11.493z"/>
</g>
</svg>
