<?xml version="1.0" encoding="utf-8"?>
<!-- Generator: Adobe Illustrator 16.0.0, SVG Export Plug-In . SVG Version: 6.00 Build 0)  -->
<!DOCTYPE svg PUBLIC "-//W3C//DTD SVG 1.1//EN" "http://www.w3.org/Graphics/SVG/1.1/DTD/svg11.dtd">
<svg version="1.1" id="Layer_1" xmlns="http://www.w3.org/2000/svg" xmlns:xlink="http://www.w3.org/1999/xlink" x="0px" y="0px"
	 width="25px" height="25px" viewBox="-3.379 -1.309 25 25" enable-background="new -3.379 -1.309 25 25" xml:space="preserve">
<g>
	<g>
		<path fill="#DC5BA1" d="M5.413,10.197l0.475-0.004l0.238-0.408c0.119-0.203,0.273-0.377,0.451-0.52l2.006-3.724l-2.4-4.456
			C5.958,0.666,5.459,0.479,5.015,0.644L1.185,2.07C0.916,2.171,0.706,2.388,0.616,2.659C0.524,2.93,0.559,3.227,0.713,3.47
			l4.285,6.778C5.131,10.217,5.271,10.197,5.413,10.197L5.413,10.197z"/>
		<path fill="#DC5BA1" d="M17.626,2.659c-0.094-0.272-0.301-0.489-0.568-0.589l-3.83-1.426c-0.445-0.165-0.943,0.022-1.168,0.441
			L7.882,8.849c0.291,0.017,0.574,0.099,0.828,0.244l0.41,0.233l0.41-0.233c0.288-0.165,0.612-0.251,0.942-0.251
			c0.674,0,1.305,0.361,1.645,0.943l0.238,0.41l0.474,0.002c0.142,0,0.282,0.02,0.417,0.05l4.283-6.778
			C17.681,3.227,17.72,2.93,17.626,2.659L17.626,2.659z"/>
	</g>
	<path fill="#DC5BA1" d="M14.652,13.619l-0.878-0.511l-0.006-1.017c-0.004-0.52-0.424-0.944-0.946-0.946l-1.017-0.004l-0.51-0.878
		c-0.264-0.449-0.842-0.603-1.295-0.346L9.12,10.422L8.239,9.917C7.787,9.66,7.209,9.814,6.948,10.263L6.434,11.14l-1.013,0.006
		c-0.522,0.006-0.944,0.426-0.948,0.946l-0.004,1.017l-0.877,0.511c-0.453,0.265-0.605,0.84-0.347,1.294l0.503,0.882l-0.503,0.881
		c-0.259,0.451-0.106,1.029,0.347,1.294l0.877,0.512l0.004,1.017c0.004,0.521,0.426,0.942,0.948,0.944l1.013,0.006l0.514,0.879
		c0.263,0.449,0.84,0.604,1.291,0.346l0.882-0.504l0.882,0.504c0.149,0.084,0.311,0.125,0.471,0.125
		c0.326,0,0.646-0.169,0.822-0.471l0.51-0.879l1.018-0.006c0.523-0.002,0.943-0.424,0.945-0.944l0.007-1.017l0.878-0.512
		c0.449-0.265,0.604-0.84,0.345-1.294l-0.504-0.881l0.504-0.882C15.257,14.458,15.101,13.88,14.652,13.619L14.652,13.619z
		 M12.738,15.071l-1.81,1.316l0.689,2.127c0.062,0.187-0.005,0.389-0.16,0.502c-0.08,0.057-0.172,0.086-0.265,0.086
		c-0.095,0-0.187-0.029-0.263-0.086L9.12,17.701l-1.809,1.315c-0.157,0.113-0.37,0.113-0.527,0
		c-0.156-0.113-0.223-0.315-0.163-0.502l0.692-2.127L5.5,15.071c-0.156-0.112-0.223-0.315-0.16-0.5
		c0.06-0.184,0.231-0.309,0.426-0.309h2.236l0.692-2.129c0.062-0.183,0.232-0.309,0.427-0.309c0.19,0,0.363,0.126,0.427,0.309
		l0.688,2.129h2.239c0.191,0,0.365,0.125,0.425,0.309C12.96,14.755,12.896,14.958,12.738,15.071L12.738,15.071z"/>
</g>
</svg>
