<?xml version="1.0" encoding="utf-8"?>
<!-- Generator: Adobe Illustrator 16.0.0, SVG Export Plug-In . SVG Version: 6.00 Build 0)  -->
<!DOCTYPE svg PUBLIC "-//W3C//DTD SVG 1.1//EN" "http://www.w3.org/Graphics/SVG/1.1/DTD/svg11.dtd">
<svg version="1.1" id="Layer_1" xmlns="http://www.w3.org/2000/svg" xmlns:xlink="http://www.w3.org/1999/xlink" x="0px" y="0px"
	 width="25px" height="25px" viewBox="0 0 25 25" enable-background="new 0 0 25 25" xml:space="preserve">
<g>
	<g>
		<path fill="#DC5BA1" d="M16.729,5.727c-0.06-0.055-0.129-0.098-0.207-0.122L11.917,4.16c-1.842-0.581-3.042,0.43-3.363,0.753
			C8.366,5.101,8.22,5.301,8.146,5.473l-2.052,4.826C5.976,10.576,6.016,10.944,6.2,11.31c0.265,0.523,0.742,0.902,1.308,1.037
			c0.636,0.154,1.295-0.055,1.812-0.568c0.136-0.135,0.25-0.286,0.318-0.41l0.689-1.28c0.113-0.211,0.278-0.432,0.451-0.604
			c0.594-0.592,0.874-0.322,0.992-0.206c1.033,0.995,6.443,6.43,6.443,6.43c0.193,0.189,0.153,0.559-0.088,0.797
			c-0.24,0.239-0.604,0.279-0.798,0.088l-1.521-1.519c-0.195-0.195-0.511-0.195-0.707,0c-0.197,0.196-0.197,0.512,0,0.707
			l1.52,1.521c0.193,0.193,0.152,0.557-0.088,0.797s-0.606,0.281-0.797,0.088l-1.521-1.518c-0.195-0.195-0.51-0.195-0.706,0
			c-0.196,0.194-0.196,0.512,0,0.707l1.519,1.52c0.193,0.193,0.15,0.558-0.088,0.797c-0.24,0.242-0.604,0.281-0.797,0.088
			l-1.521-1.518c-0.194-0.197-0.51-0.197-0.705,0c-0.197,0.195-0.197,0.514,0,0.707l1.518,1.521c0.193,0.192,0.153,0.56-0.088,0.797
			c-0.24,0.239-0.607,0.28-0.797,0.09l-1.852-1.851c0.265-0.397,0.194-0.977-0.2-1.367c-0.439-0.439-1.112-0.48-1.504-0.09
			c0.392-0.391,0.352-1.066-0.088-1.506c-0.439-0.438-1.115-0.479-1.505-0.088c0.39-0.391,0.351-1.064-0.09-1.508
			c-0.44-0.438-1.112-0.478-1.506-0.087c0.395-0.391,0.353-1.063-0.088-1.504c-0.411-0.413-1.026-0.472-1.424-0.155l-2.997-2.998
			c-0.196-0.196-0.514-0.196-0.708,0c-0.194,0.193-0.194,0.512,0,0.707l2.989,2.991l-0.886,0.888
			c-0.391,0.39-0.353,1.064,0.089,1.504c0.441,0.439,1.112,0.48,1.505,0.088C3.89,16.794,3.93,17.469,4.37,17.906
			c0.439,0.441,1.116,0.48,1.507,0.09c-0.391,0.393-0.351,1.064,0.086,1.504c0.442,0.439,1.117,0.48,1.507,0.09
			c-0.39,0.393-0.35,1.064,0.088,1.506c0.441,0.44,1.115,0.479,1.506,0.088l0.937-0.938l1.837,1.84
			c0.586,0.587,1.579,0.544,2.214-0.091c0.31-0.308,0.476-0.703,0.498-1.095c0.39-0.023,0.785-0.188,1.097-0.5
			c0.309-0.309,0.475-0.703,0.5-1.094c0.39-0.021,0.783-0.19,1.094-0.5c0.312-0.311,0.477-0.703,0.5-1.094
			c0.391-0.023,0.785-0.189,1.094-0.499c0.637-0.638,0.675-1.629,0.088-2.216l-0.773-0.773l3.183-3.184
			c0.196-0.194,0.196-0.512,0-0.707L16.729,5.727z"/>
		<path fill="#DC5BA1" d="M24.268,6.847l-4.055-4.054c-0.395-0.392-1.027-0.392-1.418,0l-1.419,1.415
			c-0.39,0.393-0.39,1.026,0,1.418l4.058,4.055c0.393,0.392,1.024,0.392,1.416,0l1.418-1.415
			C24.658,7.875,24.658,7.238,24.268,6.847L24.268,6.847z M22.141,8.912c-0.453,0-0.826-0.365-0.826-0.822
			c0-0.454,0.373-0.821,0.826-0.821s0.821,0.367,0.821,0.821S22.594,8.912,22.141,8.912L22.141,8.912z"/>
	</g>
</g>
</svg>
