<?xml version="1.0" encoding="utf-8"?>
<!-- Generator: Adobe Illustrator 16.0.0, SVG Export Plug-In . SVG Version: 6.00 Build 0)  -->
<!DOCTYPE svg PUBLIC "-//W3C//DTD SVG 1.1//EN" "http://www.w3.org/Graphics/SVG/1.1/DTD/svg11.dtd">
<svg version="1.1" id="Layer_1" xmlns="http://www.w3.org/2000/svg" xmlns:xlink="http://www.w3.org/1999/xlink" x="0px" y="0px"
	 width="25px" height="25px" viewBox="0 0 25 25" enable-background="new 0 0 25 25" xml:space="preserve">
<rect x="12.667" y="12.324" fill="#DC5BA1" width="3.506" height="1.167"/>
<rect x="5.656" y="5.313" fill="#DC5BA1" width="11.686" height="1.167"/>
<rect x="12.667" y="7.649" fill="#DC5BA1" width="4.675" height="1.169"/>
<rect x="12.667" y="9.986" fill="#DC5BA1" width="4.675" height="1.169"/>
<g>
	<g>
		<path fill="#DC5BA1" d="M21.737,17.768c0.633-0.435,1.06-1.246,1.06-2.175c0-1.254-0.255-2.538-2.139-2.538
			s-2.139,1.284-2.139,2.538c0,0.927,0.43,1.738,1.062,2.175c-1.401,0.426-2.418,1.643-2.418,3.077c0,0.742,0.376,1.264,1.12,1.558
			c0.541,0.22,1.296,0.319,2.375,0.319c1.081,0,1.834-0.1,2.375-0.319c0.744-0.294,1.121-0.819,1.121-1.558
			C24.154,19.41,23.139,18.192,21.737,17.768L21.737,17.768z"/>
	</g>
</g>
<g>
	<g>
		<path fill="#DC5BA1" d="M5.443,17.768c0.636-0.435,1.061-1.246,1.061-2.175c0-1.254-0.254-2.538-2.139-2.538
			c-1.885,0-2.139,1.284-2.139,2.538c0,0.927,0.428,1.738,1.061,2.175c-1.402,0.426-2.419,1.643-2.419,3.077
			c0,0.742,0.376,1.264,1.12,1.558c0.542,0.22,1.298,0.319,2.377,0.319c1.079,0,1.833-0.1,2.375-0.319
			c0.745-0.294,1.121-0.819,1.121-1.558C7.861,19.41,6.846,18.192,5.443,17.768L5.443,17.768z"/>
	</g>
</g>
<g>
	<path fill="#DC5BA1" d="M8.224,15.83h8.394c0.003-0.431,0.04-0.819,0.104-1.169H8.121C8.184,15.013,8.222,15.398,8.224,15.83z"/>
	<path fill="#DC5BA1" d="M19.678,4.144V1.807H3.32v9.796c0.363-0.071,0.697-0.094,0.955-0.094c0.066,0,0.138,0.002,0.213,0.005
		V2.977h14.022v9.011c0.745-0.4,1.545-0.479,2.056-0.479c0.375,0,0.902,0.042,1.45,0.22V4.144H19.678z"/>
</g>
<path fill="#DC5BA1" d="M5.656,7.649v4.06c0.775,0.237,1.602,0.741,2.102,1.782h3.741V7.649H5.656z"/>
</svg>
