<svg version="1.1" id="servidor" xmlns="http://www.w3.org/2000/svg" xmlns:xlink="http://www.w3.org/1999/xlink" x="0px" y="0px"
	 width="58px" height="159px" viewBox="0 0 58 159" enable-background="new 0 0 58 159" xml:space="preserve">
<g>
	<g id="cabeza_servidor" class="cabeza">
	<path fill="#791314" d="M48.439,56.746c0,4.063-3.315,7.357-7.406,7.357H14.951c-4.09,0-7.405-3.294-7.405-7.357V41.775
		c0-4.062,3.315-7.356,7.405-7.356h26.082c4.091,0,7.406,3.294,7.406,7.356V56.746z"/>
	<path fill="#F1C9A5" d="M51.672,30.444c0.03,12.607-10.067,22.855-22.557,22.887c-12.482,0.03-22.629-10.169-22.66-22.775
		C6.425,17.948,16.521,7.7,29.003,7.67C41.493,7.639,51.642,17.837,51.672,30.444z"/>
	<path fill="#791314" d="M22.8,68.337c-8.59-1.74-12.564-24.762-12.587-33.879c-0.017-6.903,9.018-6.057,9.244-16.183
		c-0.094,4.183,21.696,14.862,27.209,9.323c-0.644,0.645,1.261,5.828,1.264,6.768c0.022,9.116-5.64,34.624-14.394,34.114
		c23.785,1.386,20.693-27.832,20.663-40.419C54.165,14.18,42.88,2.948,28.996,2.982C15.111,3.016,4.733,14.327,3.912,28.185
		C1.062,76.219,22.8,68.337,22.8,68.337z M25.313,52.895"/>
	<path fill="#524032" d="M23.89,31.51c0.002,1.075-0.524,1.949-1.18,1.951c-0.65,0.001-1.179-0.87-1.181-1.945
		c-0.003-1.074,0.521-1.946,1.171-1.947C23.355,29.567,23.887,30.436,23.89,31.51z"/>
	<path fill="#524032" d="M38.804,31.473c0.003,1.075-0.523,1.95-1.179,1.951c-0.65,0.002-1.18-0.87-1.183-1.945
		c-0.002-1.074,0.522-1.945,1.173-1.947C38.271,29.531,38.802,30.399,38.804,31.473z"/>
		<path fill="#E86666" d="M24.549,42.292c0,0,2.119,1.895,5.201,1.887c2.972-0.007,5.26-1.912,5.26-1.912s-1.063,4.765-5.253,4.774
		C25.564,47.051,24.549,42.292,24.549,42.292z"/>
		<circle fill="#F1C9A5" cx="10.939" cy="34.41" r="3.393"/>
	<circle fill="#F1C9A5" cx="47.288" cy="34.318" r="3.393"/>
	<path fill="#D3A884" d="M31.565,38.042c0,0-0.691-0.622-1.703-0.619c-0.975,0.002-1.724,0.627-1.724,0.627s0.347-1.562,1.721-1.565
		C31.231,36.48,31.565,38.042,31.565,38.042z"/>
	</g>
	<path fill="#4C3E33" d="M49.216,79.746c-0.715-3.483-4.621-13.471-7.578-17.579c-0.037-0.053-0.086-0.087-0.129-0.132
		c-0.363-0.425-0.842-0.818-1.488-1.153c-4.753-2.468-18.487-2.823-21.444,1.285c-2.956,4.108-6.862,14.096-7.578,17.579
		C10.283,83.229,9.771,97.6,9.771,97.6h3.379c0,0,0.937-14.729,1.64-17.854c0.702-3.126,5.064-10.927,5.064-10.927l2.702,7.445
		l-1.72,22.612l18.392,0.2l-1.568-22.812l0.266-0.734l2.818-6.017c1.075,1.973,4.106,7.67,4.683,10.232
		c0.702,3.126,1.64,17.854,1.64,17.854h3.379C50.444,97.6,49.932,83.229,49.216,79.746z"/>
	<polygon fill="#4C3E33" points="20.817,98.356 21.609,120.744 37.89,120.744 39.263,98.507 	"/>
	<polygon fill="#082021" points="30.714,151.71 30.738,157.617 32.463,157.617 32.463,156.339 34.538,157.617 41.88,157.617 
		34.864,151.71 	"/>
		<polygon fill="#F1C9A5" points="21.609,120.744 23.844,151.71 27.993,151.71 28.632,120.744 	"/>
	<polygon fill="#F1C9A5" points="37.099,120.744 34.864,151.71 30.714,151.71 30.075,120.744 	"/>
	<polygon fill="#082021" points="28.132,151.71 28.107,157.617 26.383,157.617 26.383,156.339 24.308,157.617 16.966,157.617 
		23.981,151.71 	"/>
	<path fill="#F1C9A5" d="M9.159,98.876c-0.198,1.739-0.1,3.249,0,4.791c0.101,1.542,1.512,1.809,2.15,0.212
		c0.638-1.597,0.403-3.404,0.403-3.404s0.639,2.646,1.437,1.403s0.084-5.556,0.084-5.556l-3.407-0.149
		C9.826,96.173,9.357,97.137,9.159,98.876z"/>
	<path fill="#F1C9A5" d="M51.148,99.46c0.199,1.739,0.101,3.249,0,4.791c-0.1,1.542-1.512,1.809-2.149,0.212
		s-0.403-3.404-0.403-3.404s-0.639,2.646-1.438,1.403c-0.797-1.243-0.084-5.556-0.084-5.556l3.408-0.149
		C50.482,96.757,50.951,97.721,51.148,99.46z"/>
	<rect x="27.081" y="62.664" fill="#F9F5F4" width="6.299" height="36.213"/>
	<polygon fill="#F1C9A5" points="33.38,63.657 30.784,68.819 27.112,63.672 27.081,51.093 33.349,51.078 	"/>
</g>
</svg>