<svg version="1.1" id="implementacion_v3" xmlns="http://www.w3.org/2000/svg" xmlns:xlink="http://www.w3.org/1999/xlink" x="0px"
	 y="0px" width="242.065px" height="200px" viewBox="-56.854 -57.75 242.065 236.945"
	 enable-background="new -56.854 -57.75 242.065 236.945" xml:space="preserve">
<g>
	<g>
		<circle fill="#FFFFFF" cx="-22.194" cy="91.27" r="33.035"/>
		<g>
			<g>
				
					<rect x="-51.906" y="85.352" transform="matrix(-0.4698 -0.8828 0.8828 -0.4698 -134.1008 106.9297)" fill="#C69D5B" width="33.935" height="16.771"/>
				<path fill="#EACCA9" d="M-43.859,82.123c0.956,1.791,0.377,3.961-1.292,4.846c-0.124,0.068-0.253,0.106-0.379,0.155
					l10.242,19.249c1.646-0.787,3.686-0.059,4.614,1.688c0.024,0.044,0.034,0.089,0.057,0.135l4.849-2.581
					c-0.025-0.042-0.059-0.079-0.08-0.122c-0.954-1.789-0.376-3.963,1.29-4.85c0.21-0.11,0.419-0.194,0.64-0.257l-10.287-19.324
					c-0.172,0.147-0.363,0.275-0.569,0.388c-1.665,0.885-3.79,0.151-4.742-1.638c-0.024-0.044-0.037-0.092-0.059-0.135L-43.94,82
					C-43.915,82.044-43.881,82.081-43.859,82.123z"/>
			</g>
			
				<text transform="matrix(-0.4221 -0.9066 0.9066 -0.4221 -27.4062 101.5562)" fill="#CF5C6C" font-family="'Palatino-Bold'" font-size="9.7409">$100</text>
		</g>
		<g>
			<g>
				
					<rect x="-41.161" y="81.351" transform="matrix(0.054 -0.9985 0.9985 0.054 -111.9601 62.4577)" fill="#AC78AE" width="36.288" height="17.934"/>
				<path fill="#D7B1D1" d="M-24.763,74.752c-0.119,2.168-1.845,3.834-3.861,3.725c-0.15-0.008-0.292-0.044-0.438-0.071
					l-1.26,23.283c1.944,0.192,3.407,1.985,3.293,4.096c-0.002,0.054-0.016,0.103-0.022,0.155l5.866,0.32
					c0.001-0.057-0.011-0.105-0.007-0.159c0.117-2.166,1.846-3.836,3.861-3.726c0.251,0.013,0.493,0.053,0.727,0.12l1.265-23.379
					c-0.239,0.037-0.483,0.056-0.735,0.037c-2.014-0.104-3.554-1.952-3.437-4.12c0.004-0.051,0.023-0.101,0.023-0.153l-5.283-0.285
					C-24.771,74.65-24.762,74.698-24.763,74.752z"/>
			</g>
			
				<text transform="matrix(0.1072 -0.9942 0.9942 0.1072 -20.7651 100.5171)" fill="#563B51" font-family="'Palatino-Bold'" font-size="11.173">$50</text>
		</g>
		<g>
			<g>
				
					<rect x="-28.327" y="85.749" transform="matrix(0.3444 -0.9388 0.9388 0.3444 -95.5988 52.5384)" fill="#1590D1" width="36.287" height="17.934"/>
				<path fill="#A5D1E5" d="M-7.29,79.322c-0.749,2.036-2.89,3.123-4.785,2.43c-0.141-0.052-0.266-0.128-0.395-0.196l-8.029,21.892
					c1.799,0.75,2.674,2.895,1.946,4.881c-0.019,0.051-0.049,0.094-0.069,0.141l5.516,2.025c0.016-0.052,0.02-0.103,0.041-0.153
					c0.747-2.036,2.888-3.125,4.782-2.43c0.236,0.088,0.456,0.197,0.66,0.327l8.062-21.98c-0.24-0.033-0.477-0.092-0.713-0.176
					c-1.895-0.699-2.824-2.912-2.078-4.948c0.019-0.052,0.049-0.092,0.068-0.142L-7.25,79.17
					C-7.268,79.221-7.273,79.271-7.29,79.322z"/>
			</g>
			
				<text transform="matrix(0.3939 -0.9191 0.9191 0.3939 -10.144 102.9155)" fill="#1A2C5C" font-family="'Palatino-Bold'" font-size="10.0935">$20</text>
		</g>
	</g>
	
		<line opacity="0.4" fill="none" stroke="#FFFFFF" stroke-width="2.8561" stroke-linecap="round" stroke-miterlimit="10" stroke-dasharray="4.2842,4.2842" enable-background="new    " x1="11.86" y1="8.24" x2="71.682" y2="8.24"/>
	
		<line opacity="0.4" fill="none" stroke="#FFFFFF" stroke-width="2.8561" stroke-linecap="round" stroke-miterlimit="10" stroke-dasharray="4.2842,4.2842" enable-background="new    " x1="71.682" y1="48.253" x2="103.824" y2="48.253"/>
	
		<line opacity="0.4" fill="none" stroke="#FFFFFF" stroke-width="2.8561" stroke-linecap="round" stroke-miterlimit="10" stroke-dasharray="4.2842,4.2842" enable-background="new    " x1="67.548" y1="93.276" x2="67.548" y2="8.24"/>
	
		<line opacity="0.4" fill="none" stroke="#FFFFFF" stroke-width="2.8561" stroke-linecap="round" stroke-miterlimit="10" stroke-dasharray="4.2842,4.2842" enable-background="new    " x1="11.86" y1="93.276" x2="71.682" y2="93.276"/>
	<g>
		<ellipse opacity="0.1" fill="#FFFFFF" enable-background="new    " cx="133.645" cy="159.065" rx="51.126" ry="19.316"/>
		<g>
			<path fill="#C9AA85" d="M165.391-12.744c0.042,17.988-14.36,32.607-32.182,32.654c-17.807,0.044-32.285-14.508-32.331-32.496
				c-0.046-17.989,14.361-32.61,32.172-32.653C150.868-45.283,165.351-30.732,165.391-12.744z"/>
			<path fill="#272421" d="M133.795,3.488c0,0,1.928-2.17,3.252-1.326s3.253,1.808,5.183,1.446c1.927-0.361-2.646,2.41-4.46,2.41
				C134.276,6.018,133.795,3.488,133.795,3.488z"/>
			<path fill="#272421" d="M134.542,3.488c0,0-1.928-2.17-3.253-1.326c-1.324,0.844-3.252,1.808-5.179,1.446
				c-1.93-0.361,2.644,2.41,4.456,2.41C134.06,6.018,134.542,3.488,134.542,3.488z"/>
			<path fill="#523F32" d="M125.751-11.223c0.006,1.533-0.744,2.782-1.678,2.783c-0.929,0-1.685-1.243-1.685-2.775
				c-0.007-1.533,0.743-2.781,1.665-2.781C124.995-13.996,125.748-12.755,125.751-11.223z"/>
			<path fill="#523F32" d="M147.034-11.223c0.004,1.533-0.746,2.782-1.683,2.783c-0.928,0.002-1.684-1.243-1.688-2.775
				c0-1.533,0.744-2.775,1.676-2.781C146.273-13.996,147.03-12.755,147.034-11.223z"/>
			<path fill="#B2967B" d="M136.709-1.907c0,0-0.992-0.886-2.434-0.885c-1.392,0.003-2.46,0.896-2.46,0.896s0.495-2.227,2.457-2.231
				C136.232-4.135,136.709-1.907,136.709-1.907z"/>
			<path fill="#C9AA85" d="M102.38-11.93c2.676,0,4.846,2.167,4.846,4.844c0,2.674-2.17,4.841-4.846,4.841
				c-2.673,0-4.839-2.167-4.839-4.841C97.542-9.763,99.708-11.93,102.38-11.93z"/>
			<circle fill="#C9AA85" cx="164.842" cy="-7.217" r="4.842"/>
			<path fill="#8C8C8C" d="M161.142,57.596c-1.02-4.967-6.594-19.218-10.812-25.082c-0.054-0.075-0.123-0.121-0.185-0.187
				c-0.521-0.604-1.202-1.168-2.128-1.648c-6.779-3.52-26.373-4.027-30.596,1.831c-4.218,5.866-9.79,20.111-10.812,25.084
				c-1.021,4.969-1.75,25.474-1.75,25.474h4.818c0,0,1.337-21.018,2.342-25.474c1-4.458,7.224-15.588,7.224-15.588l1.406,42.884
				l26.238,0.285l2.164-42.184c1.535,2.816,5.859,10.943,6.683,14.601c1.001,4.458,2.338,25.473,2.338,25.473h4.822
				C162.888,83.068,162.161,62.563,161.142,57.596z"/>
			<polygon fill="#4C4A4A" points="120.619,84.146 121.749,100.26 144.98,100.26 146.939,84.259 			"/>
			<polygon fill="#4C4A4A" points="121.749,97.036 124.937,160.273 130.859,160.273 131.772,97.036 			"/>
			<polygon fill="#4C4A4A" points="145.278,97.036 142.091,160.273 136.167,160.273 135.258,97.036 			"/>
			<polygon fill="#110E0E" points="136.167,160.273 136.203,168.699 138.665,168.699 138.665,166.878 141.626,168.699 
				152.101,168.699 142.091,160.273 			"/>
			<polygon fill="#110E0E" points="130.792,160.273 130.754,168.699 128.294,168.699 128.294,166.878 125.334,168.699 
				114.858,168.699 124.866,160.273 			"/>
			<path fill="#C9AA85" d="M103.986,84.894c-0.281,2.477-0.139,4.634,0,6.832c0.146,2.201,2.161,2.582,3.068,0.301
				c0.913-2.279,0.576-4.857,0.576-4.857s0.913,3.774,2.053,2.002c1.142-1.774,0.118-7.929,0.118-7.929l-4.862-0.212
				C104.939,81.036,104.27,82.408,103.986,84.894z"/>
			<path fill="#C9AA85" d="M163.792,84.894c0.281,2.477,0.141,4.634,0,6.832c-0.145,2.201-2.159,2.582-3.066,0.301
				c-0.914-2.279-0.574-4.857-0.574-4.857s-0.914,3.774-2.053,2.002c-1.143-1.774-0.12-7.929-0.12-7.929l4.858-0.212
				C162.841,81.036,163.512,82.408,163.792,84.894z"/>
			<rect x="129.556" y="28.412" fill="#F4EDED" width="8.988" height="55.613"/>
			<path fill="#272421" d="M145.349-52.803C145.349-52.799,145.349-52.799,145.349-52.803c-20.739-6.995-36.521,3.905-40.396,9.179
				c-4.156,5.656-10.052,24.791-0.867,32.404c0,0,25.111-13.333,27.564-20.042c-0.252,6.078,0,11.527,0,11.527
				s7.757-6.57,13.225-14.899c5.636,3.289,14.506,18.035,15.73,30.312C167.455-12.915,171.906-47.077,145.349-52.803z"/>
			<path fill="#C9AA85" d="M139.138,30.794c0,0-0.176,2.617-4.88,2.617c-4.705,0-4.881-2.617-4.881-2.617V16.059h9.759
				L139.138,30.794L139.138,30.794z"/>
		</g>
	</g>
	<g>
		<circle fill="#FFFFFF" cx="-21.174" cy="10.586" r="33.038"/>
		<rect x="-41.042" y="-2.977" fill="#E8E3E8" width="40.646" height="27.017"/>
		<rect x="-41.042" y="-2.977" fill="#DF1D48" width="40.646" height="11.216"/>
		<text transform="matrix(1 0 0 1 -28.4458 19.749)" font-family="'MyriadPro-Bold'" font-size="14.911">31</text>
		<path fill="#DDDBDC" d="M-35.388-1.1c0,0.594-0.481,1.073-1.073,1.073l0,0c-0.595,0-1.073-0.479-1.073-1.073v-3.731
			c0-0.595,0.479-1.075,1.073-1.075l0,0c0.592,0,1.073,0.48,1.073,1.075V-1.1z"/>
		<path fill="#DDDBDC" d="M-28.448-1.1c0,0.594-0.481,1.073-1.075,1.073l0,0c-0.593,0-1.073-0.479-1.073-1.073v-3.731
			c0-0.595,0.48-1.075,1.073-1.075l0,0c0.594,0,1.075,0.48,1.075,1.075V-1.1z"/>
		<path fill="#DDDBDC" d="M-22.194-1.1c0,0.594-0.482,1.073-1.073,1.073l0,0c-0.595,0-1.076-0.479-1.076-1.073v-3.731
			c0-0.595,0.482-1.075,1.076-1.075l0,0c0.591,0,1.073,0.48,1.073,1.075V-1.1z"/>
		<path fill="#DDDBDC" d="M-15.943-1.1c0,0.594-0.482,1.073-1.073,1.073l0,0c-0.595,0-1.076-0.479-1.076-1.073v-3.731
			c0-0.595,0.485-1.075,1.076-1.075l0,0c0.591,0,1.073,0.48,1.073,1.075V-1.1z"/>
		<path fill="#DDDBDC" d="M-9.478-1.1c0,0.594-0.479,1.073-1.073,1.073l0,0c-0.593,0-1.074-0.479-1.074-1.073v-3.731
			c0-0.595,0.481-1.075,1.074-1.075l0,0c0.593,0,1.073,0.48,1.073,1.075V-1.1z"/>
		<path fill="#DDDBDC" d="M-3.906-1.1c0,0.594-0.485,1.073-1.075,1.073l0,0c-0.596,0-1.076-0.479-1.076-1.073v-3.731
			c0-0.595,0.484-1.075,1.076-1.075l0,0c0.59,0,1.075,0.48,1.075,1.075V-1.1z"/>
	</g>
</g>
</svg>
