
<svg version="1.1" id="adjudicacion_ilustracion" xmlns="http://www.w3.org/2000/svg" xmlns:xlink="http://www.w3.org/1999/xlink"
	 x="0px" y="0px" width="330px" height="330px" viewBox="0 0 330 330" enable-background="new 0 0 330 330" xml:space="preserve">
<g>
	<circle fill="#83C785" cx="117.097" cy="119.143" r="98.2"/>
	<g>
		<path fill="#71A571" d="M117.098,222.18c-27.522,0-53.396-10.719-72.857-30.18c-19.461-19.459-30.178-45.334-30.178-72.857
			c0-27.521,10.717-53.395,30.178-72.855c19.46-19.461,45.335-30.178,72.857-30.178c27.521,0,53.396,10.717,72.856,30.178
			s30.178,45.334,30.178,72.855c0,27.523-10.718,53.398-30.178,72.857C170.494,211.461,144.62,222.18,117.098,222.18z
			 M117.098,25.778c-24.939,0-48.386,9.711-66.02,27.346c-17.635,17.635-27.346,41.081-27.346,66.019
			c0,24.939,9.711,48.387,27.346,66.02c17.635,17.637,41.081,27.348,66.02,27.348s48.386-9.711,66.02-27.348
			c17.635-17.633,27.346-41.08,27.346-66.02c0-24.938-9.711-48.384-27.346-66.019C165.484,35.489,142.038,25.778,117.098,25.778z"/>
	</g>
</g>
<circle fill="#FFFFFF" cx="180.102" cy="118.353" r="22.122"/>
<circle fill="#FFFFFF" cx="58.057" cy="118.353" r="22.122"/>
<circle fill="#FFFFFF" cx="116.346" cy="61.063" r="22.122"/>
<path fill="none" stroke="#FFFFFF" stroke-width="2" stroke-linecap="round" stroke-linejoin="round" stroke-miterlimit="10" stroke-dasharray="3,6" d="
	M58.057,119.425c0,0,8.552-57.362,56.29-57.362c47.738,0,65.756,56.289,65.756,56.289"/>
<g>
	<path fill="#989898" d="M67.899,119.371c-3.923,8.312-5.203,8.312-5.962,8.312h-7.512c-2.631,0-4.643-1.544-5.133-3.939
		c-0.015-0.076-1.503-7.372-1.884-9.41c-0.183-0.998-0.66-1.668-2.368-1.668c-0.778,0-1.407-0.627-1.407-1.405
		c0-0.78,0.628-1.407,1.407-1.407c2.837,0,4.661,1.407,5.137,3.964c0.376,2.016,1.861,9.288,1.875,9.362
		c0.299,1.471,1.619,1.692,2.374,1.692h7.14c0.766-0.827,2.512-3.999,3.792-6.697c0.329-0.707,1.166-1.005,1.871-0.675
		C67.932,117.826,68.233,118.664,67.899,119.371L67.899,119.371z M53.485,128.624c-1.292,0-2.347,1.049-2.347,2.345
		c0,1.297,1.056,2.35,2.347,2.35c1.297,0,2.346-1.051,2.346-2.35C55.832,129.672,54.782,128.624,53.485,128.624L53.485,128.624z
		 M61.937,128.624c-1.296,0-2.346,1.049-2.346,2.345c0,1.297,1.047,2.35,2.346,2.35c1.292,0,2.347-1.051,2.347-2.35
		C64.284,129.672,63.229,128.624,61.937,128.624L61.937,128.624z"/>
</g>
<path fill="#8CC148" d="M57.395,120.97c0.091,0.073,0.211,0.11,0.325,0.11c0.116,0,0.23-0.037,0.326-0.11
	c0.093-0.078,2.656-2.576,4.051-4.651c0.107-0.161,0.117-0.368,0.023-0.536c-0.084-0.175-0.264-0.279-0.458-0.279h-2.09
	c0,0-0.203-4.029-0.333-4.212c-0.197-0.279-0.992-0.467-1.517-0.467c-0.526,0-1.343,0.188-1.535,0.467
	c-0.133,0.183-0.306,4.212-0.306,4.212h-2.118c-0.193,0-0.371,0.106-0.463,0.279c-0.091,0.169-0.078,0.376,0.027,0.536
	C54.722,118.399,57.303,120.893,57.395,120.97L57.395,120.97z"/>
<g>
	<polygon fill="#F7D196" points="168.453,113.034 178.301,109.912 191.752,114.475 182.023,118.679 	"/>
	<polygon fill="#F2C891" points="168.453,113.034 168.453,124.684 182.023,131.77 182.023,118.679 	"/>
	<polygon fill="#CE954F" points="191.752,114.475 191.752,126.245 182.023,131.77 182.023,118.679 	"/>
	<polygon fill="#F4DBB8" points="172.855,111.608 186.266,116.847 186.264,119.368 188.396,118.243 188.396,115.926 
		174.958,110.954 	"/>
</g>
<g>
	<g>
		
			<rect x="96.662" y="56.691" transform="matrix(0.4698 0.8828 -0.8828 0.4698 111.2216 -61.6454)" fill="#C69D5B" width="20.532" height="10.148"/>
		<path fill="#EACCA9" d="M101.529,54.741c0.577,1.083,0.227,2.396-0.782,2.933c-0.075,0.04-0.154,0.063-0.231,0.093l6.197,11.646
			c0.997-0.476,2.23-0.035,2.792,1.021c0.015,0.026,0.021,0.056,0.034,0.083l2.934-1.562c-0.015-0.026-0.035-0.048-0.048-0.074
			c-0.577-1.083-0.228-2.397,0.78-2.934c0.126-0.066,0.253-0.117,0.386-0.154l-6.223-11.694c-0.105,0.089-0.219,0.167-0.344,0.234
			c-1.008,0.536-2.293,0.092-2.87-0.991c-0.014-0.027-0.021-0.056-0.035-0.082l-2.642,1.406
			C101.495,54.693,101.515,54.714,101.529,54.741z"/>
	</g>
	
		<text transform="matrix(-0.4221 -0.9066 0.9066 -0.4221 111.4824 66.498)" fill="#CF5C6C" font-family="'Palatino-Bold'" font-size="5.8942">$100</text>
</g>
<g>
	<g>
		
			<rect x="103.16" y="54.278" transform="matrix(-0.054 0.9985 -0.9985 -0.054 179.9184 -51.0446)" fill="#AC78AE" width="21.956" height="10.852"/>
		<path fill="#D7B1D1" d="M113.083,50.282c-0.071,1.311-1.117,2.319-2.336,2.253c-0.091-0.005-0.177-0.027-0.264-0.043L109.72,66.58
			c1.176,0.114,2.062,1.2,1.994,2.479c-0.002,0.031-0.011,0.062-0.015,0.094l3.55,0.193c0-0.033-0.006-0.064-0.004-0.097
			c0.07-1.31,1.117-2.319,2.336-2.253c0.152,0.008,0.297,0.031,0.439,0.07l0.765-14.144c-0.145,0.022-0.292,0.032-0.444,0.023
			c-1.22-0.065-2.15-1.182-2.08-2.492c0.002-0.032,0.013-0.062,0.014-0.094l-3.195-0.173
			C113.078,50.218,113.084,50.249,113.083,50.282z"/>
	</g>
	
		<text transform="matrix(0.1072 -0.9942 0.9942 0.1072 115.4976 65.8691)" fill="#563B51" font-family="'Palatino-Bold'" font-size="6.7601">$50</text>
</g>
<g>
	<g>
		
			<rect x="110.918" y="56.935" transform="matrix(-0.3443 0.9389 -0.9389 -0.3443 222.4156 -30.6078)" fill="#1590D1" width="21.955" height="10.853"/>
		<path fill="#A5D1E5" d="M123.654,53.046c-0.451,1.231-1.748,1.89-2.895,1.47c-0.084-0.032-0.16-0.078-0.238-0.118l-4.859,13.244
			c1.09,0.455,1.619,1.752,1.178,2.953c-0.011,0.031-0.029,0.057-0.042,0.086l3.338,1.225c0.011-0.03,0.013-0.061,0.024-0.092
			c0.452-1.232,1.748-1.891,2.895-1.471c0.143,0.053,0.274,0.119,0.398,0.199l4.878-13.3c-0.146-0.021-0.288-0.056-0.431-0.107
			c-1.146-0.421-1.709-1.761-1.258-2.993c0.012-0.031,0.029-0.056,0.041-0.086l-3.005-1.103
			C123.668,52.985,123.666,53.015,123.654,53.046z"/>
	</g>
	
		<text transform="matrix(0.3939 -0.9191 0.9191 0.3939 121.9243 67.3198)" fill="#1A2C5C" font-family="'Palatino-Bold'" font-size="6.1069">$20</text>
</g>
<g>
	<g>
		<defs>
			<circle id="adjudicacion_1" cx="119.744" cy="156.275" r="56.513"/>
		</defs>
		<clipPath id="adjudicacion_2">
			<use xlink:href="#adjudicacion_1"  overflow="visible"/>
		</clipPath>
		<g clip-path="url(#adjudicacion_2)">
			<polygon fill="#F1C8A4" points="109.279,221.627 111.542,252.98 115.743,252.98 116.39,221.627 			"/>
			<polygon fill="#F1C8A4" points="124.963,221.627 122.701,252.98 118.498,252.98 117.852,221.627 			"/>
			<g>
				<polygon fill="#A78759" points="108.478,198.957 109.279,221.627 125.764,221.627 127.154,199.111 				"/>
				<polygon fill="#082021" points="118.498,252.98 118.522,258.961 120.27,258.961 120.27,257.668 122.371,258.961 
					129.805,258.961 122.701,252.98 				"/>
				<polygon fill="#082021" points="115.884,252.98 115.859,258.961 114.113,258.961 114.113,257.668 112.012,258.961 
					104.578,258.961 111.681,252.98 				"/>
				<path fill="#F1C8A4" d="M85.867,175.68c-1.393-1.094-2.41-2.24-3.45-3.41c-1.038-1.17-0.226-2.375,1.379-1.696
					c1.603,0.676,2.738,2.132,2.738,2.132s-1.45-2.344,0.012-2.034c1.463,0.312,4.061,3.896,4.061,3.896l-2.318,2.56
					C88.289,177.125,87.261,176.775,85.867,175.68z"/>
				<path fill="#F1C8A4" d="M149.736,175.68c1.393-1.094,2.41-2.24,3.451-3.41c1.037-1.17,0.225-2.375-1.38-1.696
					c-1.604,0.676-2.739,2.132-2.739,2.132s1.451-2.344-0.011-2.034c-1.464,0.312-4.062,3.896-4.062,3.896l2.319,2.56
					C147.315,177.125,148.342,176.775,149.736,175.68z"/>
				<g>
					<path fill="#F1C8A4" d="M139.719,130.196c0.03,12.764-10.193,23.141-22.839,23.172c-12.639,0.032-22.913-10.295-22.944-23.06
						c-0.031-12.766,10.191-23.142,22.83-23.172C129.412,107.105,139.688,117.431,139.719,130.196z"/>
					<path fill="#473825" d="M114.843,158.075c-10.958-2.203-17.107-29.894-17.107-29.894s31.811-0.371,34.115-13.999
						c-0.163,0.966,4.764,15.823,4.803,17.976c0.181,10.047-9.94,25.594-15.46,26.013c21.728-1.652,21.109-24.128,21.081-36.062
						c-0.032-13.159-11.458-23.805-25.516-23.77c-14.059,0.034-24.948,10.731-25.402,23.895
						C89.91,164.24,114.843,158.075,114.843,158.075z"/>
					<path fill="#666666" stroke="#666666" stroke-width="0.5" stroke-miterlimit="10" d="M125.551,129.258
						c-3.056,0-7.24,2.04-6.451,5.396c0.591,2.512,3.265,5.133,6.317,5.133c3.052,0,5.199-2.489,5.791-5.001
						C131.998,131.429,128.602,129.258,125.551,129.258z M130.871,134.776c-0.554,2.351-2.562,4.681-5.421,4.681
						c-2.856,0-5.358-2.453-5.912-4.804c-0.738-3.142,3.179-5.05,6.035-5.05C128.432,129.603,131.609,131.635,130.871,134.776z"/>
					<path fill="#666666" stroke="#666666" stroke-width="0.5" stroke-miterlimit="10" d="M110.177,129.258
						c-3.053,0-6.449,2.171-5.66,5.527c0.592,2.512,2.738,5.001,5.792,5.001c3.054,0,5.727-2.621,6.318-5.133
						C117.415,131.298,113.229,129.258,110.177,129.258z M116.251,134.653c-0.559,2.351-3.086,4.804-5.972,4.804
						c-2.884,0-4.913-2.331-5.47-4.681c-0.747-3.141,2.462-5.173,5.347-5.173C113.039,129.603,116.995,131.511,116.251,134.653z"/>
					<g>
						<path fill="#666666" d="M119.325,134.315c-1.667-1.134-2.919,0.022-2.931,0.033l-0.192-0.449
							c0.014-0.014,1.402-1.363,3.404,0.002L119.325,134.315z"/>
					</g>
					<path fill="#D2A783" d="M119.36,136.934c0,0-0.644-0.578-1.585-0.576c-0.908,0.002-1.605,0.584-1.605,0.584
						s0.323-1.454,1.603-1.458C119.05,135.48,119.36,136.934,119.36,136.934z"/>
					<path fill="#E76565" d="M112.256,142.19c0,0,2.146,1.918,5.267,1.911c3.009-0.006,5.325-1.936,5.325-1.936
						s-1.076,4.825-5.319,4.835C113.284,147.01,112.256,142.19,112.256,142.19z"/>
					<path fill="#523F32" d="M111.588,133.275c0.002,1.088-0.531,1.974-1.195,1.976c-0.659,0-1.193-0.882-1.195-1.97
						c-0.003-1.087,0.527-1.971,1.186-1.971C111.047,131.308,111.585,132.188,111.588,133.275z"/>
					<path fill="#523F32" d="M126.689,133.275c0.002,1.088-0.53,1.974-1.193,1.976c-0.658,0.002-1.195-0.882-1.197-1.97
						c-0.002-1.087,0.528-1.97,1.188-1.971C126.149,131.308,126.688,132.188,126.689,133.275z"/>
					<circle fill="#F1C8A4" cx="100.5" cy="134.211" r="3.436"/>
					<circle fill="#F1C8A4" cx="135.28" cy="134.118" r="3.436"/>
					<path fill="#0D72B9" d="M129.559,162.314c0,0-0.087-0.087-0.131-0.132c-0.367-0.432-0.852-0.829-1.506-1.169
						c-4.812-2.498-18.719-2.858-21.713,1.301c-2.994,4.161-4.309,18.531-4.309,18.531l-11.623-6.717l-1.842,2.945l15.456,8.405
						l3.612-16.43l2.736,7.539l-1.742,22.896l18.623,0.201l-1.589-23.098l0.269-0.744l2.854-6.092L129.559,162.314z"/>
					<path fill="#0D72B9" d="M106.257,162.314c0,0,0.087-0.087,0.131-0.132c0.368-0.432,0.852-0.829,1.507-1.169
						c4.812-2.498,18.719-2.858,21.713,1.301c2.992,4.161,4.309,18.531,4.309,18.531l11.623-6.717l1.842,2.945l-15.455,8.405
						l-3.611-16.43l-2.736,7.539l1.742,22.896l-18.623,0.201l1.588-23.098l-0.269-0.744l-2.854-6.092L106.257,162.314z"/>
					<rect x="114.82" y="162.819" fill="#0D72B9" width="6.377" height="36.053"/>
					<polygon fill="#F1C8A4" points="121.197,163.824 118.008,169.051 114.851,163.839 114.82,151.104 121.166,151.088 					"/>
					
						<line fill="none" stroke="#666666" stroke-width="1.0237" stroke-miterlimit="10" x1="137.355" y1="130.917" x2="131.117" y2="132.821"/>
					
						<line fill="none" stroke="#666666" stroke-width="1.1658" stroke-miterlimit="10" x1="97.563" y1="131.908" x2="104.375" y2="134.17"/>
				</g>
			</g>
		</g>
	</g>
</g>
</svg>
