<svg version="1.1" id="Layer_1" xmlns="http://www.w3.org/2000/svg" xmlns:xlink="http://www.w3.org/1999/xlink" x="0px" y="0px"
	 width="235px" height="214px" viewBox="0 0 235 214" enable-background="new 0 0 235 214" xml:space="preserve">
<polygon fill="none" stroke="#EC1489" stroke-width="4" stroke-linecap="round" stroke-miterlimit="10" stroke-dasharray="6.912,6.912" points="
	27,57 193.203,29 186,127.727 46,191 "/>
<circle fill="#E90A8A" cx="169.646" cy="134.349" r="46.228"/>
<circle fill="#F9DC30" cx="38.728" cy="61.697" r="29.001"/>
<circle fill="#F9DC30" cx="193.203" cy="36.432" r="29.577"/>
<circle fill="#F9DC30" cx="52.367" cy="178.416" r="29.577"/>
<g>
	<g>
		<defs>
			<circle id="redes_SVGID_1_" cx="193.203" cy="36.432" r="29.577"/>
		</defs>
		<clipPath id="redes_SVGID_2_">
			<use xlink:href="#redes_SVGID_1_"  overflow="visible"/>
		</clipPath>
		<g clip-path="url(#redes_SVGID_2_)">
			<path fill="#F1C8A4" d="M206.518,36.827c0.019,7.738-6.181,14.028-13.847,14.047c-7.662,0.019-13.89-6.241-13.909-13.979
				c-0.019-7.738,6.178-14.028,13.84-14.047C200.27,22.828,206.498,29.087,206.518,36.827z"/>
			<path fill="#524032" d="M189.464,37.48c0.001,0.659-0.321,1.197-0.726,1.198c-0.398,0-0.723-0.535-0.725-1.194
				c0-0.659,0.319-1.195,0.719-1.195C189.135,36.288,189.461,36.821,189.464,37.48z"/>
			<ellipse fill="#524032" cx="197.893" cy="37.482" rx="0.726" ry="1.196"/>
			<path fill="#B2977B" d="M194.175,41.489c0,0-0.424-0.381-1.045-0.38c-0.599,0.001-1.058,0.385-1.058,0.385
				s0.212-0.958,1.055-0.961C193.971,40.53,194.175,41.489,194.175,41.489z"/>
			<circle fill="#F1C8A4" cx="179.409" cy="39.26" r="2.083"/>
			<circle fill="#F1C8A4" cx="206.281" cy="39.26" r="2.083"/>
			<path fill="#17204B" d="M204.688,67.088c-0.438-2.138-2.836-8.269-4.651-10.792c-0.022-0.032-0.054-0.053-0.08-0.08
				c-0.224-0.262-0.517-0.502-0.913-0.708c-2.917-1.515-11.348-1.732-13.163,0.789c-1.813,2.522-4.212,8.653-4.651,10.792
				c-0.438,2.138-0.752,10.959-0.752,10.959h2.073c0,0,0.574-9.042,1.007-10.959c0.43-1.919,3.108-6.708,3.108-6.708l0.603,18.45
				l11.289,0.122l0.932-18.146c0.66,1.211,2.52,4.708,2.875,6.281c0.43,1.917,1.006,10.959,1.006,10.959h2.072
				C205.441,78.047,205.126,69.226,204.688,67.088z"/>
			<rect x="190.467" y="54.533" fill="#3851A0" width="5.178" height="23.926"/>
			<path fill="#B74226" d="M197.893,19.593C197.893,19.594,197.893,19.594,197.893,19.593c-8.922-3.008-15.709,1.679-17.377,3.949
				c-1.789,2.433-4.324,10.665-0.375,13.942c0,0,10.805-5.737,11.858-8.625c-0.106,2.617,0,4.96,0,4.96s3.339-2.825,5.69-6.41
				c2.425,1.416,6.242,7.76,6.767,13.041C207.404,36.753,209.318,22.056,197.893,19.593z"/>
			<path fill="#E86666" d="M189.913,44.098c0,0,1.301,1.162,3.192,1.157c1.824-0.002,3.229-1.174,3.229-1.174
				s-0.652,2.926-3.225,2.931C190.537,47.019,189.913,44.098,189.913,44.098z"/>
			<path fill="#F1C8A4" d="M195.223,55.558c0,0-0.076,1.125-2.099,1.125s-2.101-1.125-2.101-1.125v-6.341h4.199V55.558
				L195.223,55.558z"/>
		</g>
	</g>
</g>
<g>
	<g>
		<defs>
			<circle id="redes_SVGID_3_" cx="52.367" cy="178.416" r="29.577"/>
		</defs>
		<clipPath id="redes_SVGID_4_">
			<use xlink:href="#redes_SVGID_3_"  overflow="visible"/>
		</clipPath>
		<g clip-path="url(#redes_SVGID_4_)">
			<ellipse fill="#532914" cx="52.65" cy="190.604" rx="14.447" ry="7.146"/>
			
				<ellipse transform="matrix(-0.0025 -1 1 -0.0025 -126.8729 232.5276)" fill="#F1C9A5" cx="52.537" cy="179.542" rx="14.761" ry="14.618"/>
			<path fill="#532914" d="M43.841,195.686c-6.195-8.406-3.507-17.826-3.507-17.826s8.09-3.864,9.279-6.047
				c0.294-0.539-1.952,3.517-3.152,5.215c-2.309,3.265,7.814-4.795,8.862-4.973c1.661-0.279-3.917,5.336-2.327,4.85
				c3.659-1.117,8.588-3.92,9.126-6.607c-0.105,0.521,2.705,8.594,3.062,9.7c1.807,5.586-3.594,16.368-7.118,16.596
				c13.875-0.896,10.725-15.581,10.709-22.021c-0.018-7.1-7.311-12.842-16.287-12.821c-8.977,0.021-15.934,5.797-16.227,12.901
				C35.327,197.318,43.841,195.686,43.841,195.686z"/>
			<path fill="#E86666" d="M49.613,187.166c0,0,1.37,1.227,3.363,1.221c1.922-0.005,3.401-1.236,3.401-1.236
				s-0.688,3.082-3.396,3.088C50.27,190.244,49.613,187.166,49.613,187.166z"/>
			<path fill="#524032" d="M49.187,180.195c0.001,0.695-0.339,1.261-0.763,1.263c-0.42,0-0.762-0.562-0.763-1.258
				c-0.002-0.694,0.336-1.259,0.757-1.259C48.841,178.939,49.185,179.503,49.187,180.195z"/>
			<ellipse fill="#524032" cx="58.066" cy="180.198" rx="0.764" ry="1.26"/>
			<path fill="#D3A884" d="M54.15,184.419c0,0-0.448-0.401-1.102-0.401c-0.63,0.002-1.114,0.405-1.114,0.405
				s0.224-1.008,1.113-1.012C53.934,183.409,54.15,184.419,54.15,184.419z"/>
			<circle fill="#F1C9A5" cx="40.396" cy="182.071" r="2.194"/>
			<circle fill="#F1C9A5" cx="64.904" cy="182.011" r="2.194"/>
			<path fill="#C91A77" d="M65.562,211.383c-0.462-2.253-2.988-8.71-4.899-11.365c-0.024-0.033-0.056-0.057-0.083-0.084
				c-0.235-0.275-0.544-0.529-0.962-0.746c-3.074-1.596-11.954-1.824-13.866,0.83c-1.911,2.655-4.437,9.112-4.899,11.365
				c-0.463,2.252-0.794,11.543-0.794,11.543h2.185c0,0,0.606-9.521,1.061-11.543c0.454-2.021,3.274-7.064,3.274-7.064l1.748,4.814
				l-1.112,14.62l11.891,0.129l-1.015-14.749l0.172-0.476l1.823-3.89c0.694,1.274,2.655,4.959,3.027,6.614
				c0.454,2.021,1.061,11.543,1.061,11.543h2.185C66.356,222.926,66.024,213.635,65.562,211.383z"/>
			<rect x="51.25" y="200.339" fill="#C91A77" width="4.072" height="23.022"/>
			<polygon fill="#F1C9A5" points="55.322,200.98 53.287,204.318 51.271,200.99 51.25,192.857 55.302,192.85 			"/>
		</g>
	</g>
</g>
<g>
	<g>
		<defs>
			<circle id="redes_SVGID_5_" cx="38.728" cy="61.697" r="29.001"/>
		</defs>
		<clipPath id="redes_SVGID_6_">
			<use xlink:href="#redes_SVGID_5_"  overflow="visible"/>
		</clipPath>
		<g clip-path="url(#redes_SVGID_6_)">
			<path d="M52.331,82.605c0,2.703-2.206,4.895-4.927,4.895H30.053c-2.721,0-4.927-2.191-4.927-4.895v-9.959
				c0-2.702,2.206-4.893,4.927-4.893h17.351c2.721,0,4.927,2.19,4.927,4.893V82.605z"/>
			
				<ellipse transform="matrix(-0.0025 -1 1 -0.0025 -24.2081 102.0064)" fill="#B98E6C" cx="38.772" cy="63.077" rx="15.188" ry="15.04"/>
			<path d="M32.207,93.721c-0.701-3.022-5.962-21.943-5.977-28.01c-0.011-4.592,5.999-4.029,6.149-10.765
				c-0.062,2.783,14.433,9.887,18.101,6.203c-0.428,0.429,0.839,3.877,0.841,4.502c0.015,6.064-2.497,27.939-8.321,27.6
				c15.823,0.922,12.512-23.42,12.492-31.794c-0.023-9.235-7.53-16.707-16.767-16.685c-9.237,0.022-16.14,7.547-16.687,16.767
				C20.142,93.493,32.207,93.721,32.207,93.721z"/>
			<path fill="#E86666" d="M35.767,70.922c0,0,1.41,1.261,3.46,1.256c1.978-0.005,3.499-1.271,3.499-1.271s-0.707,3.17-3.494,3.177
				C36.443,74.089,35.767,70.922,35.767,70.922z"/>
			<path fill="#524032" d="M35.328,63.75c0.001,0.715-0.349,1.297-0.784,1.299c-0.433,0-0.784-0.58-0.786-1.295
				c-0.001-0.715,0.346-1.295,0.779-1.295C34.973,62.457,35.327,63.035,35.328,63.75z"/>
			<ellipse fill="#524032" cx="44.465" cy="63.728" rx="0.785" ry="1.296"/>
			<g opacity="0.2">
				<path fill="#524032" d="M40.435,68.096c0,0-0.46-0.414-1.133-0.412c-0.648,0.001-1.146,0.416-1.146,0.416
					s0.229-1.039,1.145-1.041C40.212,67.057,40.435,68.096,40.435,68.096z"/>
			</g>
			<circle fill="#B98E6C" cx="26.713" cy="65.68" r="2.257"/>
			<circle fill="#B98E6C" cx="50.894" cy="65.619" r="2.257"/>
			<path fill="#4C3E33" d="M52.177,95.838c-0.476-2.316-3.075-8.961-5.042-11.693c-0.025-0.035-0.058-0.059-0.086-0.088
				c-0.242-0.283-0.561-0.545-0.99-0.768c-3.162-1.643-12.299-1.879-14.266,0.855c-1.967,2.732-4.565,9.377-5.042,11.693
				c-0.476,2.318-0.817,11.879-0.817,11.879h2.248c0,0,0.623-9.799,1.09-11.879c0.467-2.078,3.369-7.268,3.369-7.268l1.798,4.951
				l-1.157,14.697l12.282-0.07l-0.003-0.037l0.082,0.107L44.486,93.52l0.178-0.488l1.875-4.002c0.715,1.312,2.732,5.102,3.115,6.807
				c0.467,2.08,1.09,11.879,1.09,11.879h2.248C52.993,107.717,52.652,98.157,52.177,95.838z"/>
			<rect x="37.451" y="84.475" fill="#F9F5F4" width="4.19" height="24.089"/>
			<polygon fill="#B98E6C" points="41.641,85.135 39.915,88.571 37.472,85.147 37.451,76.778 41.621,76.768 			"/>
		</g>
	</g>
</g>
<g>
	<g>
		<defs>
			<circle id="redes_SVGID_7_" cx="169.646" cy="134.349" r="46.228"/>
		</defs>
		<clipPath id="redes_SVGID_8_">
			<use xlink:href="#redes_SVGID_7_"  overflow="visible"/>
		</clipPath>
		<g clip-path="url(#redes_SVGID_8_)">
			<g>
				<g>
					
						<rect x="213.761" y="149.807" transform="matrix(-0.5185 -0.8551 0.8551 -0.5185 195.4218 412.8068)" fill="#4B545B" width="0.36" height="3.147"/>
					
						<rect x="218.812" y="137.126" transform="matrix(0.8539 -0.5205 0.5205 0.8539 -40.4234 134.3091)" fill="#4B545B" width="0.36" height="4.045"/>
					
						<rect x="210.136" y="152.006" transform="matrix(-0.5224 -0.8527 0.8527 -0.5224 189.2386 413.1462)" fill="#4B545B" width="0.361" height="3.147"/>
					<path fill="#BCBEC0" d="M156.562,183.725l-25.09-41.029c-0.621-1.016-0.301-2.346,0.715-2.967l61.43-37.564
						c1.014-0.621,2.345-0.3,2.966,0.715l25.09,41.029c0.621,1.016,0.3,2.346-0.714,2.966l-61.43,37.565
						C158.514,185.061,157.184,184.738,156.562,183.725z"/>
					<path d="M159.342,184.133c-0.848,0.52-1.955,0.251-2.473-0.596l-25.09-41.03c-0.519-0.847-0.252-1.954,0.596-2.472
						l61.43-37.566c0.846-0.517,1.954-0.251,2.471,0.597l25.093,41.03c0.519,0.846,0.25,1.954-0.597,2.473L159.342,184.133z"/>
					
						<rect x="153.859" y="111.156" transform="matrix(-0.5217 -0.8531 0.8531 -0.5217 148.7061 368.6082)" fill="#474B4F" width="47.645" height="62.926"/>
					<path fill="#474B4F" d="M149.848,161.503c0.194-0.798-0.855-2.514-1.654-2.708c-0.799-0.191-2.516,0.857-2.707,1.656
						c-0.192,0.798,0.855,2.515,1.654,2.707C147.939,163.352,149.656,162.303,149.848,161.503z"/>
					<path d="M146.729,161.552L146.729,161.552c-0.201-0.325-0.289-0.646-0.237-0.858c0.108-0.45,1.009-1,1.459-0.892
						c0.212,0.05,0.457,0.275,0.655,0.601c0.199,0.326,0.289,0.646,0.236,0.859c-0.051,0.211-0.273,0.456-0.6,0.654
						c-0.326,0.199-0.646,0.288-0.859,0.236C147.172,162.102,146.927,161.878,146.729,161.552z M148.415,160.521
						c-0.161-0.265-0.369-0.467-0.519-0.5c-0.332-0.08-1.106,0.396-1.188,0.726c-0.035,0.147,0.049,0.425,0.209,0.688l0,0
						c0.161,0.263,0.369,0.465,0.518,0.5s0.424-0.049,0.688-0.211c0.264-0.16,0.465-0.369,0.5-0.517
						C148.661,161.061,148.575,160.784,148.415,160.521z"/>
					<circle fill="#474B4F" cx="207.132" cy="125.808" r="0.809"/>
					<circle cx="207.132" cy="125.808" r="0.36"/>
					<circle fill="#8DC63F" cx="206.068" cy="124.069" r="0.359"/>
				</g>
			</g>
			<g>
				<path fill="#FED09E" d="M227.328,140.488l-13.682-22.374c-3.234-5.29-6.219-4.3-9.229-2.458l5.175,8.462l1.624,2.653
					c0.771,1.262,0.374,2.908-0.888,3.68c-0.49,0.3-1.039,0.423-1.573,0.387l-1.329-2.172l-2.052-3.357
					c-1.062-1.734-2.774-2.621-4.511-1.561c-0.676,0.415-1.172,1.011-1.461,1.688l3.139,5.131l5.1,8.338
					c1.353,2.212,4.797,2.359,5.916,4.188c1.12,1.831,2.076,3.396,2.076,3.396L227.328,140.488z"/>
				<polygon fill="#AAE1FA" points="238.148,158.428 227.611,167.646 215.604,149.036 229.198,140.725 				"/>
				<polygon fill="#C7EAFB" points="219.377,146.729 215.604,149.036 227.611,167.646 229.223,164.281 				"/>
				<polygon fill="#8ED8F8" points="231.62,143.602 215.923,150.641 212.658,145.305 227.217,136.4 				"/>
				<polygon fill="#AAE1FA" points="216.176,143.154 212.658,145.305 215.923,150.641 219.715,148.939 				"/>
				<circle fill="#FFFFFF" cx="216.229" cy="147.126" r="1.155"/>
			</g>
			<g>
				<g>
					<g>
						<g>
							<g>
								<path fill="#FED09E" d="M179.493,181.205c0,0-1.345-4.559-1.972-6.678c-0.625-2.121,2.524-3.894,1.395-7.719l-4.201-14.23
									c-0.718-0.245-1.516-0.279-2.299-0.047c-2.012,0.593-2.518,2.515-1.924,4.525l2.064,6.99
									c0.057,0.196-0.056,0.401-0.252,0.459c-0.195,0.057-0.4-0.055-0.459-0.25l-6.799-23.031
									c-0.416-1.404-1.889-2.207-3.295-1.791c-1.404,0.414-2.207,1.889-1.792,3.295l4.032,13.658
									c-0.389-1.314-1.766-2.063-3.079-1.676c-1.313,0.387-2.062,1.766-1.675,3.079l0.404,1.374
									c-0.388-1.312-1.766-2.064-3.078-1.676c-1.313,0.388-2.062,1.767-1.674,3.078l0.404,1.373
									c-0.387-1.312-1.766-2.062-3.078-1.674s-2.062,1.766-1.675,3.078l3.215,10.893c1.13,3.828,4.736,3.604,5.362,5.724
									c0.626,2.121,1.972,6.681,1.972,6.681L179.493,181.205z"/>
							</g>
						</g>
						
							<rect x="161.795" y="184.074" transform="matrix(0.9591 -0.2832 0.2832 0.9591 -47.079 56.6555)" fill="#AAE1FA" width="21.263" height="14.192"/>
						<polygon fill="#C7EAFB" points="175.861,182.758 180.626,181.354 185.902,198.525 179.879,196.369 						"/>
						<polygon fill="#8ED8F8" points="161.126,192.634 182.041,183.904 179.734,176.09 158.126,182.469 						"/>
						<polygon fill="#AAE1FA" points="175.295,177.402 179.734,176.09 182.041,183.904 177.77,185.783 						"/>
						<circle fill="#FFFFFF" cx="178.566" cy="180.437" r="1.296"/>
					</g>
					<g opacity="0.3">
						<path fill="#FFFFFF" d="M158.432,141.702l-6.537,0.696l6.564,0.367L158.432,141.702z M153.385,147.869l5.867-2.965
							l-0.555-0.908L153.385,147.869z M160.296,138.759l0.909-0.555l-3.872-5.312L160.296,138.759z M158.841,140.516l0.509-0.934
							l-6.009-2.665L158.841,140.516z M166.443,139.805l0.555,0.906l5.312-3.871L166.443,139.805z M162.436,137.966l1.064-0.028
							l-0.698-6.535L162.436,137.966z M167.236,141.943l0.027,1.063l6.535-0.696L167.236,141.943z M164.686,138.348l0.936,0.508
							l2.664-6.008L164.686,138.348z"/>
					</g>
				</g>
			</g>
		</g>
	</g>
</g>
</svg>
