<svg version="1.1" xmlns="http://www.w3.org/2000/svg" xmlns:xlink="http://www.w3.org/1999/xlink" x="0px" y="0px" width="233px"
	 height="196.667px" viewBox="0 0 233 196.667" enable-background="new 0 0 233 196.667" xml:space="preserve">
<g id="Layer_1">
	<g>
		<g opacity="0.6">
			<g>
				<path fill="#FFFFFF" d="M118.262,177.839c-1.327,0-2.665-0.033-3.978-0.1c-0.828-0.041-1.465-0.744-1.424-1.572
					c0.042-0.828,0.741-1.459,1.572-1.424c1.618,0.08,3.271,0.109,4.902,0.088c0.007,0,0.014,0,0.021,0
					c0.819,0,1.489,0.658,1.5,1.479c0.011,0.83-0.651,1.51-1.479,1.521C119.005,177.835,118.634,177.839,118.262,177.839z
					 M126.336,177.419c-0.759,0-1.41-0.574-1.49-1.346c-0.085-0.822,0.514-1.561,1.338-1.646c1.616-0.168,3.25-0.391,4.854-0.664
					c0.814-0.137,1.593,0.41,1.73,1.227c0.14,0.816-0.41,1.592-1.227,1.73c-1.668,0.285-3.366,0.518-5.049,0.691
					C126.441,177.417,126.388,177.419,126.336,177.419z M107.399,177.079c-0.07,0-0.141-0.006-0.212-0.016
					c-1.67-0.236-3.357-0.529-5.018-0.875c-0.812-0.168-1.332-0.963-1.164-1.773c0.169-0.812,0.966-1.334,1.773-1.164
					c1.598,0.332,3.222,0.615,4.828,0.842c0.82,0.117,1.392,0.875,1.275,1.695C108.776,176.538,108.134,177.079,107.399,177.079z
					 M138.124,175.253c-0.663,0-1.271-0.443-1.448-1.113c-0.213-0.801,0.264-1.623,1.063-1.836c1.567-0.416,3.146-0.893,4.691-1.414
					c0.791-0.26,1.636,0.158,1.901,0.943c0.265,0.785-0.158,1.637-0.942,1.9c-1.608,0.543-3.25,1.037-4.879,1.469
					C138.38,175.237,138.251,175.253,138.124,175.253z M95.698,174.481c-0.146,0-0.294-0.02-0.44-0.064
					c-1.613-0.494-3.237-1.051-4.828-1.652c-0.774-0.293-1.165-1.158-0.872-1.934c0.294-0.775,1.163-1.16,1.935-0.873
					c1.53,0.58,3.093,1.115,4.645,1.59c0.792,0.242,1.237,1.08,0.995,1.873C96.933,174.067,96.339,174.481,95.698,174.481z
					 M149.428,171.276c-0.576,0-1.125-0.332-1.373-0.893c-0.335-0.758,0.008-1.643,0.766-1.979c1.479-0.654,2.961-1.369,4.407-2.125
					c0.732-0.385,1.641-0.1,2.024,0.633c0.384,0.734,0.1,1.641-0.634,2.025c-1.504,0.785-3.047,1.529-4.585,2.211
					C149.836,171.235,149.63,171.276,149.428,171.276z M84.537,170.085c-0.221,0-0.444-0.049-0.656-0.15
					c-1.515-0.74-3.031-1.541-4.509-2.385c-0.72-0.41-0.971-1.326-0.56-2.045c0.41-0.721,1.326-0.971,2.046-0.561
					c1.422,0.811,2.881,1.582,4.337,2.293c0.745,0.363,1.054,1.262,0.691,2.006C85.625,169.776,85.092,170.085,84.537,170.085z
					 M159.969,165.589c-0.492,0-0.976-0.242-1.262-0.688c-0.449-0.697-0.248-1.625,0.448-2.074c1.359-0.875,2.715-1.812,4.028-2.785
					c0.665-0.494,1.604-0.354,2.098,0.312s0.354,1.605-0.312,2.098c-1.365,1.012-2.775,1.986-4.188,2.896
					C160.529,165.511,160.248,165.589,159.969,165.589z M74.201,164.007c-0.297,0-0.596-0.088-0.857-0.27
					c-1.393-0.973-2.767-1.998-4.083-3.051c-0.647-0.518-0.752-1.463-0.235-2.109c0.519-0.646,1.462-0.752,2.108-0.234
					c1.266,1.012,2.587,2,3.927,2.936c0.68,0.473,0.846,1.408,0.371,2.088C75.14,163.784,74.674,164.007,74.201,164.007z
					 M169.506,158.335c-0.413,0-0.824-0.17-1.121-0.502c-0.551-0.619-0.496-1.568,0.122-2.119c1.215-1.082,2.409-2.217,3.552-3.375
					c0.582-0.592,1.531-0.598,2.121-0.016s0.597,1.531,0.016,2.121c-1.188,1.205-2.431,2.385-3.692,3.51
					C170.217,158.21,169.861,158.335,169.506,158.335z M64.932,156.403c-0.373,0-0.747-0.139-1.038-0.416
					c-1.216-1.166-2.414-2.393-3.562-3.645c-0.561-0.611-0.519-1.559,0.092-2.119c0.611-0.561,1.56-0.518,2.119,0.092
					c1.104,1.205,2.257,2.385,3.427,3.506c0.598,0.572,0.618,1.523,0.045,2.121C65.72,156.249,65.327,156.403,64.932,156.403z
					 M177.809,149.692c-0.335,0-0.672-0.111-0.951-0.34c-0.641-0.527-0.732-1.473-0.207-2.111c1.039-1.264,2.045-2.572,2.991-3.887
					c0.484-0.673,1.424-0.823,2.094-0.342c0.673,0.484,0.825,1.422,0.342,2.094c-0.984,1.367-2.029,2.727-3.108,4.039
					C178.672,149.507,178.243,149.692,177.809,149.692z M56.951,147.464c-0.452,0-0.898-0.203-1.194-0.59
					c-1.022-1.342-2.017-2.735-2.955-4.146c-0.459-0.689-0.271-1.62,0.418-2.08c0.686-0.458,1.619-0.274,2.08,0.418
					c0.902,1.356,1.859,2.698,2.844,3.989c0.502,0.658,0.375,1.6-0.284,2.102C57.587,147.364,57.268,147.464,56.951,147.464z
					 M184.683,139.872c-0.26,0-0.521-0.066-0.761-0.208c-0.714-0.421-0.951-1.34-0.53-2.054c0.827-1.404,1.619-2.853,2.354-4.305
					c0.375-0.739,1.277-1.034,2.016-0.662c0.739,0.374,1.036,1.276,0.662,2.016c-0.764,1.51-1.587,3.016-2.447,4.475
					C185.697,139.608,185.196,139.872,184.683,139.872z M50.445,137.402c-0.533,0-1.049-0.284-1.32-0.786
					c-0.808-1.493-1.573-3.024-2.275-4.552c-0.346-0.753-0.016-1.644,0.736-1.99c0.752-0.345,1.644-0.017,1.99,0.736
					c0.675,1.469,1.411,2.942,2.188,4.378c0.395,0.729,0.123,1.64-0.605,2.033C50.93,137.345,50.686,137.402,50.445,137.402z
					 M189.953,129.099c-0.184,0-0.37-0.033-0.551-0.104c-0.771-0.305-1.148-1.176-0.845-1.946c0.602-1.524,1.158-3.079,1.654-4.62
					c0.253-0.79,1.102-1.226,1.887-0.969c0.789,0.254,1.223,1.099,0.969,1.887c-0.516,1.603-1.094,3.219-1.719,4.804
					C191.115,128.739,190.55,129.099,189.953,129.099z M45.583,126.457c-0.618,0-1.197-0.385-1.414-1.001
					c-0.563-1.594-1.081-3.228-1.54-4.856c-0.224-0.797,0.24-1.626,1.038-1.851c0.798-0.224,1.626,0.239,1.851,1.038
					c0.44,1.566,0.938,3.138,1.479,4.671c0.276,0.781-0.134,1.638-0.915,1.913C45.917,126.43,45.75,126.457,45.583,126.457z
					 M193.475,117.637c-0.107,0-0.217-0.012-0.327-0.036c-0.809-0.181-1.318-0.982-1.138-1.791c0.354-1.592,0.661-3.212,0.91-4.814
					c0.128-0.819,0.9-1.38,1.713-1.251c0.819,0.127,1.379,0.895,1.252,1.713c-0.26,1.666-0.578,3.35-0.947,5.005
					C194.783,117.161,194.163,117.637,193.475,117.637z M42.486,114.88c-0.709,0-1.339-0.505-1.473-1.228
					c-0.308-1.657-0.564-3.353-0.764-5.037c-0.098-0.822,0.49-1.568,1.312-1.666c0.829-0.099,1.569,0.49,1.666,1.312
					c0.192,1.621,0.439,3.251,0.734,4.845c0.151,0.814-0.387,1.597-1.201,1.748C42.668,114.871,42.577,114.88,42.486,114.88z
					 M195.166,105.772c-0.032,0-0.065-0.001-0.098-0.003c-0.826-0.053-1.454-0.766-1.401-1.593c0.104-1.622,0.156-3.271,0.156-4.898
					c0-1.428-0.04-2.871-0.12-4.29c-0.046-0.827,0.587-1.535,1.414-1.581c0.845-0.039,1.536,0.587,1.582,1.413
					c0.082,1.475,0.124,2.975,0.124,4.458c0,1.692-0.055,3.404-0.162,5.09C196.61,105.162,195.95,105.772,195.166,105.772z
					 M41.231,102.963c-0.809,0-1.476-0.645-1.498-1.458c-0.021-0.739-0.031-1.481-0.031-2.227c0-0.961,0.017-1.917,0.052-2.868
					c0.03-0.828,0.737-1.465,1.554-1.444c0.828,0.03,1.475,0.726,1.444,1.554c-0.033,0.915-0.05,1.835-0.05,2.759
					c0,0.717,0.01,1.431,0.029,2.142c0.023,0.828-0.629,1.519-1.457,1.542C41.26,102.963,41.246,102.963,41.231,102.963z
					 M41.819,90.993c-0.063,0-0.127-0.004-0.19-0.012c-0.822-0.104-1.404-0.855-1.3-1.678c0.213-1.678,0.483-3.37,0.805-5.03
					c0.157-0.813,0.947-1.344,1.757-1.188c0.813,0.157,1.346,0.943,1.188,1.757c-0.309,1.597-0.568,3.225-0.773,4.839
					C43.208,90.439,42.563,90.993,41.819,90.993z M194.493,89.444c-0.731,0-1.372-0.535-1.482-1.281
					c-0.236-1.609-0.53-3.231-0.871-4.821c-0.174-0.81,0.342-1.607,1.152-1.781c0.804-0.171,1.606,0.342,1.781,1.152
					c0.354,1.653,0.659,3.34,0.906,5.013c0.12,0.82-0.446,1.582-1.266,1.703C194.639,89.439,194.566,89.444,194.493,89.444z
					 M44.248,79.259c-0.139,0-0.279-0.02-0.419-0.06c-0.796-0.23-1.254-1.062-1.022-1.858c0.473-1.629,1.004-3.259,1.579-4.846
					c0.283-0.778,1.143-1.181,1.922-0.898c0.778,0.283,1.181,1.144,0.898,1.922c-0.554,1.525-1.064,3.092-1.519,4.658
					C45.497,78.832,44.898,79.259,44.248,79.259z M191.828,77.763c-0.639,0-1.23-0.41-1.432-1.052
					c-0.489-1.562-1.032-3.119-1.614-4.627c-0.298-0.773,0.087-1.642,0.859-1.939c0.773-0.298,1.642,0.086,1.939,0.859
					c0.605,1.568,1.17,3.187,1.679,4.81c0.247,0.791-0.192,1.633-0.983,1.88C192.126,77.74,191.976,77.763,191.828,77.763z
					 M48.479,68.044c-0.214,0-0.431-0.046-0.637-0.143c-0.75-0.353-1.072-1.246-0.72-1.996c0.719-1.53,1.499-3.059,2.318-4.543
					c0.4-0.725,1.314-0.987,2.038-0.588c0.726,0.4,0.989,1.312,0.589,2.038c-0.788,1.428-1.539,2.897-2.23,4.369
					C49.583,67.726,49.042,68.044,48.479,68.044z M187.369,66.642c-0.553,0-1.084-0.307-1.346-0.836
					c-0.717-1.45-1.494-2.901-2.312-4.314c-0.415-0.717-0.171-1.635,0.547-2.05c0.716-0.414,1.635-0.17,2.049,0.547
					c0.851,1.47,1.659,2.979,2.405,4.488c0.367,0.742,0.062,1.642-0.68,2.009C187.819,66.591,187.592,66.642,187.369,66.642z
					 M54.41,57.622c-0.29,0-0.582-0.084-0.84-0.258c-0.687-0.465-0.866-1.397-0.401-2.083c0.947-1.399,1.955-2.788,2.994-4.127
					c0.506-0.654,1.45-0.772,2.104-0.265s0.773,1.45,0.265,2.104c-0.999,1.287-1.968,2.623-2.879,3.969
					C55.363,57.391,54.89,57.622,54.41,57.622z M181.236,56.35c-0.47,0-0.934-0.221-1.226-0.634
					c-0.94-1.329-1.935-2.645-2.956-3.907c-0.521-0.645-0.42-1.589,0.225-2.109c0.645-0.521,1.588-0.42,2.109,0.224
					c1.061,1.312,2.094,2.679,3.071,4.061c0.479,0.677,0.318,1.612-0.358,2.091C181.838,56.261,181.536,56.35,181.236,56.35z
					 M61.881,48.246c-0.366,0-0.733-0.133-1.022-0.402c-0.606-0.565-0.64-1.515-0.074-2.12c1.15-1.235,2.359-2.45,3.592-3.613
					c0.604-0.568,1.553-0.541,2.12,0.062c0.568,0.603,0.541,1.552-0.062,2.12c-1.187,1.119-2.349,2.288-3.457,3.477
					C62.683,48.086,62.283,48.246,61.881,48.246z M173.582,47.13c-0.392,0-0.782-0.152-1.077-0.456
					c-1.135-1.171-2.32-2.316-3.523-3.406c-0.614-0.557-0.661-1.505-0.104-2.119c0.556-0.615,1.505-0.66,2.118-0.104
					c1.251,1.133,2.483,2.324,3.664,3.541c0.576,0.595,0.562,1.545-0.033,2.121C174.334,46.989,173.958,47.13,173.582,47.13z
					 M70.708,40.137c-0.444,0-0.885-0.196-1.181-0.573c-0.512-0.651-0.398-1.595,0.253-2.106c1.332-1.046,2.714-2.061,4.106-3.015
					c0.681-0.467,1.616-0.294,2.085,0.39s0.294,1.617-0.39,2.085c-1.339,0.918-2.667,1.894-3.948,2.899
					C71.358,40.032,71.032,40.137,70.708,40.137z M164.593,39.196c-0.314,0-0.632-0.098-0.901-0.302
					c-1.305-0.983-2.653-1.933-4.01-2.823c-0.692-0.454-0.886-1.384-0.431-2.077c0.456-0.692,1.386-0.884,2.077-0.431
					c1.41,0.926,2.812,1.913,4.168,2.936c0.662,0.498,0.794,1.438,0.296,2.101C165.498,38.99,165.048,39.196,164.593,39.196z
					 M80.677,33.49c-0.525,0-1.035-0.277-1.31-0.768c-0.405-0.723-0.147-1.637,0.576-2.042c1.477-0.827,2.997-1.614,4.521-2.341
					c0.746-0.354,1.643-0.04,1.999,0.708c0.357,0.748,0.04,1.643-0.708,2c-1.464,0.698-2.926,1.455-4.347,2.25
					C81.177,33.428,80.925,33.49,80.677,33.49z M154.488,32.746c-0.238,0-0.48-0.057-0.705-0.177
					c-1.435-0.766-2.916-1.495-4.4-2.167c-0.755-0.342-1.09-1.23-0.748-1.985c0.341-0.754,1.231-1.088,1.984-0.748
					c1.545,0.699,3.084,1.457,4.576,2.254c0.731,0.39,1.008,1.298,0.617,2.029C155.542,32.458,155.024,32.746,154.488,32.746z
					 M91.552,28.474c-0.609,0-1.184-0.375-1.407-0.98c-0.287-0.777,0.11-1.64,0.888-1.928c1.59-0.588,3.217-1.129,4.835-1.608
					c0.795-0.234,1.63,0.217,1.865,1.011c0.235,0.795-0.218,1.63-1.012,1.865c-1.556,0.461-3.119,0.981-4.649,1.547
					C91.901,28.443,91.725,28.474,91.552,28.474z M143.5,27.945c-0.163,0-0.328-0.026-0.491-0.083
					c-1.534-0.531-3.109-1.021-4.68-1.452c-0.799-0.219-1.269-1.045-1.049-1.844s1.048-1.267,1.844-1.049
					c1.634,0.449,3.271,0.957,4.867,1.51c0.782,0.271,1.197,1.126,0.926,1.909C144.703,27.557,144.122,27.945,143.5,27.945z
					 M103.082,25.213c-0.7,0-1.326-0.493-1.469-1.207c-0.162-0.812,0.364-1.603,1.177-1.765c1.656-0.331,3.347-0.611,5.026-0.835
					c0.816-0.108,1.574,0.469,1.685,1.289c0.108,0.821-0.469,1.576-1.29,1.685c-1.614,0.215-3.241,0.485-4.833,0.803
					C103.278,25.203,103.179,25.213,103.082,25.213z M131.907,24.922c-0.088,0-0.177-0.008-0.266-0.024
					c-1.602-0.285-3.233-0.522-4.849-0.704c-0.823-0.093-1.416-0.835-1.323-1.658c0.092-0.822,0.831-1.42,1.657-1.323
					c1.68,0.189,3.376,0.436,5.042,0.732c0.815,0.146,1.358,0.925,1.213,1.74C133.251,24.411,132.62,24.922,131.907,24.922z
					 M114.981,23.786c-0.8,0-1.464-0.631-1.498-1.438c-0.034-0.828,0.608-1.527,1.437-1.562c1.69-0.07,3.407-0.087,5.094-0.05
					c0.828,0.018,1.484,0.704,1.467,1.532c-0.019,0.829-0.671,1.495-1.533,1.467c-1.624-0.036-3.274-0.02-4.902,0.048
					C115.023,23.785,115.001,23.786,114.981,23.786z"/>
			</g>
		</g>
		<g>
			<g>
				<circle fill="#FFFFFF" cx="116.446" cy="44.389" r="39.342"/>
				<g>
					<defs>
						<circle id="SVGID_1_" cx="116.446" cy="44.389" r="39.342"/>
					</defs>
					<clipPath id="SVGID_2_">
						<use xlink:href="#SVGID_1_"  overflow="visible"/>
					</clipPath>
				</g>
			</g>
			<g>
				<defs>
					<circle id="SVGID_3_" cx="190.258" cy="97.976" r="39.342"/>
				</defs>
				<use xlink:href="#SVGID_3_"  overflow="visible" fill="#FFFFFF"/>
				<clipPath id="SVGID_4_">
					<use xlink:href="#SVGID_3_"  overflow="visible"/>
				</clipPath>
			</g>
			<path opacity="0.6" fill="#FFFFFF" d="M188.502,24.988h-11.42c-0.969,0-1.756,0.787-1.756,1.757v6.148
				c0,0.971,0.787,1.757,1.756,1.757h0.879v3.074c0,0.112,0.043,0.225,0.129,0.311c0.172,0.172,0.449,0.173,0.621,0l3.643-3.385
				h6.148c0.969,0,1.756-0.786,1.756-1.757v-6.148C190.258,25.775,189.471,24.988,188.502,24.988 M178.401,27.623h7.027
				c0.242,0,0.439,0.197,0.439,0.439c0,0.243-0.197,0.439-0.439,0.439h-7.027c-0.242,0-0.439-0.196-0.439-0.439
				C177.961,27.82,178.159,27.623,178.401,27.623 M181.915,32.016h-3.514c-0.242,0-0.439-0.196-0.439-0.439s0.197-0.438,0.439-0.438
				h3.514c0.242,0,0.439,0.195,0.439,0.438S182.157,32.016,181.915,32.016 M187.184,30.259h-8.783c-0.242,0-0.439-0.196-0.439-0.439
				c0-0.242,0.197-0.438,0.439-0.438h8.783c0.244,0,0.439,0.196,0.439,0.438C187.624,30.062,187.428,30.259,187.184,30.259"/>
			<g opacity="0.6">
				<path fill="#FFFFFF" d="M47.885,27.263c0.02-0.197,0.031-0.399,0.031-0.601c0-0.203-0.012-0.404-0.031-0.6l-0.709-0.203
					c-0.059-0.384-0.16-0.754-0.295-1.105l0.514-0.529c-0.166-0.368-0.367-0.718-0.6-1.041l-0.719,0.183
					c-0.238-0.299-0.51-0.569-0.809-0.811l0.182-0.716c-0.324-0.235-0.674-0.436-1.041-0.603l-0.529,0.516
					c-0.352-0.137-0.723-0.238-1.105-0.298l-0.201-0.709c-0.197-0.02-0.398-0.03-0.602-0.03v2.687c1.797,0,3.258,1.459,3.258,3.258
					c0,1.8-1.461,3.257-3.258,3.257v2.688c0.201,0,0.4-0.01,0.598-0.03l0.201-0.708c0.385-0.059,0.756-0.159,1.107-0.297
					l0.527,0.517c0.369-0.166,0.717-0.368,1.041-0.603l-0.18-0.716c0.299-0.239,0.568-0.511,0.809-0.81l0.715,0.182
					c0.236-0.323,0.438-0.672,0.604-1.039l-0.514-0.528c0.137-0.354,0.238-0.723,0.297-1.107L47.885,27.263z M41.971,20.716
					L41.971,20.716c-0.203,0-0.402,0.011-0.6,0.03l-0.203,0.709c-0.383,0.06-0.752,0.16-1.104,0.296l-0.529-0.514
					c-0.369,0.165-0.719,0.367-1.041,0.602l0.182,0.715c-0.299,0.241-0.568,0.511-0.809,0.809l-0.717-0.18
					c-0.232,0.323-0.438,0.671-0.602,1.039l0.514,0.529c-0.137,0.352-0.236,0.722-0.295,1.104l-0.711,0.202
					c-0.02,0.199-0.031,0.399-0.031,0.604c0,0.201,0.01,0.4,0.031,0.598l0.711,0.201c0.057,0.384,0.156,0.753,0.293,1.104
					l-0.514,0.529c0.164,0.369,0.367,0.717,0.602,1.041l0.717-0.18c0.238,0.297,0.508,0.566,0.805,0.808l-0.18,0.716
					c0.324,0.234,0.672,0.437,1.041,0.602l0.527-0.513c0.354,0.137,0.723,0.236,1.107,0.295l0.199,0.711
					c0.199,0.021,0.402,0.03,0.605,0.03l0,0v-2.688c-1.799,0-3.258-1.457-3.258-3.257c0-1.799,1.459-3.258,3.258-3.258V20.716z"/>
				<path fill="#FFFFFF" d="M57.815,36.276c0.082,0.229,0.158,0.465,0.217,0.706c0.062,0.241,0.111,0.48,0.146,0.721l-0.781,0.455
					c0.045,0.476,0.041,0.945-0.016,1.404l0.773,0.476c-0.086,0.486-0.221,0.961-0.398,1.418l-0.908,0.002
					c-0.193,0.427-0.434,0.831-0.715,1.207l0.434,0.797c-0.314,0.376-0.666,0.722-1.055,1.03l-0.785-0.45
					c-0.377,0.271-0.785,0.503-1.225,0.688l-0.023,0.904c-0.229,0.085-0.465,0.157-0.705,0.22c-0.242,0.061-0.482,0.109-0.723,0.146
					l-0.455-0.783c-0.211,0.021-0.42,0.032-0.627,0.032v-2.464c0.326-0.001,0.658-0.042,0.986-0.127
					c2.139-0.545,3.43-2.723,2.883-4.86c-0.461-1.807-2.088-3.008-3.869-3.008v-2.462c0.26,0,0.516,0.014,0.771,0.045l0.473-0.772
					c0.49,0.085,0.965,0.219,1.418,0.399l0.004,0.904c0.426,0.194,0.832,0.436,1.209,0.717l0.795-0.434
					c0.377,0.313,0.723,0.667,1.031,1.053l-0.451,0.785c0.271,0.377,0.504,0.786,0.689,1.227L57.815,36.276z M50.969,45.25
					c-0.264,0-0.521-0.017-0.777-0.047l-0.473,0.771c-0.488-0.085-0.965-0.22-1.418-0.4l-0.004-0.905
					c-0.428-0.193-0.832-0.434-1.205-0.714l-0.797,0.433c-0.377-0.314-0.725-0.666-1.031-1.055l0.451-0.785
					c-0.27-0.376-0.502-0.785-0.689-1.223l-0.904-0.024c-0.084-0.229-0.158-0.466-0.221-0.707c-0.061-0.24-0.107-0.48-0.145-0.722
					l0.781-0.455c-0.047-0.474-0.039-0.942,0.016-1.401l-0.771-0.474c0.084-0.488,0.219-0.964,0.398-1.42l0.906-0.003
					c0.193-0.426,0.434-0.831,0.713-1.205l-0.432-0.797c0.312-0.376,0.666-0.724,1.053-1.032l0.787,0.452
					c0.375-0.271,0.785-0.503,1.221-0.69l0.025-0.904c0.23-0.083,0.465-0.157,0.709-0.219c0.238-0.062,0.479-0.11,0.719-0.147
					l0.455,0.783c0.211-0.021,0.422-0.03,0.633-0.03v2.462c-0.326,0.001-0.66,0.041-0.99,0.126c-2.139,0.546-3.43,2.724-2.883,4.862
					c0.461,1.805,2.088,3.007,3.873,3.007V45.25z"/>
			</g>
			<g>
				<defs>
					<circle id="SVGID_5_" cx="42.741" cy="97.976" r="39.342"/>
				</defs>
				<clipPath id="SVGID_6_">
					<use xlink:href="#SVGID_5_"  overflow="visible"/>
				</clipPath>
				<g clip-path="url(#SVGID_6_)">
					<path d="M56.631,117.199h-7.439l-7.439,11.16l-7.441-11.16h-7.439c-4.105,0-7.441,3.331-7.441,7.44v14.879
						c0,2.058,1.67,3.721,3.723,3.721h37.201c2.055,0,3.719-1.663,3.719-3.721V124.64C64.073,120.53,60.745,117.199,56.631,117.199
						L56.631,117.199z M56.631,117.199"/>
					<path fill="#CAA28E" d="M57.334,96.126c-0.191-5.053-1.289-8.389-2.939-10.672h0.006c-1.15-1.809-3.646-3.735-5.18-4.666
						c-10.076-6.147-15.537,1.712-16.158,2.686c-0.928,0.336-6.699,2.872-5.027,11.85c-0.018,0.295-0.033,0.597-0.047,0.91
						c-1.227,0.563-2.146,1.879-1.898,4.859c0.26,3.154,1.844,4.578,3.57,4.941c2.434,5.975,7.273,10.911,13.002,10.911
						c5.707,0,10.539-4.909,12.986-10.862c1.809-0.287,3.529-1.693,3.803-4.99C59.713,97.94,58.665,96.632,57.334,96.126
						L57.334,96.126z M42.663,114.17"/>
					<path fill="#272421" d="M31.088,100.138c0,0,9.523-6.498,10.645-10.086c-0.113,3.251,0,6.164,0,6.164s9.299-9.187,8.4-16.695
						c-10.529-5.601-18.709,0.896-20.613,3.924C27.616,86.468,27.167,94.872,31.088,100.138z"/>
					<path fill="#272421" d="M48.79,82.548c0,0,4.371,5.266,5.268,15.798c3.135-4.593,6.498-17.929-3.924-18.825
						C49.237,81.202,48.79,82.548,48.79,82.548z"/>
					<ellipse fill="#524032" cx="48.004" cy="100.009" rx="0.822" ry="1.355"/>
					<ellipse fill="#524032" cx="37.538" cy="100.009" rx="0.822" ry="1.355"/>
					<path opacity="0.4" fill="#524032" d="M44.106,104.636c0,0-0.514-0.463-1.266-0.463c-0.723,0-1.281,0.463-1.281,0.463
						s0.26-1.16,1.281-1.16S44.106,104.636,44.106,104.636z"/>
					<path opacity="0.4" fill="#524032" d="M39.2,107.798c0,0,3.395,3.406,6.801,0H39.2z"/>
				</g>
				<g clip-path="url(#SVGID_6_)">
					<circle fill="none" cx="42.741" cy="97.976" r="39.342"/>
					<g>
						<defs>
							<circle id="SVGID_7_" cx="42.741" cy="97.976" r="39.342"/>
						</defs>
						<clipPath id="SVGID_8_">
							<use xlink:href="#SVGID_7_"  overflow="visible"/>
						</clipPath>
					</g>
				</g>
				<g clip-path="url(#SVGID_6_)">
					<defs>
						<circle id="SVGID_9_" cx="42.741" cy="97.976" r="39.342"/>
					</defs>
					<clipPath id="SVGID_10_">
						<use xlink:href="#SVGID_9_"  overflow="visible"/>
					</clipPath>
				</g>
			</g>
			<g>
				<defs>
					<circle id="SVGID_11_" cx="116.446" cy="152.276" r="39.342"/>
				</defs>
				<clipPath id="SVGID_12_">
					<use xlink:href="#SVGID_11_"  overflow="visible"/>
				</clipPath>
				<g clip-path="url(#SVGID_12_)">
					<g>
						<path fill="#F1C9A5" d="M131.75,148.003c-0.193-5.085-1.297-8.443-2.959-10.741h0.006c-1.158-1.821-3.67-3.761-5.215-4.698
							c-10.145-6.188-15.641,1.725-16.268,2.703c-0.932,0.338-6.74,2.893-5.059,11.93c-0.018,0.297-0.033,0.6-0.047,0.916
							c-1.236,0.566-2.162,1.891-1.912,4.893c0.262,3.174,1.855,4.607,3.596,4.973c2.449,6.016,7.32,10.984,13.086,10.984
							c5.748,0,10.611-4.941,13.074-10.934c1.82-0.291,3.553-1.705,3.828-5.023C134.145,149.831,133.088,148.513,131.75,148.003
							L131.75,148.003z M116.979,166.169"/>
					</g>
					<path fill="#3494BB" d="M129.928,168.466l-1.689-0.416l-11.225,8.521l-11.211-8.514l-1.637,0.414
						c-6.656,1.662-11.307,7.652-11.307,14.514v9.02c0,1.773,1.395,3.188,3.168,3.188h41.986c1.773,0,3.285-1.414,3.285-3.195
						v-9.012C141.292,176.116,136.594,170.134,129.928,168.466L129.928,168.466z M125.045,186.091"/>
					<path fill="#91602A" d="M131.768,146.972c0,0-0.105-6.957-2.977-9.71h0.006c-1.158-1.821-3.67-3.761-5.215-4.698
						c-10.145-6.188-15.641,1.725-16.268,2.703c-0.932,0.338-6.74,2.893-5.059,11.93c-0.018,0.297-0.033,0.6-0.047,0.916
						c-0.396,0.182,6.475-1.965,8.715-7.934c0,0,4.025,1.424,7.633,1.238c3.174-0.162,6.045-1.987,6.098-1.822
						C126.653,145.901,132.014,147.065,131.768,146.972L131.768,146.972z M116.979,166.169"/>
					<ellipse fill="#524032" cx="122.075" cy="152.069" rx="0.822" ry="1.355"/>
					<ellipse fill="#524032" cx="111.538" cy="152.069" rx="0.822" ry="1.355"/>
					<path fill="#D3A884" d="M118.151,156.571c0,0-0.518-0.467-1.275-0.467c-0.727,0-1.289,0.467-1.289,0.467s0.262-1.17,1.289-1.17
						C117.905,155.401,118.151,156.571,118.151,156.571z"/>
					<path opacity="0.3" fill="#524032" d="M113.211,159.753c0,0,3.418,3.43,6.848,0H113.211z"/>
				</g>
			</g>
		</g>
		<g>
			<g>
				<path fill="#DBB395" d="M131.174,42.579c0,8.777-7.047,15.894-15.742,15.894c-8.689,0-15.734-7.116-15.734-15.894
					c0-8.776,7.045-15.893,15.734-15.893C124.127,26.687,131.174,33.803,131.174,42.579z"/>
				<path d="M112.788,58.164c-5.977-1.225-10.48-6.515-10.48-12.861c0-4.806,2.609-8.962,6.461-11.249
					c1.225,2.643,3.73,5.343,7.18,7.337c4.521,2.607,9.316,3.251,12.426,2.007c0.098,0.627,0.188,1.252,0.188,1.905
					c0,6.347-4.494,11.637-10.475,12.861c8.4-1.285,14.852-8.478,14.852-17.239c0-9.664-7.838-17.502-17.502-17.502
					c-9.666,0-17.506,7.838-17.506,17.502C97.93,49.687,104.393,56.879,112.788,58.164L112.788,58.164z M112.788,58.164"/>
				<path fill="#F15A30" d="M126.78,58.649h-1.811c0,5.003-4.055,9.055-9.057,9.055s-9.055-4.052-9.055-9.055h-1.812
					c-5.998,0-10.865,4.862-10.865,10.865v10.868c0,2.001,1.617,3.622,3.623,3.622h36.221c2.002,0,3.623-1.621,3.623-3.622V69.515
					C137.647,63.512,132.784,58.649,126.78,58.649L126.78,58.649z M126.78,61.353"/>
				<path fill="#E86666" d="M112.272,50.78c0,0,1.473,1.322,3.617,1.322c2.07,0,3.666-1.322,3.666-1.322s-0.748,3.315-3.666,3.315
					S112.272,50.78,112.272,50.78z"/>
				<path fill="#524032" d="M121.588,43.274c0,0.824-0.346,1.492-0.771,1.492s-0.77-0.668-0.77-1.492s0.461,0,0.887,0
					S121.588,42.45,121.588,43.274z"/>
				<ellipse fill="#524032" cx="111.01" cy="43.274" rx="0.822" ry="1.355"/>
				<path fill="#D3A884" d="M117.165,47.833c0,0-0.48-0.434-1.186-0.434c-0.678,0-1.199,0.434-1.199,0.434s0.244-1.088,1.199-1.088
					S117.165,47.833,117.165,47.833z"/>
			</g>
			<g>
				<circle fill="none" cx="116.446" cy="44.389" r="39.342"/>
				<g>
					<defs>
						<circle id="SVGID_13_" cx="116.446" cy="44.389" r="39.342"/>
					</defs>
					<clipPath id="SVGID_14_">
						<use xlink:href="#SVGID_13_"  overflow="visible"/>
					</clipPath>
				</g>
			</g>
		</g>
		<g>
			<defs>
				<circle id="SVGID_15_" cx="190.258" cy="97.976" r="39.342"/>
			</defs>
			<clipPath id="SVGID_16_">
				<use xlink:href="#SVGID_15_"  overflow="visible"/>
			</clipPath>
			<g clip-path="url(#SVGID_16_)">
				<g>
					<path fill="#F4D9C1" d="M205.563,93.702c-0.191-5.085-1.297-8.443-2.959-10.741h0.008c-1.16-1.821-3.672-3.761-5.217-4.698
						c-10.143-6.188-15.639,1.725-16.266,2.703c-0.934,0.338-6.742,2.893-5.061,11.93c-0.018,0.297-0.033,0.6-0.047,0.916
						c-1.234,0.567-2.16,1.892-1.91,4.893c0.26,3.174,1.855,4.607,3.594,4.974c2.449,6.015,7.322,10.983,13.088,10.983
						c5.746,0,10.611-4.941,13.074-10.934c1.82-0.291,3.553-1.705,3.828-5.023C207.958,95.53,206.903,94.212,205.563,93.702
						L205.563,93.702z M190.793,111.868"/>
				</g>
				<path fill="#2C5B73" d="M203.743,114.165l-1.689-0.416l-11.225,25.521l-11.211-25.514l-1.637,0.415
					c-6.656,1.661-11.307,7.651-11.307,14.514v9.019c0,1.773,1.395,3.188,3.166,3.188h41.988c1.773,0,3.283-1.414,3.283-3.194
					v-9.012C215.106,121.815,210.407,115.833,203.743,114.165L203.743,114.165z M198.858,131.79l3.16-3.413
					c0.744-0.813,2.027-0.821,2.766-0.007l3.16,3.42H198.858z M198.858,131.79"/>
				<path fill="#1A3A49" d="M190.938,134.599l3.754-9.514l-1.74-1.737c1.098-0.138,1.863-1.216,1.594-2.325l-0.766-3.203
					c-0.207-0.854-0.965-1.461-1.842-1.461h-2.062c-0.875,0-1.643,0.607-1.842,1.461l-0.773,3.203
					c-0.268,1.109,0.502,2.18,1.6,2.325l-1.736,1.737L190.938,134.599z M190.938,134.599"/>
				<path fill="#524032" d="M205.581,92.672c-0.193-5.085-1.314-7.413-2.977-9.711h0.008c-1.16-1.821-3.672-3.761-5.217-4.698
					c-10.143-6.188-15.639,1.725-16.266,2.703c-0.934,0.338-6.742,2.893-5.061,11.93c-0.018,0.297-0.033,0.6-0.047,0.916
					c-0.395,0.182,6.475-1.965,8.715-7.934c0,0,2.094,3.062,7.746,5.196C199.047,93.553,205.995,92.829,205.581,92.672
					L205.581,92.672z M190.793,111.868"/>
				<ellipse fill="#524032" cx="195.888" cy="97.373" rx="0.821" ry="1.354"/>
				<path fill="#524032" d="M186.051,97.372c0,0.749-0.316,1.355-0.699,1.355c-0.393,0-0.699-0.606-0.699-1.355
					c0-0.746,0.307-1.354,0.699-1.354C185.735,96.019,186.051,96.626,186.051,97.372z"/>
				<path fill="#D3A884" d="M191.963,102.271c0,0-0.516-0.466-1.273-0.466c-0.729,0-1.291,0.466-1.291,0.466
					s0.264-1.169,1.291-1.169S191.963,102.271,191.963,102.271z"/>
				<path opacity="0.2" fill="#524032" d="M187.024,105.453c0,0,3.42,3.429,6.848,0H187.024z"/>
			</g>
		</g>
		<g opacity="0.6">
			<g>
				<path fill="#FFFFFF" d="M29.686,154.046c0.672-0.465,1.125-1.324,1.125-2.307c0-1.332-0.27-2.691-2.266-2.691
					s-2.266,1.359-2.266,2.691c0,0.982,0.453,1.842,1.125,2.307c-1.488,0.445-2.564,1.736-2.564,3.256
					c0,0.785,0.4,1.342,1.186,1.656c0.576,0.229,1.377,0.334,2.52,0.334s1.943-0.105,2.52-0.334
					c0.785-0.314,1.186-0.871,1.186-1.656C32.25,155.782,31.174,154.491,29.686,154.046L29.686,154.046z M29.686,154.046"/>
			</g>
			<path fill="#FFFFFF" d="M37.393,158.659c0.84-0.582,1.406-1.656,1.406-2.887c0-1.664-0.336-3.365-2.836-3.365
				c-2.496,0-2.834,1.701-2.834,3.365c0,1.23,0.568,2.305,1.408,2.887c-1.859,0.559-3.209,2.174-3.209,4.078
				c0,0.979,0.498,1.676,1.484,2.066c0.721,0.291,1.723,0.424,3.15,0.424c1.43,0,2.434-0.133,3.152-0.424
				c0.986-0.391,1.486-1.088,1.486-2.066C40.602,160.833,39.252,159.218,37.393,158.659L37.393,158.659z M37.393,158.659"/>
			<path fill="#FFFFFF" d="M44.651,154.167c0.67-0.463,1.123-1.324,1.123-2.307c0-1.328-0.271-2.689-2.266-2.689
				c-1.998,0-2.268,1.361-2.268,2.689c0,0.982,0.453,1.844,1.125,2.307c-1.484,0.447-2.564,1.738-2.564,3.26
				c0,0.781,0.398,1.34,1.188,1.652c0.576,0.232,1.377,0.338,2.52,0.338s1.941-0.105,2.52-0.338
				c0.785-0.312,1.186-0.871,1.186-1.652C47.213,155.905,46.135,154.614,44.651,154.167L44.651,154.167z M44.651,154.167"/>
		</g>
		<path opacity="0.6" fill="#FFFFFF" d="M189.118,168.712c0.013-0.055,0.031-0.109,0.031-0.168v-8.865
			c0-0.068-0.02-0.131-0.035-0.193l-5.539,4.594L189.118,168.712z"/>
		<g>
			<polygon opacity="0.6" fill="#FFFFFF" points="174.335,169.28 188.335,169.28 182.84,164.688 181.249,166.009 179.762,164.745 
							"/>
			<path opacity="0.6" fill="#FFFFFF" d="M179.037,164.13l-5.603-4.762c-0.041,0.096-0.066,0.199-0.066,0.311v8.865
				c0,0.1,0.02,0.193,0.053,0.279L179.037,164.13z"/>
		</g>
		<polygon opacity="0.6" fill="#FFFFFF" points="188.305,158.94 174.379,158.94 181.256,164.784 		"/>
	</g>
</g>
<g id="Layer_2">
</g>
</svg>