<svg version="1.1" id="Layer_1" xmlns="http://www.w3.org/2000/svg" xmlns:xlink="http://www.w3.org/1999/xlink" x="0px" y="0px"
	 width="219.299px" height="149.123px" viewBox="0 0 219.299 149.123" enable-background="new 0 0 219.299 149.123"
	 xml:space="preserve">
<rect x="5.309" y="4.387" fill="#FFFFFF" width="210.477" height="140.796"/>
<rect x="11.045" y="10.335" fill="#F3F3F3" width="199.588" height="128.897"/>
<g>
	<g>
		<polyline fill="none" stroke="#9EA6A9" stroke-width="0.4624" stroke-miterlimit="10" points="196.612,118.932 196.612,122.878 
			25.001,122.878 25.001,118.932 		"/>
		
			<line fill="none" stroke="#9EA6A9" stroke-width="0.4624" stroke-miterlimit="10" x1="196.612" y1="103.605" x2="25.001" y2="103.605"/>
		
			<line fill="none" stroke="#9EA6A9" stroke-width="0.4624" stroke-miterlimit="10" x1="196.612" y1="84.328" x2="25.001" y2="84.328"/>
		
			<line fill="none" stroke="#9EA6A9" stroke-width="0.4624" stroke-miterlimit="10" x1="196.612" y1="65.054" x2="25.001" y2="65.054"/>
		
			<line fill="none" stroke="#9EA6A9" stroke-width="0.4624" stroke-miterlimit="10" x1="196.612" y1="45.777" x2="25.001" y2="45.777"/>
		
			<line fill="none" stroke="#9EA6A9" stroke-width="0.4624" stroke-miterlimit="10" x1="196.612" y1="26.501" x2="25.001" y2="26.501"/>
		<g>
			<g>
				
					<line fill="none" stroke="#9EA6A9" stroke-width="0.3578" stroke-miterlimit="10" x1="118.508" y1="127.583" x2="118.508" y2="122.878"/>
				
					<line fill="none" stroke="#9EA6A9" stroke-width="0.3578" stroke-miterlimit="10" x1="101.653" y1="127.583" x2="101.653" y2="122.878"/>
				
					<line fill="none" stroke="#9EA6A9" stroke-width="0.3578" stroke-miterlimit="10" x1="84.797" y1="127.583" x2="84.797" y2="122.878"/>
				
					<line fill="none" stroke="#9EA6A9" stroke-width="0.3578" stroke-miterlimit="10" x1="67.94" y1="127.583" x2="67.94" y2="122.878"/>
				
					<line fill="none" stroke="#9EA6A9" stroke-width="0.3578" stroke-miterlimit="10" x1="51.085" y1="127.583" x2="51.085" y2="122.878"/>
				
					<line fill="none" stroke="#9EA6A9" stroke-width="0.3578" stroke-miterlimit="10" x1="34.228" y1="127.583" x2="34.228" y2="122.878"/>
			</g>
		</g>
		<g>
			<g>
				
					<line fill="none" stroke="#9EA6A9" stroke-width="0.3578" stroke-miterlimit="10" x1="184.865" y1="127.583" x2="184.865" y2="122.878"/>
				
					<line fill="none" stroke="#9EA6A9" stroke-width="0.3578" stroke-miterlimit="10" x1="168.009" y1="127.583" x2="168.009" y2="122.878"/>
				
					<line fill="none" stroke="#9EA6A9" stroke-width="0.3578" stroke-miterlimit="10" x1="151.154" y1="127.583" x2="151.154" y2="122.878"/>
				
					<line fill="none" stroke="#9EA6A9" stroke-width="0.3578" stroke-miterlimit="10" x1="134.297" y1="127.583" x2="134.297" y2="122.878"/>
			</g>
		</g>
		<rect x="104.921" y="45.777" fill="#EE5B43" width="10.319" height="77.101"/>
		<rect x="104.921" y="26.501" fill="#F0D51C" width="10.319" height="96.377"/>
		<rect x="104.921" y="84.632" fill="#E80A89" width="10.319" height="38.246"/>
		<rect x="88.065" y="26.501" fill="#F0D51C" width="10.319" height="96.377"/>
		<rect x="88.065" y="103.755" fill="#E80A89" width="10.319" height="19.123"/>
		<rect x="71.208" y="37.761" fill="#EE5B43" width="10.321" height="85.117"/>
		<rect x="71.208" y="37.761" fill="#F0D51C" width="10.321" height="85.117"/>
		<rect x="71.208" y="45.777" fill="#E80A89" width="10.321" height="77.101"/>
		<rect x="54.353" y="26.501" fill="#F0D51C" width="10.319" height="96.377"/>
		<rect x="54.353" y="65.054" fill="#E80A89" width="10.319" height="57.825"/>
		<rect x="37.496" y="45.978" fill="#F0D51C" width="10.321" height="76.9"/>
		<rect x="37.496" y="103.755" fill="#E80A89" width="10.321" height="19.123"/>
		<rect x="172.065" y="26.501" fill="#F0D51C" width="10.319" height="96.377"/>
		<rect x="172.065" y="72.109" fill="#E80A89" width="10.319" height="50.768"/>
		<rect x="155.209" y="26.188" fill="#F0D51C" width="10.32" height="96.69"/>
		<rect x="155.209" y="37.761" fill="#F0D51C" width="10.32" height="85.117"/>
		<rect x="155.209" y="103.3" fill="#E80A89" width="10.32" height="19.578"/>
		<rect x="138.354" y="26.654" fill="#EE5B43" width="10.318" height="96.225"/>
		<rect x="138.354" y="26.501" fill="#F0D51C" width="10.318" height="96.377"/>
		<rect x="138.354" y="65.054" fill="#E80A89" width="10.318" height="57.825"/>
		<rect x="121.496" y="34.536" fill="#F0D51C" width="10.32" height="88.342"/>
		<rect x="121.496" y="83.721" fill="#F0D51C" width="10.32" height="39.157"/>
		<rect x="121.496" y="93.965" fill="#E80A89" width="10.32" height="28.912"/>
	</g>
</g>
</svg>