<svg version="1.1" id="empresario" xmlns="http://www.w3.org/2000/svg" xmlns:xlink="http://www.w3.org/1999/xlink" x="0px" y="0px"
	 width="65px" height="159px" viewBox="0 0 65 159" enable-background="new 0 0 65 159" xml:space="preserve">
<g id="cabeza_empresario" class="cabeza">
	<path fill="#F1C9A5" d="M51.672,30.444c0.03,12.607-10.066,22.855-22.557,22.887c-12.482,0.03-22.629-10.169-22.66-22.775
		C6.425,17.948,16.521,7.7,29.003,7.67C41.493,7.639,51.643,17.837,51.672,30.444z"/>
	<path fill="#666666" stroke="#666666" stroke-width="0.5" stroke-miterlimit="10" d="M37.937,27.338
		c-3.056,0-7.24,2.04-6.451,5.396c0.591,2.512,3.265,5.133,6.317,5.133s5.199-2.49,5.791-5.002
		C44.384,29.509,40.987,27.338,37.937,27.338z M43.257,32.856c-0.554,2.351-2.562,4.681-5.421,4.681
		c-2.856,0-5.358-2.453-5.912-4.804c-0.738-3.142,3.179-5.05,6.035-5.05C40.817,27.683,43.995,29.715,43.257,32.856z"/>
	<path fill="#666666" stroke="#666666" stroke-width="0.5" stroke-miterlimit="10" d="M22.562,27.338
		c-3.053,0-6.449,2.171-5.66,5.527c0.592,2.512,2.738,5.002,5.792,5.002s5.727-2.621,6.318-5.133
		C29.801,29.378,25.615,27.338,22.562,27.338z M28.637,32.733c-0.559,2.351-3.086,4.804-5.972,4.804c-2.884,0-4.913-2.33-5.47-4.681
		c-0.747-3.141,2.462-5.173,5.347-5.173C25.425,27.683,29.381,29.591,28.637,32.733z"/>
	<path fill="#666666" d="M31.71,32.396c-1.667-1.134-2.919,0.022-2.93,0.033l-0.192-0.449c0.014-0.014,1.402-1.363,3.404,0.002
			L31.71,32.396z"/>
	
		<line fill="#666666" stroke="#666666" stroke-width="0.931" stroke-miterlimit="10" x1="48.663" y1="28.997" x2="43.503" y2="30.901"/>
	<path fill="#986E2A" d="M27.081,52.838C16.26,51.004,10.197,27.895,10.197,27.895s31.417-0.321,33.7-11.696
		c-0.162,0.806,4.697,13.204,4.734,15.001c0.176,8.385-9.826,21.363-15.277,21.715C54.812,51.53,54.21,32.77,54.188,22.812
		C54.159,11.829,42.88,2.948,28.996,2.982C15.111,3.016,4.353,11.948,3.899,22.935C2.454,57.993,27.081,52.838,27.081,52.838z"/>
	<path fill="#E86666" d="M24.549,42.292c0,0,2.119,1.895,5.201,1.887c2.972-0.007,5.26-1.912,5.26-1.912s-1.062,4.765-5.253,4.774
		C25.564,47.051,24.549,42.292,24.549,42.292z"/>
	<path fill="#524032" d="M23.89,31.51c0.002,1.075-0.524,1.949-1.18,1.951c-0.65,0.001-1.179-0.87-1.181-1.945
		c-0.003-1.074,0.521-1.946,1.171-1.947C23.355,29.567,23.887,30.436,23.89,31.51z"/>
	<path fill="#524032" d="M38.805,31.51c0.002,1.075-0.523,1.95-1.18,1.951c-0.65,0.002-1.18-0.87-1.184-1.945
		c-0.002-1.074,0.522-1.945,1.174-1.947C38.271,29.568,38.802,30.436,38.805,31.51z"/>
	<path fill="#D3A884" d="M31.565,38.042c0,0-0.691-0.622-1.703-0.619c-0.975,0.002-1.724,0.627-1.724,0.627s0.347-1.562,1.721-1.565
		C31.231,36.48,31.565,38.042,31.565,38.042z"/>
	<circle fill="#F1C9A5" cx="12.939" cy="34.41" r="3.393"/>
	<circle fill="#F1C9A5" cx="47.288" cy="34.318" r="3.393"/>
	<line fill="#666666" stroke="#666666" stroke-miterlimit="10" x1="10.809" y1="30.425" x2="16.761" y2="32.33"/>
</g>
<path fill="#0D72BA" d="M49.216,79.746c-0.715-3.483-4.62-13.471-7.577-17.579c-0.037-0.053-0.087-0.087-0.13-0.132
	c-0.362-0.425-0.842-0.818-1.487-1.153c-4.754-2.468-18.487-2.823-21.444,1.285c-2.956,4.108-6.862,14.096-7.578,17.579
	C10.283,83.229,9.771,97.6,9.771,97.6h3.379c0,0,0.937-14.729,1.64-17.854c0.702-3.126,5.064-10.927,5.064-10.927l2.702,7.445
	l-1.72,22.612l18.393,0.2L37.66,76.264l0.266-0.734l2.818-6.017c1.074,1.973,4.105,7.67,4.683,10.232
	c0.702,3.126,1.64,17.854,1.64,17.854h3.379C50.443,97.6,49.932,83.229,49.216,79.746z"/>
<polygon fill="#A88859" points="20.817,98.355 21.609,120.744 37.891,120.744 39.264,98.507 "/>
<polygon fill="#F1C9A5" points="21.609,120.744 23.844,151.71 27.993,151.71 28.632,120.744 "/>
<polygon fill="#F1C9A5" points="37.1,120.744 34.863,151.71 30.714,151.71 30.075,120.744 "/>
<polygon fill="#082021" points="30.714,151.71 30.738,157.617 32.463,157.617 32.463,156.339 34.538,157.617 41.88,157.617 
	34.863,151.71 "/>
<polygon fill="#082021" points="28.132,151.71 28.107,157.617 26.383,157.617 26.383,156.339 24.308,157.617 16.966,157.617 
	23.981,151.71 "/>
<path fill="#F1C9A5" d="M9.159,98.876c-0.198,1.739-0.1,3.249,0,4.791c0.101,1.542,1.512,1.81,2.15,0.212
	c0.638-1.597,0.403-3.404,0.403-3.404s0.639,2.646,1.437,1.403s0.084-5.556,0.084-5.556l-3.407-0.149
	C9.826,96.173,9.357,97.137,9.159,98.876z"/>
<rect x="27.081" y="62.664" fill="#0D72BA" width="6.299" height="35.607"/>
<polygon fill="#F1C9A5" points="33.38,63.657 30.23,68.819 27.112,63.672 27.081,51.093 33.35,51.078 "/>
<g>
	<g>
		<rect x="35.676" y="103.077" fill="#985F37" width="26.495" height="17.833"/>
		
			<line fill="none" stroke="#82491F" stroke-width="0.4898" stroke-miterlimit="10" x1="35.676" y1="108.936" x2="62.171" y2="108.936"/>
		<ellipse fill="#82491F" cx="48.657" cy="108.936" rx="1.167" ry="1.084"/>
	</g>
	<path fill="none" stroke="#985F37" stroke-miterlimit="10" d="M44.404,103.709c0,0,0.535-3.666,3.48-3.842
		c4.119-0.246,4.961,1.765,5.145,3.842"/>
</g>
<path fill="#F1C9A5" d="M51.148,99.46c0.199,1.739-0.996,1.447-2.553,1.599c-3.088,0.301-1.521-4.151-1.521-4.151l3.408-0.149
	C50.482,96.757,50.951,97.721,51.148,99.46z"/>
</svg>
