<svg version="1.1" id="contratacion" xmlns="http://www.w3.org/2000/svg" xmlns:xlink="http://www.w3.org/1999/xlink" x="0px" y="0px"
	 width="25px" height="25px" viewBox="0 0 25 25" enable-background="new 0 0 25 25" xml:space="preserve">
<g>
	<g>
		<g>
			<path fill="#DC5BA1" d="M22.117,2.637H7.832c-0.173,0-0.312,0.139-0.312,0.311v1.249H5.203c-0.09,0-0.176,0.039-0.235,0.106
				C4.909,4.371,4.882,4.461,4.893,4.551l0.122,0.896H2.881c-0.098,0-0.19,0.045-0.249,0.125c-0.06,0.078-0.077,0.18-0.049,0.273
				l4.751,16.293c0.04,0.139,0.166,0.225,0.301,0.225h14.482c0.172,0,0.312-0.139,0.312-0.311V2.949
				C22.43,2.775,22.289,2.637,22.117,2.637L22.117,2.637z M7.519,5.82v13.471L6.098,5.82H7.519z M5.099,6.488l1.56,11.1l-2.813-11.1
				H5.099z M20.891,20.529H9.045V4.523h11.845V20.529z M18.545,9.025h-7.032V8.191h7.032V9.025z M11.513,11.7h7.032v0.722h-7.032
				V11.7z M11.593,15.244h7.029v0.83h-7.029V15.244z M9.15,18.258"/>
		</g>
	</g>
</g>
</svg>