<svg version="1.1" id="planeacion" xmlns="http://www.w3.org/2000/svg"
	 width="25px" height="25px" viewBox="0 0 25 25" >
<g>
	<path fill="#DC5BA1" d="M18.322,7.551h2.828c0.516,0,0.934-0.418,0.934-0.935V3.788c0-0.517-0.418-0.935-0.934-0.935h-2.828
		c-0.516,0-0.934,0.418-0.934,0.935v0.501h-3.66c-0.404,0-0.729,0.326-0.729,0.729v6.754h-1.386c-0.35-2.069-2.152-3.65-4.318-3.65
		c-2.414,0-4.379,1.965-4.379,4.379s1.965,4.379,4.379,4.379c2.166,0,3.969-1.58,4.318-3.648h1.386v6.752
		c0,0.404,0.325,0.73,0.729,0.73h3.66v0.5c0,0.516,0.418,0.934,0.934,0.934h2.828c0.516,0,0.934-0.418,0.934-0.934v-2.828
		c0-0.516-0.418-0.934-0.934-0.934h-2.828c-0.516,0-0.934,0.418-0.934,0.934v0.869h-2.93V13.23h2.93v0.684
		c0,0.516,0.418,0.936,0.934,0.936h2.828c0.516,0,0.934-0.42,0.934-0.936v-2.827c0-0.517-0.418-0.935-0.934-0.935h-2.828
		c-0.516,0-0.934,0.418-0.934,0.935v0.685h-2.93V5.748h2.93v0.868C17.389,7.133,17.807,7.551,18.322,7.551L18.322,7.551z
		 M7.745,12.502c0,0.246-0.201,0.448-0.449,0.448H5.707c-0.246,0-0.448-0.202-0.448-0.448c0-0.248,0.202-0.449,0.448-0.449h1.14
		v-1.91c0-0.247,0.201-0.448,0.449-0.448s0.449,0.201,0.449,0.448V12.502z M7.745,12.502"/>
</g>
</svg>