<svg version="1.1" id="licitacion" xmlns="http://www.w3.org/2000/svg" xmlns:xlink="http://www.w3.org/1999/xlink" x="0px" y="0px"
	 width="25px" height="25px" viewBox="0 0 25 25" enable-background="new 0 0 25 25" xml:space="preserve">
<g>
	<g>
		<g>
			<path fill="#DC5BA1" d="M13.557,7.236c0.622-0.431,1.041-1.227,1.041-2.136c0-1.232-0.249-2.491-2.097-2.491
				c-1.849,0-2.098,1.259-2.098,2.491c0,0.909,0.419,1.705,1.041,2.136c-1.376,0.412-2.374,1.607-2.374,3.015
				c0,0.726,0.371,1.241,1.099,1.532c0.534,0.212,1.274,0.311,2.333,0.311c1.057,0,1.797-0.099,2.332-0.311
				c0.728-0.291,1.099-0.807,1.099-1.532C15.931,8.844,14.933,7.648,13.557,7.236L13.557,7.236z M13.557,7.236"/>
		</g>
		<path fill="#DC5BA1" d="M6.987,16.549c0.623-0.43,1.041-1.225,1.041-2.135c0-1.231-0.25-2.49-2.097-2.49
			c-1.848,0-2.098,1.259-2.098,2.49c0,0.91,0.419,1.705,1.041,2.135C3.499,16.963,2.5,18.158,2.5,19.566
			c0,0.725,0.37,1.24,1.098,1.529c0.534,0.215,1.274,0.312,2.333,0.312c1.058,0,1.799-0.098,2.332-0.312
			c0.729-0.289,1.099-0.805,1.099-1.529C9.361,18.158,8.363,16.963,6.987,16.549L6.987,16.549z M6.987,16.549"/>
		<path fill="#DC5BA1" d="M20.127,16.549c0.622-0.43,1.04-1.225,1.04-2.135c0-1.231-0.25-2.49-2.098-2.49s-2.098,1.259-2.098,2.49
			c0,0.91,0.42,1.705,1.041,2.135c-1.375,0.414-2.373,1.609-2.373,3.018c0,0.725,0.369,1.24,1.098,1.529
			c0.533,0.215,1.274,0.312,2.332,0.312c1.059,0,1.799-0.098,2.332-0.312c0.729-0.289,1.099-0.805,1.099-1.529
			C22.5,18.158,21.502,16.963,20.127,16.549L20.127,16.549z M20.127,16.549"/>
		<path fill="#DC5BA1" d="M14.817,21.234c-0.024-0.061-0.07-0.109-0.131-0.135c-0.06-0.025-0.127-0.027-0.188-0.002
			c-0.526,0.211-1.181,0.312-1.999,0.312c-0.818,0-1.472-0.102-2-0.312c-0.061-0.025-0.128-0.023-0.188,0.002
			c-0.059,0.025-0.106,0.074-0.131,0.135L10,21.689c-0.05,0.125,0.012,0.268,0.137,0.318c0.645,0.256,1.418,0.383,2.363,0.383
			s1.718-0.127,2.362-0.383c0.126-0.051,0.188-0.193,0.137-0.318L14.817,21.234z M14.817,21.234"/>
		<path fill="#DC5BA1" d="M5.276,10.68l0.45,0.192c0.031,0.013,0.064,0.02,0.096,0.02c0.096,0,0.186-0.055,0.226-0.148
			c0.224-0.521,0.614-1.056,1.192-1.634C7.819,8.53,8.354,8.141,8.875,7.917c0.06-0.026,0.107-0.074,0.131-0.135
			c0.024-0.06,0.024-0.127-0.002-0.188L8.81,7.145C8.757,7.021,8.612,6.963,8.488,7.016C7.85,7.29,7.215,7.748,6.547,8.415
			c-0.669,0.669-1.126,1.304-1.4,1.942C5.094,10.481,5.151,10.626,5.276,10.68L5.276,10.68z M5.276,10.68"/>
		<path fill="#DC5BA1" d="M16.126,7.917c0.521,0.224,1.055,0.613,1.635,1.192c0.578,0.578,0.969,1.113,1.191,1.634
			c0.04,0.094,0.131,0.148,0.227,0.148c0.031,0,0.064-0.007,0.096-0.02l0.449-0.192c0.125-0.054,0.183-0.198,0.129-0.322
			c-0.272-0.639-0.73-1.273-1.4-1.942c-0.667-0.667-1.303-1.125-1.939-1.399c-0.125-0.053-0.269,0.005-0.322,0.129l-0.193,0.45
			c-0.025,0.061-0.027,0.128-0.002,0.188C16.019,7.843,16.065,7.891,16.126,7.917L16.126,7.917z M16.126,7.917"/>
	</g>
</g>
</svg>