<svg version="1.1" id="adjudicacion" xmlns="http://www.w3.org/2000/svg" xmlns:xlink="http://www.w3.org/1999/xlink" x="0px" y="0px"
	 width="25px" height="25px" viewBox="0 0 25 25" enable-background="new 0 0 25 25" xml:space="preserve">
<g>
	<path fill="#DC5BA1" d="M22.389,10.686c-3.215,6.812-4.264,6.812-4.887,6.812h-6.157c-2.156,0-3.805-1.266-4.207-3.229
		c-0.012-0.061-1.232-6.04-1.544-7.712C5.444,5.739,5.053,5.19,3.653,5.19C3.015,5.19,2.5,4.676,2.5,4.038
		c0-0.639,0.515-1.153,1.153-1.153c2.325,0,3.82,1.153,4.21,3.249c0.308,1.652,1.525,7.612,1.537,7.673
		c0.245,1.205,1.327,1.387,1.945,1.387h5.852c0.628-0.678,2.059-3.279,3.107-5.491c0.27-0.579,0.957-0.823,1.535-0.553
		C22.415,9.42,22.662,10.107,22.389,10.686L22.389,10.686z M10.575,18.27c-1.059,0-1.923,0.859-1.923,1.922s0.865,1.924,1.923,1.924
		c1.063,0,1.923-0.861,1.923-1.924S11.638,18.27,10.575,18.27L10.575,18.27z M17.502,18.27c-1.063,0-1.923,0.859-1.923,1.922
		s0.859,1.924,1.923,1.924c1.059,0,1.924-0.861,1.924-1.924S18.561,18.27,17.502,18.27L17.502,18.27z M13.779,11.997
		c0.075,0.06,0.173,0.09,0.267,0.09s0.188-0.03,0.267-0.09c0.075-0.064,2.175-2.111,3.32-3.812c0.087-0.132,0.095-0.301,0.02-0.439
		c-0.071-0.143-0.218-0.229-0.376-0.229h-1.713c0,0-0.165-3.302-0.274-3.452c-0.161-0.229-0.814-0.383-1.243-0.383
		c-0.432,0-1.101,0.154-1.258,0.383c-0.109,0.15-0.251,3.452-0.251,3.452h-1.736c-0.158,0-0.304,0.087-0.379,0.229
		c-0.075,0.139-0.064,0.308,0.022,0.439C11.589,9.89,13.704,11.933,13.779,11.997L13.779,11.997z M13.779,11.997"/>
</g>
</svg>
